<svg width="3330" height="2045" viewBox="0 0 3330 2045" fill="none" xmlns="http://www.w3.org/2000/svg">
<g clip-path="url(#clip0_2086_2595)">
<rect width="3330" height="2045" fill="white"/>
<path d="M297.852 1094.61C288.737 1094.61 280.273 1093.05 272.461 1089.92C264.648 1086.54 257.487 1081.59 250.977 1075.08C244.466 1068.57 239.518 1061.41 236.133 1053.59C233.008 1045.78 231.445 1037.32 231.445 1028.2C231.445 1026.64 231.445 1025.21 231.445 1023.91C231.445 1022.6 231.445 1021.3 231.445 1020C231.445 1010.89 233.008 1002.29 236.133 994.219C239.518 986.406 244.466 979.245 250.977 972.734C257.487 966.224 264.648 961.406 272.461 958.281C280.273 954.896 288.737 953.203 297.852 953.203C315.299 953.203 332.747 953.203 350.195 953.203C367.383 953.203 384.701 953.203 402.148 953.203C408.138 953.203 413.867 953.984 419.336 955.547C424.544 956.849 429.753 959.062 434.961 962.188C440.43 965.052 445.117 968.438 449.023 972.344C452.93 976.25 456.445 980.807 459.57 986.016C460.612 987.578 461.263 989.271 461.523 991.094C461.523 991.875 461.393 992.656 461.133 993.438C460.612 996.302 459.18 998.385 456.836 999.688C454.232 1000.99 451.628 1001.25 449.023 1000.47C446.419 999.948 444.466 998.385 443.164 995.781C440.82 992.135 438.346 988.88 435.742 986.016C432.878 983.411 429.492 980.938 425.586 978.594C421.94 976.51 418.164 974.948 414.258 973.906C410.352 972.865 406.315 972.474 402.148 972.734C384.701 972.734 367.383 972.604 350.195 972.344C332.747 972.344 315.299 972.474 297.852 972.734C291.341 972.734 285.352 973.776 279.883 975.859C274.154 978.203 269.076 981.719 264.648 986.406C259.961 991.094 256.445 996.172 254.102 1001.64C251.758 1007.37 250.586 1013.49 250.586 1020C250.586 1021.3 250.586 1022.6 250.586 1023.91C250.586 1025.21 250.586 1026.64 250.586 1028.2C250.586 1034.71 251.758 1040.7 254.102 1046.17C256.445 1051.9 259.961 1056.98 264.648 1061.41C269.076 1066.09 274.154 1069.61 279.883 1071.95C285.352 1074.3 291.341 1075.47 297.852 1075.47C315.299 1075.47 332.747 1075.47 350.195 1075.47C367.383 1075.47 384.701 1075.47 402.148 1075.47C406.315 1075.47 410.221 1075.08 413.867 1074.3C417.513 1073.26 421.159 1071.69 424.805 1069.61C428.451 1067.79 431.706 1065.57 434.57 1062.97C437.174 1060.36 439.648 1057.37 441.992 1053.98C443.555 1052.16 445.638 1050.99 448.242 1050.47C450.586 1050.21 452.799 1050.73 454.883 1052.03C456.966 1053.33 458.268 1055.29 458.789 1057.89C459.57 1060.23 459.31 1062.45 458.008 1064.53C454.883 1069.48 451.367 1073.78 447.461 1077.42C443.555 1080.81 438.997 1083.93 433.789 1086.8C428.581 1089.66 423.503 1091.61 418.555 1092.66C413.346 1093.96 407.878 1094.61 402.148 1094.61C384.701 1094.61 367.383 1094.61 350.195 1094.61C332.747 1094.61 315.299 1094.61 297.852 1094.61ZM543.539 1094.61C526.091 1094.61 511.117 1088.1 498.617 1075.08C486.117 1062.06 479.867 1046.3 479.867 1027.81C479.867 1013.23 479.867 991.484 479.867 962.578C479.867 959.714 480.779 957.37 482.602 955.547C484.424 953.724 486.638 952.812 489.242 952.812C492.107 952.812 494.451 953.724 496.273 955.547C498.096 957.37 499.008 959.714 499.008 962.578C499.008 973.516 499.008 984.323 499.008 995C499.008 1005.94 499.008 1016.88 499.008 1027.81C499.008 1040.83 503.435 1052.03 512.289 1061.41C520.883 1070.52 531.43 1075.08 543.93 1075.08C565.023 1075.08 596.664 1075.08 638.852 1075.08C651.352 1075.08 661.898 1070.52 670.492 1061.41C679.346 1052.03 683.773 1040.83 683.773 1027.81C683.773 1013.23 683.773 991.484 683.773 962.578C683.773 959.714 684.685 957.37 686.508 955.547C688.331 953.724 690.674 952.812 693.539 952.812C696.143 952.812 698.357 953.724 700.18 955.547C702.003 957.37 702.914 959.714 702.914 962.578C702.914 973.516 702.914 984.323 702.914 995C702.914 1005.94 702.914 1016.88 702.914 1027.81C702.914 1046.3 696.664 1062.06 684.164 1075.08C671.664 1088.1 656.56 1094.61 638.852 1094.61C622.966 1094.61 607.081 1094.61 591.195 1094.61C575.31 1094.61 559.424 1094.61 543.539 1094.61ZM976.336 1077.03C978.159 1078.33 979.461 1079.9 980.242 1081.72C980.503 1082.76 980.633 1083.93 980.633 1085.23C980.633 1086.02 980.503 1086.93 980.242 1087.97C979.721 1090.05 978.549 1091.74 976.727 1093.05C975.164 1094.09 973.211 1094.61 970.867 1094.61C970.607 1094.61 970.216 1094.61 969.695 1094.61C969.174 1094.61 968.654 1094.48 968.133 1094.22C967.612 1094.22 967.221 1094.09 966.961 1093.83C966.44 1093.57 966.049 1093.31 965.789 1093.05C956.414 1086.54 947.169 1080.03 938.055 1073.52C928.94 1067.01 919.826 1060.49 910.711 1053.98C910.451 1053.98 910.32 1053.85 910.32 1053.59C910.06 1053.59 909.93 1053.46 909.93 1053.2C909.669 1053.2 909.539 1053.07 909.539 1052.81C909.279 1052.81 909.148 1052.81 909.148 1052.81C878.94 1052.81 833.758 1052.81 773.602 1052.81C773.602 1058.28 773.602 1063.62 773.602 1068.83C773.602 1074.3 773.602 1079.77 773.602 1085.23C773.602 1088.1 772.69 1090.44 770.867 1092.27C768.784 1094.09 766.44 1095 763.836 1095C761.232 1095 759.018 1094.09 757.195 1092.27C755.372 1090.44 754.461 1088.1 754.461 1085.23C754.461 1065.18 754.461 1045 754.461 1024.69C754.461 1004.64 754.461 984.453 754.461 964.141C754.461 962.839 754.591 961.536 754.852 960.234C755.372 959.193 756.154 958.151 757.195 957.109C757.977 956.328 759.018 955.677 760.32 955.156C761.362 954.635 762.534 954.375 763.836 954.375C791.961 954.375 820.086 954.375 848.211 954.375C857.586 954.375 866.961 954.375 876.336 954.375C895.086 954.375 913.836 954.375 932.586 954.375C938.836 954.375 944.565 955.547 949.773 957.891C955.242 959.974 960.06 963.229 964.227 967.656C968.654 972.083 972.039 976.901 974.383 982.109C976.466 987.578 977.508 993.307 977.508 999.297C977.508 1000.86 977.508 1002.29 977.508 1003.59C977.508 1004.9 977.508 1006.2 977.508 1007.5C977.508 1012.97 976.727 1018.05 975.164 1022.73C973.341 1027.16 970.737 1031.46 967.352 1035.62C963.966 1040.05 960.19 1043.44 956.023 1045.78C951.857 1048.39 947.169 1050.34 941.961 1051.64C947.69 1055.81 953.419 1059.97 959.148 1064.14C964.878 1068.31 970.607 1072.6 976.336 1077.03ZM773.602 973.516C773.602 986.797 773.602 1006.59 773.602 1032.89C800.164 1032.89 826.596 1032.89 852.898 1032.89C879.461 1032.89 906.023 1032.89 932.586 1032.89C936.232 1032.89 939.487 1032.24 942.352 1030.94C945.477 1029.9 948.211 1028.07 950.555 1025.47C953.159 1022.86 955.112 1020.13 956.414 1017.27C957.716 1014.14 958.367 1010.76 958.367 1007.11C958.367 1005.81 958.367 1004.51 958.367 1003.2C958.367 1001.9 958.367 1000.6 958.367 999.297C958.367 995.651 957.716 992.396 956.414 989.531C955.112 986.406 953.289 983.542 950.945 980.938C948.341 978.594 945.477 976.771 942.352 975.469C939.487 974.167 936.232 973.516 932.586 973.516C906.023 973.516 879.461 973.516 852.898 973.516C826.596 973.516 800.164 973.516 773.602 973.516ZM1193.51 954.375C1196.11 954.375 1198.46 955.286 1200.54 957.109C1202.36 958.932 1203.27 961.146 1203.27 963.75C1203.27 966.615 1202.36 968.958 1200.54 970.781C1198.46 972.604 1196.11 973.516 1193.51 973.516C1173.72 973.516 1144.03 973.516 1104.45 973.516C1104.45 992.266 1104.45 1011.02 1104.45 1029.77C1104.45 1048.26 1104.45 1066.88 1104.45 1085.62C1104.45 1088.23 1103.53 1090.44 1101.71 1092.27C1099.89 1094.35 1097.67 1095.39 1095.07 1095.39C1092.47 1095.39 1090.12 1094.35 1088.04 1092.27C1086.22 1090.44 1085.3 1088.23 1085.3 1085.62C1085.3 1060.62 1085.3 1023.26 1085.3 973.516C1070.46 973.516 1055.62 973.516 1040.77 973.516C1025.93 973.516 1011.09 973.516 996.242 973.516C993.638 973.516 991.424 972.604 989.602 970.781C987.779 968.958 986.867 966.615 986.867 963.75C986.867 961.146 987.779 958.932 989.602 957.109C991.424 955.286 993.638 954.375 996.242 954.375C1029.32 954.375 1062.26 954.375 1095.07 954.375C1127.88 954.375 1160.7 954.375 1193.51 954.375ZM1395.84 953.203C1413.54 953.203 1428.65 959.714 1441.15 972.734C1453.65 985.755 1459.9 1001.38 1459.9 1019.61C1459.9 1030.55 1459.9 1041.48 1459.9 1052.42C1459.9 1063.36 1459.9 1074.3 1459.9 1085.23C1459.9 1087.84 1458.99 1090.05 1457.16 1091.88C1455.08 1093.96 1452.74 1095 1450.13 1095C1447.53 1095 1445.32 1093.96 1443.49 1091.88C1441.41 1090.05 1440.37 1087.84 1440.37 1085.23C1440.37 1078.72 1440.37 1068.96 1440.37 1055.94C1399.48 1055.94 1338.02 1055.94 1255.99 1055.94C1255.99 1060.89 1255.99 1065.83 1255.99 1070.78C1255.99 1075.47 1255.99 1080.29 1255.99 1085.23C1255.99 1087.84 1254.95 1090.05 1252.87 1091.88C1251.04 1093.96 1248.83 1095 1246.23 1095C1243.62 1095 1241.41 1093.96 1239.59 1091.88C1237.5 1090.05 1236.46 1087.84 1236.46 1085.23C1236.46 1070.65 1236.46 1048.78 1236.46 1019.61C1236.46 1001.38 1242.71 985.755 1255.21 972.734C1267.71 959.714 1282.82 953.203 1300.52 953.203C1316.41 953.203 1332.29 953.203 1348.18 953.203C1364.07 953.203 1379.95 953.203 1395.84 953.203ZM1256.38 1036.8C1297.53 1036.8 1359.12 1036.8 1441.15 1036.8C1441.15 1032.89 1441.15 1027.16 1441.15 1019.61C1441.15 1006.59 1436.85 995.521 1428.26 986.406C1419.4 977.031 1408.86 972.344 1396.62 972.344C1375.26 972.344 1343.49 972.344 1301.3 972.344C1288.8 972.344 1278.26 977.031 1269.66 986.406C1260.81 995.521 1256.38 1006.59 1256.38 1019.61C1256.38 1022.47 1256.38 1025.34 1256.38 1028.2C1256.38 1031.07 1256.38 1033.93 1256.38 1036.8Z" fill="#3F5762"/>
<path d="M269.65 1219H234.44V1170H240.74V1213.26H269.65V1219ZM286.343 1219.7C277.663 1219.7 270.173 1213.61 270.173 1201.43C270.173 1189.25 278.013 1183.3 286.203 1183.3C295.163 1183.3 300.833 1189.74 300.833 1198.84V1202.34H276.123C276.403 1210.95 281.513 1214.66 286.273 1214.66H286.833C290.683 1214.66 293.903 1212.77 294.813 1208.78H300.763C299.433 1215.78 293.553 1219.7 286.343 1219.7ZM276.403 1197.51H294.883C294.603 1191.42 291.033 1188.34 286.483 1188.34H285.923C282.003 1188.34 277.593 1190.58 276.403 1197.51ZM324.729 1219H316.539C311.779 1219 309.189 1216.55 309.189 1211.79V1189.11H301.349V1184H309.189V1172.66H315.139V1184H323.679V1189.11H315.139V1210.95C315.139 1213.05 315.839 1213.75 317.939 1213.75H324.729V1219ZM329.419 1187.15H326.829V1183.16H329.209C332.009 1183.16 333.409 1181.76 333.409 1178.96V1177.91H329.279V1170H337.259V1179.31C337.259 1184.49 334.319 1187.15 329.419 1187.15ZM352.618 1219.7C343.448 1219.7 338.548 1214.87 338.408 1208.29H344.358C344.778 1212.7 348.208 1214.66 352.548 1214.66H353.178C357.238 1214.66 360.178 1212.7 360.178 1209.55C360.178 1207.17 358.848 1205.56 354.928 1204.79L349.818 1203.74C344.288 1202.62 339.808 1199.89 339.808 1193.94C339.808 1187.01 345.968 1183.3 352.828 1183.3C361.858 1183.3 366.338 1188.41 366.478 1194.71H360.528C360.108 1191.35 357.798 1188.34 353.178 1188.34H352.548C348.348 1188.34 345.758 1190.65 345.758 1193.31C345.758 1195.97 347.368 1197.37 351.148 1198.14L356.678 1199.33C361.858 1200.38 366.128 1203.04 366.128 1209.2C366.128 1215.64 360.598 1219.7 352.618 1219.7ZM402.771 1219.7C398.011 1219.7 393.041 1217.25 391.221 1213.89V1219H385.271V1170H391.221V1189.11C393.041 1185.75 397.521 1183.3 402.351 1183.3C411.171 1183.3 418.031 1190.09 418.031 1201.5C418.031 1212.91 411.661 1219.7 402.771 1219.7ZM401.511 1214.66H402.001C408.021 1214.66 412.081 1209.62 412.081 1201.5C412.081 1193.38 408.021 1188.34 402.001 1188.34H401.511C395.701 1188.34 391.221 1193.38 391.221 1201.5C391.221 1209.62 395.701 1214.66 401.511 1214.66ZM434.817 1219.7C426.977 1219.7 422.847 1214.45 422.847 1207.1V1184H428.797V1205.7C428.797 1211.65 431.247 1214.66 436.287 1214.66H436.917C441.607 1214.66 446.157 1210.25 446.157 1202.9V1184H452.107V1219H446.157V1212.35C444.687 1216.48 440.767 1219.7 434.817 1219.7ZM465.713 1177.7H459.063V1170.56H465.713V1177.7ZM465.363 1219H459.413V1184H465.363V1219ZM478.543 1219H472.593V1170H478.543V1219ZM498.933 1219.7C490.043 1219.7 483.673 1212.91 483.673 1201.5C483.673 1190.09 490.533 1183.3 499.423 1183.3C504.183 1183.3 508.663 1185.75 510.553 1189.11V1170H516.503V1219H510.553V1213.89C508.663 1217.25 503.693 1219.7 498.933 1219.7ZM499.703 1214.66H500.193C506.073 1214.66 510.553 1209.62 510.553 1201.5C510.553 1193.38 506.073 1188.34 500.193 1188.34H499.703C493.683 1188.34 489.693 1193.38 489.693 1201.5C489.693 1209.62 493.683 1214.66 499.703 1214.66ZM555.305 1219H547.115C542.355 1219 539.765 1216.55 539.765 1211.79V1189.11H531.925V1184H539.765V1172.66H545.715V1184H554.255V1189.11H545.715V1210.95C545.715 1213.05 546.415 1213.75 548.515 1213.75H555.305V1219ZM564.895 1219H558.945V1170H564.895V1189.25C567.065 1185.75 570.845 1183.3 576.515 1183.3C584.495 1183.3 588.905 1188.34 588.905 1195.69V1219H582.955V1197.09C582.955 1191.56 580.645 1188.34 575.465 1188.34H574.835C569.725 1188.34 564.895 1192.47 564.895 1199.61V1219ZM609.915 1219.7C601.235 1219.7 593.745 1213.61 593.745 1201.43C593.745 1189.25 601.585 1183.3 609.775 1183.3C618.735 1183.3 624.405 1189.74 624.405 1198.84V1202.34H599.695C599.975 1210.95 605.085 1214.66 609.845 1214.66H610.405C614.255 1214.66 617.475 1212.77 618.385 1208.78H624.335C623.005 1215.78 617.125 1219.7 609.915 1219.7ZM599.975 1197.51H618.455C618.175 1191.42 614.605 1188.34 610.055 1188.34H609.495C605.575 1188.34 601.165 1190.58 599.975 1197.51ZM676.644 1212.91L684.694 1184H690.854L679.934 1219H673.004L665.234 1190.72L657.464 1219H650.534L639.544 1184H645.774L654.174 1212.77L661.944 1184H668.524L676.644 1212.91ZM707.976 1219.7C698.666 1219.7 691.456 1212.35 691.456 1201.5C691.456 1190.65 698.666 1183.3 707.976 1183.3C717.286 1183.3 724.566 1190.65 724.566 1201.5C724.566 1212.35 717.286 1219.7 707.976 1219.7ZM707.696 1214.66H708.326C714.206 1214.66 718.616 1209.83 718.616 1201.5C718.616 1193.17 714.206 1188.34 708.326 1188.34H707.696C701.816 1188.34 697.406 1193.17 697.406 1201.5C697.406 1209.83 701.816 1214.66 707.696 1214.66ZM735.656 1219H729.706V1184H735.306V1191.77C736.776 1186.45 741.046 1183.65 745.666 1183.65H748.816V1189.32H746.016C739.576 1189.32 735.656 1193.94 735.656 1201.5V1219ZM758.065 1219H752.115V1170H758.065V1219ZM778.454 1219.7C769.564 1219.7 763.194 1212.91 763.194 1201.5C763.194 1190.09 770.054 1183.3 778.944 1183.3C783.704 1183.3 788.184 1185.75 790.074 1189.11V1170H796.024V1219H790.074V1213.89C788.184 1217.25 783.214 1219.7 778.454 1219.7ZM779.224 1214.66H779.714C785.594 1214.66 790.074 1209.62 790.074 1201.5C790.074 1193.38 785.594 1188.34 779.714 1188.34H779.224C773.204 1188.34 769.214 1193.38 769.214 1201.5C769.214 1209.62 773.204 1214.66 779.224 1214.66ZM804.27 1187.15H801.68V1183.16H804.06C806.86 1183.16 808.26 1181.76 808.26 1178.96V1177.91H804.13V1170H812.11V1179.31C812.11 1184.49 809.17 1187.15 804.27 1187.15ZM827.47 1219.7C818.3 1219.7 813.4 1214.87 813.26 1208.29H819.21C819.63 1212.7 823.06 1214.66 827.4 1214.66H828.03C832.09 1214.66 835.03 1212.7 835.03 1209.55C835.03 1207.17 833.7 1205.56 829.78 1204.79L824.67 1203.74C819.14 1202.62 814.66 1199.89 814.66 1193.94C814.66 1187.01 820.82 1183.3 827.68 1183.3C836.71 1183.3 841.19 1188.41 841.33 1194.71H835.38C834.96 1191.35 832.65 1188.34 828.03 1188.34H827.4C823.2 1188.34 820.61 1190.65 820.61 1193.31C820.61 1195.97 822.22 1197.37 826 1198.14L831.53 1199.33C836.71 1200.38 840.98 1203.04 840.98 1209.2C840.98 1215.64 835.45 1219.7 827.47 1219.7ZM877.622 1219.7C872.862 1219.7 867.892 1217.25 866.072 1213.89V1219H860.122V1170H866.072V1189.11C867.892 1185.75 872.372 1183.3 877.202 1183.3C886.022 1183.3 892.882 1190.09 892.882 1201.5C892.882 1212.91 886.512 1219.7 877.622 1219.7ZM876.362 1214.66H876.852C882.872 1214.66 886.932 1209.62 886.932 1201.5C886.932 1193.38 882.872 1188.34 876.852 1188.34H876.362C870.552 1188.34 866.072 1193.38 866.072 1201.5C866.072 1209.62 870.552 1214.66 876.362 1214.66ZM912.118 1219.7C903.438 1219.7 895.948 1213.61 895.948 1201.43C895.948 1189.25 903.788 1183.3 911.978 1183.3C920.938 1183.3 926.608 1189.74 926.608 1198.84V1202.34H901.898C902.178 1210.95 907.288 1214.66 912.048 1214.66H912.608C916.458 1214.66 919.678 1212.77 920.588 1208.78H926.538C925.208 1215.78 919.328 1219.7 912.118 1219.7ZM902.178 1197.51H920.658C920.378 1191.42 916.808 1188.34 912.258 1188.34H911.698C907.778 1188.34 903.368 1190.58 902.178 1197.51ZM943.421 1219.7C934.251 1219.7 929.351 1214.87 929.211 1208.29H935.161C935.581 1212.7 939.011 1214.66 943.351 1214.66H943.981C948.041 1214.66 950.981 1212.7 950.981 1209.55C950.981 1207.17 949.651 1205.56 945.731 1204.79L940.621 1203.74C935.091 1202.62 930.611 1199.89 930.611 1193.94C930.611 1187.01 936.771 1183.3 943.631 1183.3C952.661 1183.3 957.141 1188.41 957.281 1194.71H951.331C950.911 1191.35 948.601 1188.34 943.981 1188.34H943.351C939.151 1188.34 936.561 1190.65 936.561 1193.31C936.561 1195.97 938.171 1197.37 941.951 1198.14L947.481 1199.33C952.661 1200.38 956.931 1203.04 956.931 1209.2C956.931 1215.64 951.401 1219.7 943.421 1219.7ZM981.047 1219H972.857C968.097 1219 965.507 1216.55 965.507 1211.79V1189.11H957.667V1184H965.507V1172.66H971.457V1184H979.997V1189.11H971.457V1210.95C971.457 1213.05 972.157 1213.75 974.257 1213.75H981.047V1219ZM1023.47 1189.32L1002.82 1213.89H1024.52V1219H995.963V1213.61L1016.54 1189.11H996.313V1184H1023.47V1189.32ZM1034.97 1219H1029.02V1170H1034.97V1200.1L1051.42 1184H1059.33L1044.77 1197.93L1060.03 1219H1052.68L1040.5 1201.99L1034.97 1207.38V1219ZM1081.48 1212.91L1098.14 1170H1104.79L1085.26 1219H1077.35L1057.33 1170H1063.98L1081.48 1212.91ZM1134.43 1213.4L1149.69 1170H1160.12V1219H1153.82V1175.32L1138.49 1219H1130.3L1114.69 1175.46V1219H1108.39V1170H1118.96L1134.43 1213.4ZM1167.95 1228.24H1165.43V1224.25H1167.74C1170.54 1224.25 1171.94 1222.85 1171.94 1220.05V1219H1167.88V1211.09H1175.79V1220.4C1175.79 1225.51 1172.92 1228.24 1167.95 1228.24ZM1214.11 1219H1205.92C1201.16 1219 1198.57 1216.55 1198.57 1211.79V1189.11H1190.73V1184H1198.57V1172.66H1204.52V1184H1213.06V1189.11H1204.52V1210.95C1204.52 1213.05 1205.22 1213.75 1207.32 1213.75H1214.11V1219ZM1231.69 1219.7C1222.38 1219.7 1215.17 1212.35 1215.17 1201.5C1215.17 1190.65 1222.38 1183.3 1231.69 1183.3C1241 1183.3 1248.28 1190.65 1248.28 1201.5C1248.28 1212.35 1241 1219.7 1231.69 1219.7ZM1231.41 1214.66H1232.04C1237.92 1214.66 1242.33 1209.83 1242.33 1201.5C1242.33 1193.17 1237.92 1188.34 1232.04 1188.34H1231.41C1225.53 1188.34 1221.12 1193.17 1221.12 1201.5C1221.12 1209.83 1225.53 1214.66 1231.41 1214.66ZM1266.72 1234.4C1256.85 1234.4 1251.32 1229.92 1250.62 1223.69H1256.57C1257.34 1227.47 1261.26 1229.36 1266.37 1229.36H1267.07C1273.02 1229.36 1277.64 1226.14 1277.64 1218.3V1213.19C1275.75 1216.34 1272.11 1219 1266.72 1219C1258.46 1219 1251.32 1213.19 1251.32 1201.29C1251.32 1189.39 1258.32 1183.3 1266.72 1183.3C1272.11 1183.3 1275.96 1185.96 1277.64 1189.11V1184H1283.59V1218.93C1283.59 1227.75 1277.36 1234.4 1266.72 1234.4ZM1267 1213.96H1267.56C1272.88 1213.96 1277.64 1209.34 1277.64 1201.29C1277.64 1193.24 1273.16 1188.34 1267.84 1188.34H1267.21C1261.82 1188.34 1257.27 1192.54 1257.27 1201.29C1257.27 1210.04 1261.54 1213.96 1267 1213.96ZM1304.87 1219.7C1296.19 1219.7 1288.7 1213.61 1288.7 1201.43C1288.7 1189.25 1296.54 1183.3 1304.73 1183.3C1313.69 1183.3 1319.36 1189.74 1319.36 1198.84V1202.34H1294.65C1294.93 1210.95 1300.04 1214.66 1304.8 1214.66H1305.36C1309.21 1214.66 1312.43 1212.77 1313.34 1208.78H1319.29C1317.96 1215.78 1312.08 1219.7 1304.87 1219.7ZM1294.93 1197.51H1313.41C1313.13 1191.42 1309.56 1188.34 1305.01 1188.34H1304.45C1300.53 1188.34 1296.12 1190.58 1294.93 1197.51ZM1343.26 1219H1335.07C1330.31 1219 1327.72 1216.55 1327.72 1211.79V1189.11H1319.88V1184H1327.72V1172.66H1333.67V1184H1342.21V1189.11H1333.67V1210.95C1333.67 1213.05 1334.37 1213.75 1336.47 1213.75H1343.26V1219ZM1352.85 1219H1346.9V1170H1352.85V1189.25C1355.02 1185.75 1358.8 1183.3 1364.47 1183.3C1372.45 1183.3 1376.86 1188.34 1376.86 1195.69V1219H1370.91V1197.09C1370.91 1191.56 1368.6 1188.34 1363.42 1188.34H1362.79C1357.68 1188.34 1352.85 1192.47 1352.85 1199.61V1219ZM1397.87 1219.7C1389.19 1219.7 1381.7 1213.61 1381.7 1201.43C1381.7 1189.25 1389.54 1183.3 1397.73 1183.3C1406.69 1183.3 1412.36 1189.74 1412.36 1198.84V1202.34H1387.65C1387.93 1210.95 1393.04 1214.66 1397.8 1214.66H1398.36C1402.21 1214.66 1405.43 1212.77 1406.34 1208.78H1412.29C1410.96 1215.78 1405.08 1219.7 1397.87 1219.7ZM1387.93 1197.51H1406.41C1406.13 1191.42 1402.56 1188.34 1398.01 1188.34H1397.45C1393.53 1188.34 1389.12 1190.58 1387.93 1197.51ZM1423.64 1219H1417.69V1184H1423.29V1191.77C1424.76 1186.45 1429.03 1183.65 1433.65 1183.65H1436.8V1189.32H1434C1427.56 1189.32 1423.64 1193.94 1423.64 1201.5V1219ZM1443.55 1219H1435.57V1211.09H1443.55V1219Z" fill="#3F5762"/>
<circle cx="559.161" cy="559.161" r="559.161" transform="matrix(0.866025 0.5 -0.866025 0.5 2449.5 1161)" fill="url(#paint0_linear_2086_2595)"/>
<path d="M1764.66 1720.16C1764.66 1829.34 1841.31 1928.19 1965.24 1999.74V2069.64C1841.31 1998.09 1764.66 1899.24 1764.66 1790.06V1720.16Z" fill="url(#paint1_linear_2086_2595)"/>
<path d="M1965.24 1999.74C2232.69 2154.15 2666.3 2154.15 2933.74 1999.74V2069.64C2666.3 2224.05 2232.69 2224.05 1965.24 2069.64V1999.74Z" fill="url(#paint2_linear_2086_2595)"/>
<path d="M3134.33 1720.16C3134.33 1829.34 3057.68 1928.19 2933.75 1999.74V2069.64C3057.68 1998.09 3134.33 1899.24 3134.33 1790.06V1720.16Z" fill="url(#paint3_linear_2086_2595)"/>
<circle cx="484.686" cy="484.686" r="484.686" transform="matrix(0.866025 0.5 -0.866025 0.5 2448.5 1161)" fill="url(#paint4_linear_2086_2595)"/>
<path d="M1854.88 1645.69C1854.88 1740.33 1921.32 1826.01 2028.74 1888.03V1948.61C1921.32 1886.59 1854.88 1800.91 1854.88 1706.27V1645.69Z" fill="url(#paint5_linear_2086_2595)"/>
<path d="M3042.12 1645.69C3042.12 1740.33 2975.67 1826.01 2868.25 1888.03V1948.61C2975.67 1886.59 3042.12 1800.91 3042.12 1706.27V1645.69Z" fill="url(#paint6_linear_2086_2595)"/>
<circle cx="444" cy="444" r="444" transform="matrix(0.866025 0.5 -0.866025 0.5 2449.03 266)" fill="url(#paint7_linear_2086_2595)"/>
<path d="M1905.24 710C1905.24 796.696 1966.11 875.185 2064.52 932V1832C1966.11 1775.19 1905.24 1696.7 1905.24 1610V710Z" fill="url(#paint8_linear_2086_2595)"/>
<path d="M2028.75 1888.03C2260.57 2021.87 2636.43 2021.87 2868.25 1888.03V1948.61C2636.43 2082.46 2260.57 2082.46 2028.75 1948.61V1888.03Z" fill="url(#paint9_linear_2086_2595)"/>
<path d="M2064.52 932C2276.88 1054.61 2621.18 1054.61 2833.55 932V1832C2621.18 1954.61 2276.88 1954.61 2064.52 1832V932Z" fill="url(#paint10_linear_2086_2595)"/>
<path d="M2992.82 710C2992.82 796.696 2931.95 875.185 2833.55 932V1832C2931.95 1775.19 2992.82 1696.7 2992.82 1610V710Z" fill="url(#paint11_linear_2086_2595)"/>
<circle cx="500" cy="500" r="500" transform="matrix(0.866025 0.5 -0.866025 0.5 2462.03 0)" fill="url(#paint12_linear_2086_2595)"/>
<path d="M1849.65 500C1849.65 597.631 1918.19 686.019 2029.01 750V950C1918.19 886.019 1849.65 797.631 1849.65 700V500Z" fill="url(#paint13_linear_2086_2595)"/>
<path d="M2029.01 750C2268.16 888.071 2655.89 888.071 2895.04 750V950C2655.89 1088.07 2268.16 1088.07 2029.01 950V750Z" fill="url(#paint14_linear_2086_2595)"/>
<path d="M3074.4 500C3074.4 597.631 3005.86 686.019 2895.04 750V950C3005.86 886.019 3074.4 797.631 3074.4 700V500Z" fill="url(#paint15_linear_2086_2595)"/>
<circle cx="400" cy="400" r="400" transform="matrix(0.866025 0.5 -0.866025 0.5 2461.82 26)" fill="url(#paint16_linear_2086_2595)"/>
<path d="M1971.92 426C1971.92 504.105 2026.76 574.816 2115.41 626V676C2026.76 624.816 1971.92 554.105 1971.92 476V426Z" fill="url(#paint17_linear_2086_2595)"/>
<path d="M2115.41 626C2306.73 736.457 2616.91 736.457 2808.23 626V676C2616.91 786.457 2306.73 786.457 2115.41 676V626Z" fill="url(#paint18_linear_2086_2595)"/>
<path d="M2951.72 426C2951.72 504.105 2896.88 574.816 2808.23 626V676C2896.88 624.816 2951.72 554.105 2951.72 476V426Z" fill="url(#paint19_linear_2086_2595)"/>
<rect width="30.0222" height="638.476" transform="matrix(0.866025 0.5 0 1 2052 1067)" fill="#C8D663"/>
<rect width="30.0222" height="638.476" transform="matrix(0.866025 -0.5 0 1 2821 1082.01)" fill="#C8D663"/>
<rect x="2449" y="1131" width="30.0222" height="638.476" fill="#C8D663"/>
<rect x="2435" y="1389" width="57" height="121" fill="#939E46"/>
<rect width="57" height="121" transform="matrix(0.866025 0.5 0 1 2040 1510)" fill="#939E46"/>
<rect width="57" height="121" transform="matrix(0.866025 -0.5 0 1 2809 1189.5)" fill="#939E46"/>
<path d="M2076.29 1014.78C2080.12 1017 2083.39 1020.51 2086.1 1025.33C2088.81 1030.15 2090.16 1034.83 2090.16 1039.39C2090.16 1042.13 2090.16 1044.86 2090.16 1047.59C2090.16 1050.33 2090.16 1053.06 2090.16 1055.8C2090.16 1056.45 2089.96 1056.89 2089.57 1057.12C2089.12 1057.38 2088.61 1057.34 2088.05 1057.02C2087.48 1056.69 2087 1056.16 2086.61 1055.41C2086.16 1054.69 2085.93 1054.01 2085.93 1053.36C2085.93 1051.73 2085.93 1049.29 2085.93 1046.03C2077.08 1040.92 2063.77 1033.24 2046.01 1022.99C2046.01 1024.22 2046.01 1025.46 2046.01 1026.7C2046.01 1027.87 2046.01 1029.07 2046.01 1030.31C2046.01 1030.96 2045.79 1031.38 2045.34 1031.58C2044.94 1031.87 2044.46 1031.86 2043.9 1031.53C2043.34 1031.2 2042.86 1030.67 2042.46 1029.92C2042.01 1029.2 2041.78 1028.52 2041.78 1027.87C2041.78 1024.22 2041.78 1018.75 2041.78 1011.46C2041.78 1006.9 2043.14 1003.78 2045.84 1002.09C2048.55 1000.39 2051.82 1000.65 2055.65 1002.87C2059.09 1004.85 2062.53 1006.84 2065.97 1008.83C2069.41 1010.81 2072.85 1012.8 2076.29 1014.78ZM2046.1 1018.25C2055.01 1023.39 2068.34 1031.09 2086.1 1041.34C2086.1 1040.37 2086.1 1038.94 2086.1 1037.05C2086.1 1033.79 2085.17 1030.49 2083.31 1027.14C2081.39 1023.69 2079.11 1021.19 2076.46 1019.67C2071.84 1017 2064.96 1013.02 2055.82 1007.75C2053.12 1006.19 2050.83 1006.04 2048.97 1007.31C2047.06 1008.48 2046.1 1010.7 2046.1 1013.95C2046.1 1014.67 2046.1 1015.38 2046.1 1016.1C2046.1 1016.82 2046.1 1017.53 2046.1 1018.25Z" fill="black"/>
<path d="M2495.48 1083.17C2495.48 1083.89 2495.41 1084.57 2495.28 1085.22C2495.15 1085.81 2494.96 1086.43 2494.7 1087.08C2494.37 1087.73 2494.05 1088.32 2493.72 1088.84C2493.33 1089.42 2492.91 1089.94 2492.45 1090.4C2492.91 1090.79 2493.33 1091.24 2493.72 1091.77C2494.05 1092.22 2494.34 1092.74 2494.6 1093.33C2494.93 1093.91 2495.12 1094.47 2495.19 1094.99C2495.32 1095.57 2495.38 1096.19 2495.38 1096.84C2495.38 1097.1 2495.38 1097.4 2495.38 1097.72C2495.38 1097.98 2495.38 1098.24 2495.38 1098.5C2495.38 1099.68 2495.19 1100.75 2494.79 1101.73C2494.4 1102.7 2493.79 1103.61 2492.94 1104.46C2492.16 1105.24 2491.28 1105.86 2490.3 1106.32C2489.26 1106.71 2488.19 1106.9 2487.08 1106.9C2479.59 1106.9 2472.07 1106.9 2464.52 1106.9C2457.03 1106.9 2449.55 1106.9 2442.06 1106.9C2441.74 1106.9 2441.41 1106.84 2441.08 1106.71C2440.82 1106.58 2440.56 1106.41 2440.3 1106.22C2440.11 1105.96 2439.94 1105.7 2439.81 1105.44C2439.68 1105.11 2439.62 1104.79 2439.62 1104.46C2439.62 1102.25 2439.62 1100 2439.62 1097.72C2439.62 1095.44 2439.62 1093.17 2439.62 1090.89C2439.62 1090.82 2439.62 1090.79 2439.62 1090.79C2439.62 1090.72 2439.62 1090.69 2439.62 1090.69C2439.62 1087.89 2439.62 1085.09 2439.62 1082.29C2439.62 1079.49 2439.62 1076.69 2439.62 1073.89C2439.62 1073.57 2439.68 1073.24 2439.81 1072.92C2439.94 1072.66 2440.11 1072.4 2440.3 1072.14C2440.56 1071.94 2440.82 1071.78 2441.08 1071.65C2441.41 1071.52 2441.74 1071.45 2442.06 1071.45C2449.29 1071.45 2456.51 1071.45 2463.74 1071.45C2466.15 1071.45 2468.56 1071.45 2470.97 1071.45C2475.78 1071.45 2480.6 1071.45 2485.42 1071.45C2486.79 1071.45 2488.06 1071.71 2489.23 1072.23C2490.47 1072.69 2491.57 1073.41 2492.55 1074.38C2493.53 1075.36 2494.24 1076.43 2494.7 1077.61C2495.22 1078.84 2495.48 1080.14 2495.48 1081.51C2495.48 1081.77 2495.48 1082.07 2495.48 1082.39C2495.48 1082.65 2495.48 1082.91 2495.48 1083.17ZM2444.5 1076.24C2444.5 1078.97 2444.5 1083.04 2444.5 1088.45C2451.27 1088.45 2458.08 1088.45 2464.91 1088.45C2471.75 1088.45 2478.58 1088.45 2485.42 1088.45C2486.14 1088.45 2486.79 1088.32 2487.37 1088.05C2488.02 1087.79 2488.61 1087.4 2489.13 1086.88C2489.65 1086.36 2490.04 1085.81 2490.3 1085.22C2490.5 1084.64 2490.6 1083.95 2490.6 1083.17C2490.6 1082.91 2490.6 1082.65 2490.6 1082.39C2490.6 1082.07 2490.6 1081.77 2490.6 1081.51C2490.6 1080.8 2490.5 1080.11 2490.3 1079.46C2490.04 1078.88 2489.65 1078.32 2489.13 1077.8C2488.61 1077.28 2488.02 1076.89 2487.37 1076.63C2486.79 1076.37 2486.14 1076.24 2485.42 1076.24C2478.58 1076.24 2471.75 1076.24 2464.91 1076.24C2458.08 1076.24 2451.27 1076.24 2444.5 1076.24ZM2490.6 1098.5C2490.6 1098.24 2490.6 1097.98 2490.6 1097.72C2490.6 1097.4 2490.6 1097.1 2490.6 1096.84C2490.6 1096.32 2490.53 1095.87 2490.4 1095.48C2490.21 1095.09 2489.94 1094.7 2489.62 1094.3C2489.23 1093.98 2488.84 1093.72 2488.45 1093.52C2488.06 1093.39 2487.6 1093.33 2487.08 1093.33C2477.64 1093.33 2463.45 1093.33 2444.5 1093.33C2444.5 1095.28 2444.5 1098.21 2444.5 1102.12C2451.6 1102.12 2458.69 1102.12 2465.79 1102.12C2472.89 1102.12 2479.98 1102.12 2487.08 1102.12C2487.6 1102.12 2488.06 1102.02 2488.45 1101.82C2488.84 1101.63 2489.23 1101.37 2489.62 1101.04C2489.94 1100.72 2490.21 1100.33 2490.4 1099.87C2490.53 1099.48 2490.6 1099.02 2490.6 1098.5Z" fill="black"/>
<path d="M2825.42 1056.64C2823.44 1057.78 2821.61 1058.45 2819.92 1058.65C2818.23 1058.78 2816.68 1058.43 2815.27 1057.62C2813.86 1056.81 2812.79 1055.64 2812.06 1054.11C2811.38 1052.54 2811.04 1050.62 2811.04 1048.34C2811.04 1047.95 2811.04 1047.6 2811.04 1047.27C2811.04 1046.94 2811.04 1046.62 2811.04 1046.29C2811.04 1044.01 2811.38 1041.67 2812.06 1039.26C2812.79 1036.89 2813.86 1034.48 2815.27 1032.04C2816.68 1029.59 2818.23 1027.49 2819.92 1025.74C2821.61 1023.91 2823.44 1022.43 2825.42 1021.29C2829.2 1019.11 2832.97 1016.93 2836.75 1014.75C2840.47 1012.6 2844.22 1010.44 2848 1008.26C2849.3 1007.51 2850.54 1006.99 2851.72 1006.69C2852.85 1006.37 2853.98 1006.27 2855.1 1006.4C2856.29 1006.43 2857.3 1006.69 2858.15 1007.18C2858.99 1007.67 2859.75 1008.37 2860.43 1009.28C2860.66 1009.54 2860.8 1009.88 2860.85 1010.31C2860.85 1010.5 2860.83 1010.71 2860.77 1010.94C2860.66 1011.72 2860.35 1012.42 2859.84 1013.04C2859.27 1013.69 2858.71 1014.08 2858.15 1014.21C2857.58 1014.41 2857.16 1014.26 2856.88 1013.77C2856.37 1013.15 2855.84 1012.65 2855.27 1012.26C2854.65 1011.97 2853.92 1011.77 2853.07 1011.67C2852.28 1011.61 2851.47 1011.69 2850.62 1011.92C2849.77 1012.15 2848.9 1012.55 2848 1013.14C2844.22 1015.32 2840.47 1017.45 2836.75 1019.54C2832.97 1021.72 2829.2 1023.93 2825.42 1026.18C2824.01 1026.99 2822.71 1028 2821.53 1029.2C2820.29 1030.51 2819.19 1032.02 2818.23 1033.74C2817.21 1035.5 2816.45 1037.21 2815.95 1038.87C2815.44 1040.6 2815.18 1042.27 2815.18 1043.9C2815.18 1044.23 2815.18 1044.55 2815.18 1044.88C2815.18 1045.2 2815.18 1045.56 2815.18 1045.95C2815.18 1047.58 2815.44 1048.93 2815.95 1050C2816.45 1051.14 2817.21 1051.97 2818.23 1052.49C2819.19 1053.11 2820.29 1053.36 2821.53 1053.23C2822.71 1053.13 2824.01 1052.67 2825.42 1051.86C2829.2 1049.68 2832.97 1047.5 2836.75 1045.32C2840.47 1043.17 2844.22 1041 2848 1038.82C2848.9 1038.3 2849.75 1037.72 2850.54 1037.06C2851.33 1036.35 2852.11 1035.5 2852.9 1034.53C2853.69 1033.61 2854.4 1032.65 2855.02 1031.64C2855.58 1030.67 2856.12 1029.61 2856.63 1028.47C2856.96 1027.82 2857.41 1027.27 2857.98 1026.81C2858.49 1026.45 2858.96 1026.31 2859.42 1026.37C2859.87 1026.44 2860.15 1026.76 2860.26 1027.35C2860.43 1027.84 2860.37 1028.42 2860.09 1029.11C2859.42 1030.73 2858.65 1032.25 2857.81 1033.65C2856.96 1034.98 2855.98 1036.33 2854.85 1037.7C2853.72 1039.07 2852.62 1040.19 2851.55 1041.07C2850.42 1042.04 2849.24 1042.89 2848 1043.61C2844.22 1045.79 2840.47 1047.95 2836.75 1050.1C2832.97 1052.28 2829.2 1054.46 2825.42 1056.64Z" fill="black"/>
<circle cx="2060.5" cy="818.5" r="7.5" fill="#D9D9D9"/>
<circle cx="2060.5" cy="852.5" r="7.5" fill="#D9D9D9"/>
<circle cx="2060.5" cy="886.5" r="7.5" fill="#D9D9D9"/>
<circle cx="2060.5" cy="920.5" r="7.5" fill="#D9D9D9"/>
<circle cx="2096.5" cy="833.5" r="7.5" fill="#D9D9D9"/>
<circle cx="2096.5" cy="867.5" r="7.5" fill="#D9D9D9"/>
<circle cx="2096.5" cy="901.5" r="7.5" fill="#D9D9D9"/>
<circle cx="2096.5" cy="935.5" r="7.5" fill="#D9D9D9"/>
<circle cx="2096.5" cy="833.5" r="7.5" fill="#849DA6" fill-opacity="0.55"/>
<circle cx="2096.5" cy="867.5" r="7.5" fill="#849DA6" fill-opacity="0.55"/>
<circle cx="2096.5" cy="901.5" r="7.5" fill="#849DA6" fill-opacity="0.55"/>
<circle cx="2096.5" cy="935.5" r="7.5" fill="#849DA6" fill-opacity="0.55"/>
<circle cx="2132.5" cy="852.5" r="7.5" fill="#D9D9D9"/>
<circle cx="2132.5" cy="886.5" r="7.5" fill="#D9D9D9"/>
<circle cx="2132.5" cy="920.5" r="7.5" fill="#D9D9D9"/>
<circle cx="2132.5" cy="954.5" r="7.5" fill="#D9D9D9"/>
<circle cx="2132.5" cy="852.5" r="7.5" fill="#9DB7C1"/>
<circle cx="2132.5" cy="852.5" r="7.5" fill="#9DB7C1"/>
<circle cx="2132.5" cy="886.5" r="7.5" fill="#9DB7C1"/>
<circle cx="2132.5" cy="886.5" r="7.5" fill="#9DB7C1"/>
<circle cx="2132.5" cy="920.5" r="7.5" fill="#9DB7C1"/>
<circle cx="2132.5" cy="920.5" r="7.5" fill="#9DB7C1"/>
<circle cx="2132.5" cy="954.5" r="7.5" fill="#9DB7C1"/>
<circle cx="2132.5" cy="954.5" r="7.5" fill="#9DB7C1"/>
<circle cx="2163.5" cy="871.5" r="7.5" fill="#9DB7C1"/>
<circle cx="2163.5" cy="871.5" r="7.5" fill="#94AAB3"/>
<circle cx="2163.5" cy="905.5" r="7.5" fill="#9DB7C1"/>
<circle cx="2163.5" cy="905.5" r="7.5" fill="#94AAB3"/>
<circle cx="2163.5" cy="939.5" r="7.5" fill="#9DB7C1"/>
<circle cx="2163.5" cy="939.5" r="7.5" fill="#94AAB3"/>
<circle cx="2163.5" cy="973.5" r="7.5" fill="#9DB7C1"/>
<circle cx="2163.5" cy="973.5" r="7.5" fill="#94AAB3"/>
<line x1="419.451" y1="94.4426" x2="433.748" y2="81.5469" stroke="#072A39" stroke-width="2.54018"/>
<line x1="392.673" y1="62.6987" x2="407.753" y2="50.7262" stroke="#072A39" stroke-width="2.54018"/>
<line x1="367.965" y1="29.321" x2="383.766" y2="18.3189" stroke="#072A39" stroke-width="2.54018"/>
<line x1="1461.5" y1="19.963" x2="1445.45" y2="9.32592" stroke="#072A39" stroke-width="2.54018"/>
<line x1="1437.42" y1="53.7908" x2="1422.07" y2="42.1671" stroke="#072A39" stroke-width="2.54018"/>
<line x1="1411.27" y1="86.0522" x2="1396.68" y2="73.4876" stroke="#072A39" stroke-width="2.54018"/>
<line x1="1383.14" y1="116.602" x2="1369.37" y2="103.146" stroke="#072A39" stroke-width="2.54018"/>
<line x1="1353.15" y1="145.331" x2="1340.25" y2="131.037" stroke="#072A39" stroke-width="2.54018"/>
<line x1="1321.4" y1="172.103" x2="1309.42" y2="157.027" stroke="#072A39" stroke-width="2.54018"/>
<line x1="1288.04" y1="196.835" x2="1277.04" y2="181.037" stroke="#072A39" stroke-width="2.54018"/>
<line x1="1253.2" y1="219.422" x2="1243.2" y2="202.964" stroke="#072A39" stroke-width="2.54018"/>
<line x1="1216.98" y1="239.773" x2="1208.04" y2="222.72" stroke="#072A39" stroke-width="2.54018"/>
<line x1="1179.58" y1="257.817" x2="1171.73" y2="240.236" stroke="#072A39" stroke-width="2.54018"/>
<line x1="1141.13" y1="273.482" x2="1134.39" y2="255.443" stroke="#072A39" stroke-width="2.54018"/>
<line x1="1101.77" y1="286.705" x2="1096.19" y2="268.279" stroke="#072A39" stroke-width="2.54018"/>
<line x1="1061.65" y1="297.423" x2="1057.23" y2="278.683" stroke="#072A39" stroke-width="2.54018"/>
<line x1="1020.92" y1="305.593" x2="1017.69" y2="286.612" stroke="#072A39" stroke-width="2.54018"/>
<line x1="979.761" y1="311.192" x2="977.727" y2="292.045" stroke="#072A39" stroke-width="2.54018"/>
<line x1="938.338" y1="314.193" x2="937.51" y2="294.957" stroke="#072A39" stroke-width="2.54018"/>
<line x1="896.833" y1="314.613" x2="897.214" y2="295.362" stroke="#072A39" stroke-width="2.54018"/>
<line x1="855.343" y1="312.391" x2="856.932" y2="293.203" stroke="#072A39" stroke-width="2.54018"/>
<line x1="814.119" y1="307.598" x2="816.91" y2="288.547" stroke="#072A39" stroke-width="2.54018"/>
<line x1="773.238" y1="300.2" x2="777.22" y2="281.362" stroke="#072A39" stroke-width="2.54018"/>
<line x1="732.937" y1="290.273" x2="738.094" y2="271.722" stroke="#072A39" stroke-width="2.54018"/>
<line x1="693.31" y1="277.828" x2="699.622" y2="259.638" stroke="#072A39" stroke-width="2.54018"/>
<line x1="654.534" y1="262.902" x2="661.975" y2="245.144" stroke="#072A39" stroke-width="2.54018"/>
<line x1="616.799" y1="245.588" x2="625.34" y2="228.332" stroke="#072A39" stroke-width="2.54018"/>
<line x1="580.211" y1="225.936" x2="589.819" y2="209.25" stroke="#072A39" stroke-width="2.54018"/>
<line x1="544.924" y1="204.017" x2="555.561" y2="187.968" stroke="#072A39" stroke-width="2.54018"/>
<line x1="511.11" y1="179.946" x2="522.734" y2="164.597" stroke="#072A39" stroke-width="2.54018"/>
<line x1="478.839" y1="153.774" x2="491.404" y2="139.184" stroke="#072A39" stroke-width="2.54018"/>
<line x1="448.301" y1="125.647" x2="461.757" y2="111.875" stroke="#072A39" stroke-width="2.54018"/>
<line x1="419.586" y1="95.646" x2="433.88" y2="82.7464" stroke="#072A39" stroke-width="2.54018"/>
<line x1="392.816" y1="63.9128" x2="407.892" y2="51.9362" stroke="#072A39" stroke-width="2.54018"/>
<line x1="368.078" y1="30.5555" x2="383.876" y2="19.5492" stroke="#072A39" stroke-width="2.54018"/>
<line x1="1184.05" y1="2018.41" x2="1199.4" y2="2030.04" stroke="#072A39" stroke-width="2.54018"/>
<line x1="1210.22" y1="1986.16" x2="1224.81" y2="1998.73" stroke="#072A39" stroke-width="2.54018"/>
<line x1="1238.38" y1="1955.6" x2="1252.15" y2="1969.06" stroke="#072A39" stroke-width="2.54018"/>
<line x1="1268.37" y1="1926.9" x2="1281.27" y2="1941.2" stroke="#072A39" stroke-width="2.54018"/>
<line x1="1300.12" y1="1900.13" x2="1312.1" y2="1915.21" stroke="#072A39" stroke-width="2.54018"/>
<line x1="1333.5" y1="1875.4" x2="1344.5" y2="1891.2" stroke="#072A39" stroke-width="2.54018"/>
<line x1="1368.34" y1="1852.82" x2="1378.32" y2="1869.28" stroke="#072A39" stroke-width="2.54018"/>
<line x1="1404.55" y1="1832.47" x2="1413.49" y2="1849.52" stroke="#072A39" stroke-width="2.54018"/>
<line x1="1441.95" y1="1814.44" x2="1449.8" y2="1832.03" stroke="#072A39" stroke-width="2.54018"/>
<line x1="1480.42" y1="1798.78" x2="1487.15" y2="1816.83" stroke="#072A39" stroke-width="2.54018"/>
<line x1="1519.78" y1="1785.6" x2="1525.36" y2="1804.02" stroke="#072A39" stroke-width="2.54018"/>
<line x1="1559.91" y1="1774.88" x2="1564.33" y2="1793.62" stroke="#072A39" stroke-width="2.54018"/>
<line x1="1600.64" y1="1766.71" x2="1603.86" y2="1785.69" stroke="#072A39" stroke-width="2.54018"/>
<line x1="1641.79" y1="1761.12" x2="1643.82" y2="1780.27" stroke="#072A39" stroke-width="2.54018"/>
<line x1="1683.21" y1="1758.12" x2="1684.03" y2="1777.36" stroke="#072A39" stroke-width="2.54018"/>
<line x1="1724.75" y1="1757.72" x2="1724.36" y2="1776.97" stroke="#072A39" stroke-width="2.54018"/>
<line x1="1766.22" y1="1759.95" x2="1764.62" y2="1779.13" stroke="#072A39" stroke-width="2.54018"/>
<line x1="1807.46" y1="1764.75" x2="1804.67" y2="1783.8" stroke="#072A39" stroke-width="2.54017"/>
<line x1="1848.33" y1="1772.16" x2="1844.34" y2="1791" stroke="#072A39" stroke-width="2.54018"/>
<line x1="1888.63" y1="1782.12" x2="1883.47" y2="1800.67" stroke="#072A39" stroke-width="2.54018"/>
<line x1="1928.26" y1="1794.56" x2="1921.95" y2="1812.75" stroke="#072A39" stroke-width="2.54018"/>
<line x1="1967.01" y1="1809.49" x2="1959.57" y2="1827.25" stroke="#072A39" stroke-width="2.54018"/>
<line x1="2004.75" y1="1826.83" x2="1996.21" y2="1844.08" stroke="#072A39" stroke-width="2.54018"/>
<line x1="2041.33" y1="1846.49" x2="2031.72" y2="1863.17" stroke="#072A39" stroke-width="2.54018"/>
<line x1="2076.61" y1="1868.4" x2="2065.97" y2="1884.45" stroke="#072A39" stroke-width="2.54018"/>
<line x1="2110.43" y1="1892.51" x2="2098.8" y2="1907.85" stroke="#072A39" stroke-width="2.54018"/>
<line x1="2142.67" y1="1918.68" x2="2130.11" y2="1933.26" stroke="#072A39" stroke-width="2.54018"/>
<line x1="2173.22" y1="1946.81" x2="2159.76" y2="1960.58" stroke="#072A39" stroke-width="2.54018"/>
<line x1="2201.92" y1="1976.82" x2="2187.62" y2="1989.72" stroke="#072A39" stroke-width="2.54018"/>
<line x1="3119.45" y1="543.443" x2="3133.75" y2="530.547" stroke="#072A39" stroke-width="2.54018"/>
<line x1="3092.67" y1="511.699" x2="3107.75" y2="499.726" stroke="#072A39" stroke-width="2.54018"/>
<line x1="3067.97" y1="478.321" x2="3083.77" y2="467.319" stroke="#072A39" stroke-width="2.54018"/>
<line x1="3045.39" y1="443.461" x2="3061.85" y2="433.473" stroke="#072A39" stroke-width="2.54018"/>
<line x1="3025.03" y1="407.271" x2="3042.08" y2="398.337" stroke="#072A39" stroke-width="2.54018"/>
<line x1="3006.99" y1="369.862" x2="3024.57" y2="362.015" stroke="#072A39" stroke-width="2.54018"/>
<line x1="2991.33" y1="331.402" x2="3009.37" y2="324.675" stroke="#072A39" stroke-width="2.54018"/>
<line x1="2978.14" y1="292.02" x2="2996.56" y2="286.439" stroke="#072A39" stroke-width="2.54018"/>
<line x1="2967.43" y1="251.902" x2="2986.17" y2="247.49" stroke="#072A39" stroke-width="2.54018"/>
<line x1="2959.27" y1="211.18" x2="2978.25" y2="207.953" stroke="#072A39" stroke-width="2.54018"/>
<line x1="2953.69" y1="170.019" x2="2972.84" y2="167.99" stroke="#072A39" stroke-width="2.54018"/>
<line x1="2950.69" y1="128.594" x2="2969.93" y2="127.772" stroke="#072A39" stroke-width="2.54018"/>
<line x1="2950.29" y1="87.0778" x2="2969.54" y2="87.4647" stroke="#072A39" stroke-width="2.54018"/>
<line x1="2952.5" y1="45.6181" x2="2971.69" y2="47.2129" stroke="#072A39" stroke-width="2.54018"/>
<line x1="2957.32" y1="4.37619" x2="2976.37" y2="7.17266" stroke="#072A39" stroke-width="2.54017"/>
<line x1="3316.8" y1="694.588" x2="3325.34" y2="677.332" stroke="#072A39" stroke-width="2.54018"/>
<line x1="3280.21" y1="674.937" x2="3289.82" y2="658.251" stroke="#072A39" stroke-width="2.54018"/>
<line x1="3244.92" y1="653.018" x2="3255.56" y2="636.969" stroke="#072A39" stroke-width="2.54018"/>
<line x1="3211.11" y1="628.946" x2="3222.73" y2="613.597" stroke="#072A39" stroke-width="2.54018"/>
<line x1="3178.84" y1="602.775" x2="3191.4" y2="588.185" stroke="#072A39" stroke-width="2.54018"/>
<line x1="3148.3" y1="574.648" x2="3161.76" y2="560.876" stroke="#072A39" stroke-width="2.54018"/>
<line x1="3119.59" y1="544.646" x2="3133.88" y2="531.746" stroke="#072A39" stroke-width="2.54018"/>
<line x1="3092.82" y1="512.913" x2="3107.89" y2="500.936" stroke="#072A39" stroke-width="2.54018"/>
<line x1="3068.08" y1="479.556" x2="3083.88" y2="468.549" stroke="#072A39" stroke-width="2.54018"/>
<line x1="3045.48" y1="444.705" x2="3061.94" y2="434.713" stroke="#072A39" stroke-width="2.54018"/>
<line x1="3025.12" y1="408.501" x2="3042.18" y2="399.562" stroke="#072A39" stroke-width="2.54018"/>
<line x1="3007.08" y1="371.1" x2="3024.66" y2="363.249" stroke="#072A39" stroke-width="2.54018"/>
<line x1="2991.4" y1="332.626" x2="3009.44" y2="325.895" stroke="#072A39" stroke-width="2.54018"/>
<line x1="2978.19" y1="293.264" x2="2996.61" y2="287.678" stroke="#072A39" stroke-width="2.54018"/>
<line x1="2967.47" y1="253.147" x2="2986.21" y2="248.729" stroke="#072A39" stroke-width="2.54018"/>
<line x1="2959.3" y1="212.426" x2="2978.28" y2="209.193" stroke="#072A39" stroke-width="2.54018"/>
<line x1="2953.71" y1="171.285" x2="2972.86" y2="169.251" stroke="#072A39" stroke-width="2.54018"/>
<line x1="2950.68" y1="129.854" x2="2969.92" y2="129.026" stroke="#072A39" stroke-width="2.54018"/>
<line x1="2950.29" y1="88.3307" x2="2969.54" y2="88.7123" stroke="#072A39" stroke-width="2.54018"/>
<line x1="2952.5" y1="46.8622" x2="2971.69" y2="48.4518" stroke="#072A39" stroke-width="2.54018"/>
<line x1="2957.31" y1="5.61247" x2="2976.36" y2="8.40378" stroke="#072A39" stroke-width="2.54018"/>
<circle cx="193" cy="193" r="193" transform="matrix(0.866025 0.5 -0.866025 0.5 2456.29 128)" fill="url(#paint20_linear_2086_2595)"/>
<path d="M2219.91 321C2219.91 358.686 2246.37 392.803 2289.14 417.5V527.5C2246.37 502.803 2219.91 468.686 2219.91 431V321Z" fill="url(#paint21_linear_2086_2595)"/>
<path d="M2289.14 417.5C2381.45 470.795 2531.12 470.795 2623.43 417.5V527.5C2531.12 580.795 2381.45 580.795 2289.14 527.5V417.5Z" fill="url(#paint22_linear_2086_2595)"/>
<path d="M2692.66 321C2692.66 358.686 2666.2 392.803 2623.43 417.5V527.5C2666.2 502.803 2692.66 468.686 2692.66 431V321Z" fill="url(#paint23_linear_2086_2595)"/>
<rect width="340" height="80" transform="matrix(0.866025 0.5 -0.866025 0.5 2467.28 254)" fill="#E0ECED"/>
<rect width="340" height="40" transform="matrix(0.866025 0.5 0 1 2398 294)" fill="#92B0BB"/>
<rect width="80" height="40" transform="matrix(0.866025 -0.5 0 1 2692.45 464)" fill="#7994A0"/>
</g>
<defs>
<linearGradient id="paint0_linear_2086_2595" x1="1117.89" y1="1118.6" x2="-58.696" y2="65.0075" gradientUnits="userSpaceOnUse">
<stop stop-color="#F0F5F6"/>
<stop offset="1" stop-color="#F6FAFA"/>
</linearGradient>
<linearGradient id="paint1_linear_2086_2595" x1="1764.66" y1="1720.16" x2="1995.96" y2="1741.84" gradientUnits="userSpaceOnUse">
<stop stop-color="#79939E"/>
<stop offset="1" stop-color="#E7F0F1"/>
</linearGradient>
<linearGradient id="paint2_linear_2086_2595" x1="1965.24" y1="1999.57" x2="2537.99" y2="1607.7" gradientUnits="userSpaceOnUse">
<stop stop-color="#79939E"/>
<stop offset="1" stop-color="#E7F0F1"/>
</linearGradient>
<linearGradient id="paint3_linear_2086_2595" x1="2933.75" y1="1719.84" x2="3106.91" y2="1706.8" gradientUnits="userSpaceOnUse">
<stop stop-color="#76919C"/>
<stop offset="1" stop-color="#E7F0F1"/>
</linearGradient>
<linearGradient id="paint4_linear_2086_2595" x1="968.994" y1="969.611" x2="-50.8782" y2="56.349" gradientUnits="userSpaceOnUse">
<stop stop-color="#DBE9EA"/>
<stop offset="1" stop-color="#F7FBFB"/>
</linearGradient>
<linearGradient id="paint5_linear_2086_2595" x1="1854.88" y1="1645.69" x2="2055.37" y2="1664.47" gradientUnits="userSpaceOnUse">
<stop stop-color="#76919C"/>
<stop offset="1" stop-color="#E7F0F1"/>
</linearGradient>
<linearGradient id="paint6_linear_2086_2595" x1="2868.25" y1="1645.41" x2="3018.35" y2="1634.11" gradientUnits="userSpaceOnUse">
<stop stop-color="#809AA3"/>
<stop offset="1" stop-color="#E7F0F1"/>
</linearGradient>
<linearGradient id="paint7_linear_2086_2595" x1="887.654" y1="888.22" x2="-46.6074" y2="51.6189" gradientUnits="userSpaceOnUse">
<stop stop-color="#FFD5EF"/>
<stop offset="1" stop-color="#EFBDFD"/>
</linearGradient>
<linearGradient id="paint8_linear_2086_2595" x1="1905.24" y1="710" x2="2090.42" y2="714.292" gradientUnits="userSpaceOnUse">
<stop stop-color="#E4F476"/>
<stop offset="1" stop-color="#F6FFBE"/>
</linearGradient>
<linearGradient id="paint9_linear_2086_2595" x1="2028.75" y1="1887.88" x2="2525.21" y2="1548.2" gradientUnits="userSpaceOnUse">
<stop stop-color="#76919C"/>
<stop offset="1" stop-color="#E7F0F1"/>
</linearGradient>
<linearGradient id="paint10_linear_2086_2595" x1="2064.51" y1="931.092" x2="2725.37" y2="863.879" gradientUnits="userSpaceOnUse">
<stop stop-color="#E4F476"/>
<stop offset="1" stop-color="#F6FFBE"/>
</linearGradient>
<linearGradient id="paint11_linear_2086_2595" x1="2833.55" y1="708.973" x2="2971.78" y2="706.399" gradientUnits="userSpaceOnUse">
<stop stop-color="#E4F476"/>
<stop offset="1" stop-color="#F6FFBE"/>
</linearGradient>
<linearGradient id="paint12_linear_2086_2595" x1="999.611" y1="1000.25" x2="-52.4858" y2="58.1294" gradientUnits="userSpaceOnUse">
<stop stop-color="#EBF3F3"/>
<stop offset="1" stop-color="#F1F7F7"/>
</linearGradient>
<linearGradient id="paint13_linear_2086_2595" x1="1849.65" y1="500" x2="2057.42" y2="513.52" gradientUnits="userSpaceOnUse">
<stop stop-color="#748F9A"/>
<stop offset="1" stop-color="#E3EDEE"/>
</linearGradient>
<linearGradient id="paint14_linear_2086_2595" x1="2029.01" y1="749.722" x2="2688.52" y2="502.881" gradientUnits="userSpaceOnUse">
<stop stop-color="#76919C"/>
<stop offset="0.935" stop-color="#E7F0F1"/>
</linearGradient>
<linearGradient id="paint15_linear_2086_2595" x1="2895.04" y1="499.588" x2="3050.34" y2="491.468" gradientUnits="userSpaceOnUse">
<stop stop-color="#809AA3"/>
<stop offset="1" stop-color="#E3EDEE"/>
</linearGradient>
<linearGradient id="paint16_linear_2086_2595" x1="799.689" y1="800.198" x2="-41.9886" y2="46.5035" gradientUnits="userSpaceOnUse">
<stop stop-color="#DDEAEB"/>
<stop offset="1" stop-color="#F0F6F6"/>
</linearGradient>
<linearGradient id="paint17_linear_2086_2595" x1="1971.92" y1="426" x2="2137.38" y2="441.505" gradientUnits="userSpaceOnUse">
<stop stop-color="#76919C"/>
<stop offset="1" stop-color="#E7F0F1"/>
</linearGradient>
<linearGradient id="paint18_linear_2086_2595" x1="2115.41" y1="625.878" x2="2525.13" y2="345.55" gradientUnits="userSpaceOnUse">
<stop stop-color="#76919C"/>
<stop offset="1" stop-color="#E7F0F1"/>
</linearGradient>
<linearGradient id="paint19_linear_2086_2595" x1="2808.23" y1="425.771" x2="2932.11" y2="416.444" gradientUnits="userSpaceOnUse">
<stop stop-color="#76919C"/>
<stop offset="1" stop-color="#E7F0F1"/>
</linearGradient>
<linearGradient id="paint20_linear_2086_2595" x1="385.85" y1="386.096" x2="-20.2595" y2="22.438" gradientUnits="userSpaceOnUse">
<stop stop-color="#E0ECED"/>
<stop offset="1" stop-color="#E0ECED"/>
</linearGradient>
<linearGradient id="paint21_linear_2086_2595" x1="2219.91" y1="321" x2="2300.21" y2="325.395" gradientUnits="userSpaceOnUse">
<stop stop-color="#76919C"/>
<stop offset="1" stop-color="#E4EDEF"/>
</linearGradient>
<linearGradient id="paint22_linear_2086_2595" x1="2289.14" y1="417.363" x2="2556.51" y2="339.178" gradientUnits="userSpaceOnUse">
<stop stop-color="#76919C"/>
<stop offset="1" stop-color="#E7F0F1"/>
</linearGradient>
<linearGradient id="paint23_linear_2086_2595" x1="2623.43" y1="320.811" x2="2683.42" y2="318.172" gradientUnits="userSpaceOnUse">
<stop stop-color="#76919C"/>
<stop offset="1" stop-color="#E7F0F1"/>
</linearGradient>
<clipPath id="clip0_2086_2595">
<rect width="3330" height="2045" fill="white"/>
</clipPath>
</defs>
</svg>
