<svg width="3330" height="1500" viewBox="0 0 3330 1500" fill="none" xmlns="http://www.w3.org/2000/svg">
<g clip-path="url(#clip0_2091_4261)">
<rect width="3330" height="1500" fill="#EBF3F4"/>
<path d="M301.852 833.609C292.737 833.609 284.273 832.047 276.461 828.922C268.648 825.536 261.487 820.589 254.977 814.078C248.466 807.568 243.518 800.406 240.133 792.594C237.008 784.781 235.445 776.318 235.445 767.203C235.445 765.641 235.445 764.208 235.445 762.906C235.445 761.604 235.445 760.302 235.445 759C235.445 749.885 237.008 741.292 240.133 733.219C243.518 725.406 248.466 718.245 254.977 711.734C261.487 705.224 268.648 700.406 276.461 697.281C284.273 693.896 292.737 692.203 301.852 692.203C319.299 692.203 336.747 692.203 354.195 692.203C371.383 692.203 388.701 692.203 406.148 692.203C412.138 692.203 417.867 692.984 423.336 694.547C428.544 695.849 433.753 698.062 438.961 701.188C444.43 704.052 449.117 707.438 453.023 711.344C456.93 715.25 460.445 719.807 463.57 725.016C464.612 726.578 465.263 728.271 465.523 730.094C465.523 730.875 465.393 731.656 465.133 732.438C464.612 735.302 463.18 737.385 460.836 738.688C458.232 739.99 455.628 740.25 453.023 739.469C450.419 738.948 448.466 737.385 447.164 734.781C444.82 731.135 442.346 727.88 439.742 725.016C436.878 722.411 433.492 719.938 429.586 717.594C425.94 715.51 422.164 713.948 418.258 712.906C414.352 711.865 410.315 711.474 406.148 711.734C388.701 711.734 371.383 711.604 354.195 711.344C336.747 711.344 319.299 711.474 301.852 711.734C295.341 711.734 289.352 712.776 283.883 714.859C278.154 717.203 273.076 720.719 268.648 725.406C263.961 730.094 260.445 735.172 258.102 740.641C255.758 746.37 254.586 752.49 254.586 759C254.586 760.302 254.586 761.604 254.586 762.906C254.586 764.208 254.586 765.641 254.586 767.203C254.586 773.714 255.758 779.703 258.102 785.172C260.445 790.901 263.961 795.979 268.648 800.406C273.076 805.094 278.154 808.609 283.883 810.953C289.352 813.297 295.341 814.469 301.852 814.469C319.299 814.469 336.747 814.469 354.195 814.469C371.383 814.469 388.701 814.469 406.148 814.469C410.315 814.469 414.221 814.078 417.867 813.297C421.513 812.255 425.159 810.693 428.805 808.609C432.451 806.786 435.706 804.573 438.57 801.969C441.174 799.365 443.648 796.37 445.992 792.984C447.555 791.161 449.638 789.99 452.242 789.469C454.586 789.208 456.799 789.729 458.883 791.031C460.966 792.333 462.268 794.286 462.789 796.891C463.57 799.234 463.31 801.448 462.008 803.531C458.883 808.479 455.367 812.776 451.461 816.422C447.555 819.807 442.997 822.932 437.789 825.797C432.581 828.661 427.503 830.615 422.555 831.656C417.346 832.958 411.878 833.609 406.148 833.609C388.701 833.609 371.383 833.609 354.195 833.609C336.747 833.609 319.299 833.609 301.852 833.609ZM547.539 833.609C530.091 833.609 515.117 827.099 502.617 814.078C490.117 801.057 483.867 785.302 483.867 766.812C483.867 752.229 483.867 730.484 483.867 701.578C483.867 698.714 484.779 696.37 486.602 694.547C488.424 692.724 490.638 691.812 493.242 691.812C496.107 691.812 498.451 692.724 500.273 694.547C502.096 696.37 503.008 698.714 503.008 701.578C503.008 712.516 503.008 723.323 503.008 734C503.008 744.938 503.008 755.875 503.008 766.812C503.008 779.833 507.435 791.031 516.289 800.406C524.883 809.521 535.43 814.078 547.93 814.078C569.023 814.078 600.664 814.078 642.852 814.078C655.352 814.078 665.898 809.521 674.492 800.406C683.346 791.031 687.773 779.833 687.773 766.812C687.773 752.229 687.773 730.484 687.773 701.578C687.773 698.714 688.685 696.37 690.508 694.547C692.331 692.724 694.674 691.812 697.539 691.812C700.143 691.812 702.357 692.724 704.18 694.547C706.003 696.37 706.914 698.714 706.914 701.578C706.914 712.516 706.914 723.323 706.914 734C706.914 744.938 706.914 755.875 706.914 766.812C706.914 785.302 700.664 801.057 688.164 814.078C675.664 827.099 660.56 833.609 642.852 833.609C626.966 833.609 611.081 833.609 595.195 833.609C579.31 833.609 563.424 833.609 547.539 833.609ZM980.336 816.031C982.159 817.333 983.461 818.896 984.242 820.719C984.503 821.76 984.633 822.932 984.633 824.234C984.633 825.016 984.503 825.927 984.242 826.969C983.721 829.052 982.549 830.745 980.727 832.047C979.164 833.089 977.211 833.609 974.867 833.609C974.607 833.609 974.216 833.609 973.695 833.609C973.174 833.609 972.654 833.479 972.133 833.219C971.612 833.219 971.221 833.089 970.961 832.828C970.44 832.568 970.049 832.307 969.789 832.047C960.414 825.536 951.169 819.026 942.055 812.516C932.94 806.005 923.826 799.495 914.711 792.984C914.451 792.984 914.32 792.854 914.32 792.594C914.06 792.594 913.93 792.464 913.93 792.203C913.669 792.203 913.539 792.073 913.539 791.812C913.279 791.812 913.148 791.812 913.148 791.812C882.94 791.812 837.758 791.812 777.602 791.812C777.602 797.281 777.602 802.62 777.602 807.828C777.602 813.297 777.602 818.766 777.602 824.234C777.602 827.099 776.69 829.443 774.867 831.266C772.784 833.089 770.44 834 767.836 834C765.232 834 763.018 833.089 761.195 831.266C759.372 829.443 758.461 827.099 758.461 824.234C758.461 804.182 758.461 784 758.461 763.688C758.461 743.635 758.461 723.453 758.461 703.141C758.461 701.839 758.591 700.536 758.852 699.234C759.372 698.193 760.154 697.151 761.195 696.109C761.977 695.328 763.018 694.677 764.32 694.156C765.362 693.635 766.534 693.375 767.836 693.375C795.961 693.375 824.086 693.375 852.211 693.375C861.586 693.375 870.961 693.375 880.336 693.375C899.086 693.375 917.836 693.375 936.586 693.375C942.836 693.375 948.565 694.547 953.773 696.891C959.242 698.974 964.06 702.229 968.227 706.656C972.654 711.083 976.039 715.901 978.383 721.109C980.466 726.578 981.508 732.307 981.508 738.297C981.508 739.859 981.508 741.292 981.508 742.594C981.508 743.896 981.508 745.198 981.508 746.5C981.508 751.969 980.727 757.047 979.164 761.734C977.341 766.161 974.737 770.458 971.352 774.625C967.966 779.052 964.19 782.438 960.023 784.781C955.857 787.385 951.169 789.339 945.961 790.641C951.69 794.807 957.419 798.974 963.148 803.141C968.878 807.307 974.607 811.604 980.336 816.031ZM777.602 712.516C777.602 725.797 777.602 745.589 777.602 771.891C804.164 771.891 830.596 771.891 856.898 771.891C883.461 771.891 910.023 771.891 936.586 771.891C940.232 771.891 943.487 771.24 946.352 769.938C949.477 768.896 952.211 767.073 954.555 764.469C957.159 761.865 959.112 759.13 960.414 756.266C961.716 753.141 962.367 749.755 962.367 746.109C962.367 744.807 962.367 743.505 962.367 742.203C962.367 740.901 962.367 739.599 962.367 738.297C962.367 734.651 961.716 731.396 960.414 728.531C959.112 725.406 957.289 722.542 954.945 719.938C952.341 717.594 949.477 715.771 946.352 714.469C943.487 713.167 940.232 712.516 936.586 712.516C910.023 712.516 883.461 712.516 856.898 712.516C830.596 712.516 804.164 712.516 777.602 712.516ZM1197.51 693.375C1200.11 693.375 1202.46 694.286 1204.54 696.109C1206.36 697.932 1207.27 700.146 1207.27 702.75C1207.27 705.615 1206.36 707.958 1204.54 709.781C1202.46 711.604 1200.11 712.516 1197.51 712.516C1177.72 712.516 1148.03 712.516 1108.45 712.516C1108.45 731.266 1108.45 750.016 1108.45 768.766C1108.45 787.255 1108.45 805.875 1108.45 824.625C1108.45 827.229 1107.53 829.443 1105.71 831.266C1103.89 833.349 1101.67 834.391 1099.07 834.391C1096.47 834.391 1094.12 833.349 1092.04 831.266C1090.22 829.443 1089.3 827.229 1089.3 824.625C1089.3 799.625 1089.3 762.255 1089.3 712.516C1074.46 712.516 1059.62 712.516 1044.77 712.516C1029.93 712.516 1015.09 712.516 1000.24 712.516C997.638 712.516 995.424 711.604 993.602 709.781C991.779 707.958 990.867 705.615 990.867 702.75C990.867 700.146 991.779 697.932 993.602 696.109C995.424 694.286 997.638 693.375 1000.24 693.375C1033.32 693.375 1066.26 693.375 1099.07 693.375C1131.88 693.375 1164.7 693.375 1197.51 693.375ZM1399.84 692.203C1417.54 692.203 1432.65 698.714 1445.15 711.734C1457.65 724.755 1463.9 740.38 1463.9 758.609C1463.9 769.547 1463.9 780.484 1463.9 791.422C1463.9 802.359 1463.9 813.297 1463.9 824.234C1463.9 826.839 1462.99 829.052 1461.16 830.875C1459.08 832.958 1456.74 834 1454.13 834C1451.53 834 1449.32 832.958 1447.49 830.875C1445.41 829.052 1444.37 826.839 1444.37 824.234C1444.37 817.724 1444.37 807.958 1444.37 794.938C1403.48 794.938 1342.02 794.938 1259.99 794.938C1259.99 799.885 1259.99 804.833 1259.99 809.781C1259.99 814.469 1259.99 819.286 1259.99 824.234C1259.99 826.839 1258.95 829.052 1256.87 830.875C1255.04 832.958 1252.83 834 1250.23 834C1247.62 834 1245.41 832.958 1243.59 830.875C1241.5 829.052 1240.46 826.839 1240.46 824.234C1240.46 809.651 1240.46 787.776 1240.46 758.609C1240.46 740.38 1246.71 724.755 1259.21 711.734C1271.71 698.714 1286.82 692.203 1304.52 692.203C1320.41 692.203 1336.29 692.203 1352.18 692.203C1368.07 692.203 1383.95 692.203 1399.84 692.203ZM1260.38 775.797C1301.53 775.797 1363.12 775.797 1445.15 775.797C1445.15 771.891 1445.15 766.161 1445.15 758.609C1445.15 745.589 1440.85 734.521 1432.26 725.406C1423.4 716.031 1412.86 711.344 1400.62 711.344C1379.26 711.344 1347.49 711.344 1305.3 711.344C1292.8 711.344 1282.26 716.031 1273.66 725.406C1264.81 734.521 1260.38 745.589 1260.38 758.609C1260.38 761.474 1260.38 764.339 1260.38 767.203C1260.38 770.068 1260.38 772.932 1260.38 775.797Z" fill="#3F5762"/>
<path d="M273.65 958H238.44V909H244.74V952.26H273.65V958ZM290.343 958.7C281.663 958.7 274.173 952.61 274.173 940.43C274.173 928.25 282.013 922.3 290.203 922.3C299.163 922.3 304.833 928.74 304.833 937.84V941.34H280.123C280.403 949.95 285.513 953.66 290.273 953.66H290.833C294.683 953.66 297.903 951.77 298.813 947.78H304.763C303.433 954.78 297.553 958.7 290.343 958.7ZM280.403 936.51H298.883C298.603 930.42 295.033 927.34 290.483 927.34H289.923C286.003 927.34 281.593 929.58 280.403 936.51ZM328.729 958H320.539C315.779 958 313.189 955.55 313.189 950.79V928.11H305.349V923H313.189V911.66H319.139V923H327.679V928.11H319.139V949.95C319.139 952.05 319.839 952.75 321.939 952.75H328.729V958ZM333.419 926.15H330.829V922.16H333.209C336.009 922.16 337.409 920.76 337.409 917.96V916.91H333.279V909H341.259V918.31C341.259 923.49 338.319 926.15 333.419 926.15ZM356.618 958.7C347.448 958.7 342.548 953.87 342.408 947.29H348.358C348.778 951.7 352.208 953.66 356.548 953.66H357.178C361.238 953.66 364.178 951.7 364.178 948.55C364.178 946.17 362.848 944.56 358.928 943.79L353.818 942.74C348.288 941.62 343.808 938.89 343.808 932.94C343.808 926.01 349.968 922.3 356.828 922.3C365.858 922.3 370.338 927.41 370.478 933.71H364.528C364.108 930.35 361.798 927.34 357.178 927.34H356.548C352.348 927.34 349.758 929.65 349.758 932.31C349.758 934.97 351.368 936.37 355.148 937.14L360.678 938.33C365.858 939.38 370.128 942.04 370.128 948.2C370.128 954.64 364.598 958.7 356.618 958.7ZM406.771 958.7C402.011 958.7 397.041 956.25 395.221 952.89V958H389.271V909H395.221V928.11C397.041 924.75 401.521 922.3 406.351 922.3C415.171 922.3 422.031 929.09 422.031 940.5C422.031 951.91 415.661 958.7 406.771 958.7ZM405.511 953.66H406.001C412.021 953.66 416.081 948.62 416.081 940.5C416.081 932.38 412.021 927.34 406.001 927.34H405.511C399.701 927.34 395.221 932.38 395.221 940.5C395.221 948.62 399.701 953.66 405.511 953.66ZM438.817 958.7C430.977 958.7 426.847 953.45 426.847 946.1V923H432.797V944.7C432.797 950.65 435.247 953.66 440.287 953.66H440.917C445.607 953.66 450.157 949.25 450.157 941.9V923H456.107V958H450.157V951.35C448.687 955.48 444.767 958.7 438.817 958.7ZM469.713 916.7H463.063V909.56H469.713V916.7ZM469.363 958H463.413V923H469.363V958ZM482.543 958H476.593V909H482.543V958ZM502.933 958.7C494.043 958.7 487.673 951.91 487.673 940.5C487.673 929.09 494.533 922.3 503.423 922.3C508.183 922.3 512.663 924.75 514.553 928.11V909H520.503V958H514.553V952.89C512.663 956.25 507.693 958.7 502.933 958.7ZM503.703 953.66H504.193C510.073 953.66 514.553 948.62 514.553 940.5C514.553 932.38 510.073 927.34 504.193 927.34H503.703C497.683 927.34 493.693 932.38 493.693 940.5C493.693 948.62 497.683 953.66 503.703 953.66ZM559.305 958H551.115C546.355 958 543.765 955.55 543.765 950.79V928.11H535.925V923H543.765V911.66H549.715V923H558.255V928.11H549.715V949.95C549.715 952.05 550.415 952.75 552.515 952.75H559.305V958ZM568.895 958H562.945V909H568.895V928.25C571.065 924.75 574.845 922.3 580.515 922.3C588.495 922.3 592.905 927.34 592.905 934.69V958H586.955V936.09C586.955 930.56 584.645 927.34 579.465 927.34H578.835C573.725 927.34 568.895 931.47 568.895 938.61V958ZM613.915 958.7C605.235 958.7 597.745 952.61 597.745 940.43C597.745 928.25 605.585 922.3 613.775 922.3C622.735 922.3 628.405 928.74 628.405 937.84V941.34H603.695C603.975 949.95 609.085 953.66 613.845 953.66H614.405C618.255 953.66 621.475 951.77 622.385 947.78H628.335C627.005 954.78 621.125 958.7 613.915 958.7ZM603.975 936.51H622.455C622.175 930.42 618.605 927.34 614.055 927.34H613.495C609.575 927.34 605.165 929.58 603.975 936.51ZM680.644 951.91L688.694 923H694.854L683.934 958H677.004L669.234 929.72L661.464 958H654.534L643.544 923H649.774L658.174 951.77L665.944 923H672.524L680.644 951.91ZM711.976 958.7C702.666 958.7 695.456 951.35 695.456 940.5C695.456 929.65 702.666 922.3 711.976 922.3C721.286 922.3 728.566 929.65 728.566 940.5C728.566 951.35 721.286 958.7 711.976 958.7ZM711.696 953.66H712.326C718.206 953.66 722.616 948.83 722.616 940.5C722.616 932.17 718.206 927.34 712.326 927.34H711.696C705.816 927.34 701.406 932.17 701.406 940.5C701.406 948.83 705.816 953.66 711.696 953.66ZM739.656 958H733.706V923H739.306V930.77C740.776 925.45 745.046 922.65 749.666 922.65H752.816V928.32H750.016C743.576 928.32 739.656 932.94 739.656 940.5V958ZM762.065 958H756.115V909H762.065V958ZM782.454 958.7C773.564 958.7 767.194 951.91 767.194 940.5C767.194 929.09 774.054 922.3 782.944 922.3C787.704 922.3 792.184 924.75 794.074 928.11V909H800.024V958H794.074V952.89C792.184 956.25 787.214 958.7 782.454 958.7ZM783.224 953.66H783.714C789.594 953.66 794.074 948.62 794.074 940.5C794.074 932.38 789.594 927.34 783.714 927.34H783.224C777.204 927.34 773.214 932.38 773.214 940.5C773.214 948.62 777.204 953.66 783.224 953.66ZM808.27 926.15H805.68V922.16H808.06C810.86 922.16 812.26 920.76 812.26 917.96V916.91H808.13V909H816.11V918.31C816.11 923.49 813.17 926.15 808.27 926.15ZM831.47 958.7C822.3 958.7 817.4 953.87 817.26 947.29H823.21C823.63 951.7 827.06 953.66 831.4 953.66H832.03C836.09 953.66 839.03 951.7 839.03 948.55C839.03 946.17 837.7 944.56 833.78 943.79L828.67 942.74C823.14 941.62 818.66 938.89 818.66 932.94C818.66 926.01 824.82 922.3 831.68 922.3C840.71 922.3 845.19 927.41 845.33 933.71H839.38C838.96 930.35 836.65 927.34 832.03 927.34H831.4C827.2 927.34 824.61 929.65 824.61 932.31C824.61 934.97 826.22 936.37 830 937.14L835.53 938.33C840.71 939.38 844.98 942.04 844.98 948.2C844.98 954.64 839.45 958.7 831.47 958.7ZM881.622 958.7C876.862 958.7 871.892 956.25 870.072 952.89V958H864.122V909H870.072V928.11C871.892 924.75 876.372 922.3 881.202 922.3C890.022 922.3 896.882 929.09 896.882 940.5C896.882 951.91 890.512 958.7 881.622 958.7ZM880.362 953.66H880.852C886.872 953.66 890.932 948.62 890.932 940.5C890.932 932.38 886.872 927.34 880.852 927.34H880.362C874.552 927.34 870.072 932.38 870.072 940.5C870.072 948.62 874.552 953.66 880.362 953.66ZM916.118 958.7C907.438 958.7 899.948 952.61 899.948 940.43C899.948 928.25 907.788 922.3 915.978 922.3C924.938 922.3 930.608 928.74 930.608 937.84V941.34H905.898C906.178 949.95 911.288 953.66 916.048 953.66H916.608C920.458 953.66 923.678 951.77 924.588 947.78H930.538C929.208 954.78 923.328 958.7 916.118 958.7ZM906.178 936.51H924.658C924.378 930.42 920.808 927.34 916.258 927.34H915.698C911.778 927.34 907.368 929.58 906.178 936.51ZM947.421 958.7C938.251 958.7 933.351 953.87 933.211 947.29H939.161C939.581 951.7 943.011 953.66 947.351 953.66H947.981C952.041 953.66 954.981 951.7 954.981 948.55C954.981 946.17 953.651 944.56 949.731 943.79L944.621 942.74C939.091 941.62 934.611 938.89 934.611 932.94C934.611 926.01 940.771 922.3 947.631 922.3C956.661 922.3 961.141 927.41 961.281 933.71H955.331C954.911 930.35 952.601 927.34 947.981 927.34H947.351C943.151 927.34 940.561 929.65 940.561 932.31C940.561 934.97 942.171 936.37 945.951 937.14L951.481 938.33C956.661 939.38 960.931 942.04 960.931 948.2C960.931 954.64 955.401 958.7 947.421 958.7ZM985.047 958H976.857C972.097 958 969.507 955.55 969.507 950.79V928.11H961.667V923H969.507V911.66H975.457V923H983.997V928.11H975.457V949.95C975.457 952.05 976.157 952.75 978.257 952.75H985.047V958ZM1027.47 928.32L1006.82 952.89H1028.52V958H999.963V952.61L1020.54 928.11H1000.31V923H1027.47V928.32ZM1038.97 958H1033.02V909H1038.97V939.1L1055.42 923H1063.33L1048.77 936.93L1064.03 958H1056.68L1044.5 940.99L1038.97 946.38V958ZM1085.48 951.91L1102.14 909H1108.79L1089.26 958H1081.35L1061.33 909H1067.98L1085.48 951.91ZM1138.43 952.4L1153.69 909H1164.12V958H1157.82V914.32L1142.49 958H1134.3L1118.69 914.46V958H1112.39V909H1122.96L1138.43 952.4ZM1171.95 967.24H1169.43V963.25H1171.74C1174.54 963.25 1175.94 961.85 1175.94 959.05V958H1171.88V950.09H1179.79V959.4C1179.79 964.51 1176.92 967.24 1171.95 967.24ZM1218.11 958H1209.92C1205.16 958 1202.57 955.55 1202.57 950.79V928.11H1194.73V923H1202.57V911.66H1208.52V923H1217.06V928.11H1208.52V949.95C1208.52 952.05 1209.22 952.75 1211.32 952.75H1218.11V958ZM1235.69 958.7C1226.38 958.7 1219.17 951.35 1219.17 940.5C1219.17 929.65 1226.38 922.3 1235.69 922.3C1245 922.3 1252.28 929.65 1252.28 940.5C1252.28 951.35 1245 958.7 1235.69 958.7ZM1235.41 953.66H1236.04C1241.92 953.66 1246.33 948.83 1246.33 940.5C1246.33 932.17 1241.92 927.34 1236.04 927.34H1235.41C1229.53 927.34 1225.12 932.17 1225.12 940.5C1225.12 948.83 1229.53 953.66 1235.41 953.66ZM1270.72 973.4C1260.85 973.4 1255.32 968.92 1254.62 962.69H1260.57C1261.34 966.47 1265.26 968.36 1270.37 968.36H1271.07C1277.02 968.36 1281.64 965.14 1281.64 957.3V952.19C1279.75 955.34 1276.11 958 1270.72 958C1262.46 958 1255.32 952.19 1255.32 940.29C1255.32 928.39 1262.32 922.3 1270.72 922.3C1276.11 922.3 1279.96 924.96 1281.64 928.11V923H1287.59V957.93C1287.59 966.75 1281.36 973.4 1270.72 973.4ZM1271 952.96H1271.56C1276.88 952.96 1281.64 948.34 1281.64 940.29C1281.64 932.24 1277.16 927.34 1271.84 927.34H1271.21C1265.82 927.34 1261.27 931.54 1261.27 940.29C1261.27 949.04 1265.54 952.96 1271 952.96ZM1308.87 958.7C1300.19 958.7 1292.7 952.61 1292.7 940.43C1292.7 928.25 1300.54 922.3 1308.73 922.3C1317.69 922.3 1323.36 928.74 1323.36 937.84V941.34H1298.65C1298.93 949.95 1304.04 953.66 1308.8 953.66H1309.36C1313.21 953.66 1316.43 951.77 1317.34 947.78H1323.29C1321.96 954.78 1316.08 958.7 1308.87 958.7ZM1298.93 936.51H1317.41C1317.13 930.42 1313.56 927.34 1309.01 927.34H1308.45C1304.53 927.34 1300.12 929.58 1298.93 936.51ZM1347.26 958H1339.07C1334.31 958 1331.72 955.55 1331.72 950.79V928.11H1323.88V923H1331.72V911.66H1337.67V923H1346.21V928.11H1337.67V949.95C1337.67 952.05 1338.37 952.75 1340.47 952.75H1347.26V958ZM1356.85 958H1350.9V909H1356.85V928.25C1359.02 924.75 1362.8 922.3 1368.47 922.3C1376.45 922.3 1380.86 927.34 1380.86 934.69V958H1374.91V936.09C1374.91 930.56 1372.6 927.34 1367.42 927.34H1366.79C1361.68 927.34 1356.85 931.47 1356.85 938.61V958ZM1401.87 958.7C1393.19 958.7 1385.7 952.61 1385.7 940.43C1385.7 928.25 1393.54 922.3 1401.73 922.3C1410.69 922.3 1416.36 928.74 1416.36 937.84V941.34H1391.65C1391.93 949.95 1397.04 953.66 1401.8 953.66H1402.36C1406.21 953.66 1409.43 951.77 1410.34 947.78H1416.29C1414.96 954.78 1409.08 958.7 1401.87 958.7ZM1391.93 936.51H1410.41C1410.13 930.42 1406.56 927.34 1402.01 927.34H1401.45C1397.53 927.34 1393.12 929.58 1391.93 936.51ZM1427.64 958H1421.69V923H1427.29V930.77C1428.76 925.45 1433.03 922.65 1437.65 922.65H1440.8V928.32H1438C1431.56 928.32 1427.64 932.94 1427.64 940.5V958ZM1447.55 958H1439.57V950.09H1447.55V958Z" fill="#3F5762"/>
<circle cx="559.161" cy="559.161" r="559.161" transform="matrix(0.866025 0.5 -0.866025 0.5 2449.5 1161)" fill="url(#paint0_linear_2091_4261)"/>
<circle cx="484.686" cy="484.686" r="484.686" transform="matrix(0.866025 0.5 -0.866025 0.5 2448.5 1161)" fill="url(#paint1_linear_2091_4261)"/>
<circle cx="444" cy="444" r="444" transform="matrix(0.866025 0.5 -0.866025 0.5 2449.03 266)" fill="url(#paint2_linear_2091_4261)"/>
<path d="M1905.24 710C1905.24 796.696 1966.11 875.185 2064.52 932V1832C1966.11 1775.19 1905.24 1696.7 1905.24 1610V710Z" fill="url(#paint3_linear_2091_4261)"/>
<path d="M2064.52 932C2276.88 1054.61 2621.18 1054.61 2833.55 932V1832C2621.18 1954.61 2276.88 1954.61 2064.52 1832V932Z" fill="url(#paint4_linear_2091_4261)"/>
<path d="M2992.82 710C2992.82 796.696 2931.95 875.185 2833.55 932V1832C2931.95 1775.19 2992.82 1696.7 2992.82 1610V710Z" fill="url(#paint5_linear_2091_4261)"/>
<circle cx="500" cy="500" r="500" transform="matrix(0.866025 0.5 -0.866025 0.5 2462.03 0)" fill="url(#paint6_linear_2091_4261)"/>
<path d="M1849.65 500C1849.65 597.631 1918.19 686.019 2029.01 750V950C1918.19 886.019 1849.65 797.631 1849.65 700V500Z" fill="url(#paint7_linear_2091_4261)"/>
<path d="M2029.01 750C2268.16 888.071 2655.89 888.071 2895.04 750V950C2655.89 1088.07 2268.16 1088.07 2029.01 950V750Z" fill="url(#paint8_linear_2091_4261)"/>
<path d="M3074.4 500C3074.4 597.631 3005.86 686.019 2895.04 750V950C3005.86 886.019 3074.4 797.631 3074.4 700V500Z" fill="url(#paint9_linear_2091_4261)"/>
<circle cx="400" cy="400" r="400" transform="matrix(0.866025 0.5 -0.866025 0.5 2461.82 26)" fill="url(#paint10_linear_2091_4261)"/>
<path d="M1971.92 426C1971.92 504.105 2026.76 574.816 2115.41 626V676C2026.76 624.816 1971.92 554.105 1971.92 476V426Z" fill="url(#paint11_linear_2091_4261)"/>
<path d="M2115.41 626C2306.73 736.457 2616.91 736.457 2808.23 626V676C2616.91 786.457 2306.73 786.457 2115.41 676V626Z" fill="url(#paint12_linear_2091_4261)"/>
<path d="M2951.72 426C2951.72 504.105 2896.88 574.816 2808.23 626V676C2896.88 624.816 2951.72 554.105 2951.72 476V426Z" fill="url(#paint13_linear_2091_4261)"/>
<rect width="30.0222" height="638.476" transform="matrix(0.866025 0.5 0 1 2052 1067)" fill="#C8D663"/>
<rect width="30.0222" height="638.476" transform="matrix(0.866025 -0.5 0 1 2821 1082.01)" fill="#C8D663"/>
<rect x="2449" y="1131" width="30.0222" height="638.476" fill="#C8D663"/>
<rect x="2435" y="1389" width="57" height="121" fill="#939E46"/>
<rect width="57" height="121" transform="matrix(0.866025 -0.5 0 1 2809 1189.5)" fill="#939E46"/>
<path d="M2076.29 1014.78C2080.12 1017 2083.39 1020.51 2086.1 1025.33C2088.81 1030.15 2090.16 1034.83 2090.16 1039.39C2090.16 1042.13 2090.16 1044.86 2090.16 1047.59C2090.16 1050.33 2090.16 1053.06 2090.16 1055.8C2090.16 1056.45 2089.96 1056.89 2089.57 1057.12C2089.12 1057.38 2088.61 1057.34 2088.05 1057.02C2087.48 1056.69 2087 1056.16 2086.61 1055.41C2086.16 1054.69 2085.93 1054.01 2085.93 1053.36C2085.93 1051.73 2085.93 1049.29 2085.93 1046.03C2077.08 1040.92 2063.77 1033.24 2046.01 1022.99C2046.01 1024.22 2046.01 1025.46 2046.01 1026.7C2046.01 1027.87 2046.01 1029.07 2046.01 1030.31C2046.01 1030.96 2045.79 1031.38 2045.34 1031.58C2044.94 1031.87 2044.46 1031.86 2043.9 1031.53C2043.34 1031.2 2042.86 1030.67 2042.46 1029.92C2042.01 1029.2 2041.78 1028.52 2041.78 1027.87C2041.78 1024.22 2041.78 1018.75 2041.78 1011.46C2041.78 1006.9 2043.14 1003.78 2045.84 1002.09C2048.55 1000.39 2051.82 1000.65 2055.65 1002.87C2059.09 1004.85 2062.53 1006.84 2065.97 1008.83C2069.41 1010.81 2072.85 1012.8 2076.29 1014.78ZM2046.1 1018.25C2055.01 1023.39 2068.34 1031.09 2086.1 1041.34C2086.1 1040.37 2086.1 1038.94 2086.1 1037.05C2086.1 1033.79 2085.17 1030.49 2083.31 1027.14C2081.39 1023.69 2079.11 1021.19 2076.46 1019.67C2071.84 1017 2064.96 1013.02 2055.82 1007.75C2053.12 1006.19 2050.83 1006.04 2048.97 1007.31C2047.06 1008.48 2046.1 1010.7 2046.1 1013.95C2046.1 1014.67 2046.1 1015.38 2046.1 1016.1C2046.1 1016.82 2046.1 1017.53 2046.1 1018.25Z" fill="black"/>
<path d="M2495.48 1083.17C2495.48 1083.89 2495.41 1084.57 2495.28 1085.22C2495.15 1085.81 2494.96 1086.43 2494.7 1087.08C2494.37 1087.73 2494.05 1088.32 2493.72 1088.84C2493.33 1089.42 2492.91 1089.94 2492.45 1090.4C2492.91 1090.79 2493.33 1091.24 2493.72 1091.77C2494.05 1092.22 2494.34 1092.74 2494.6 1093.33C2494.93 1093.91 2495.12 1094.47 2495.19 1094.99C2495.32 1095.57 2495.38 1096.19 2495.38 1096.84C2495.38 1097.1 2495.38 1097.4 2495.38 1097.72C2495.38 1097.98 2495.38 1098.24 2495.38 1098.5C2495.38 1099.68 2495.19 1100.75 2494.79 1101.73C2494.4 1102.7 2493.79 1103.61 2492.94 1104.46C2492.16 1105.24 2491.28 1105.86 2490.3 1106.32C2489.26 1106.71 2488.19 1106.9 2487.08 1106.9C2479.59 1106.9 2472.07 1106.9 2464.52 1106.9C2457.03 1106.9 2449.55 1106.9 2442.06 1106.9C2441.74 1106.9 2441.41 1106.84 2441.08 1106.71C2440.82 1106.58 2440.56 1106.41 2440.3 1106.22C2440.11 1105.96 2439.94 1105.7 2439.81 1105.44C2439.68 1105.11 2439.62 1104.79 2439.62 1104.46C2439.62 1102.25 2439.62 1100 2439.62 1097.72C2439.62 1095.44 2439.62 1093.17 2439.62 1090.89C2439.62 1090.82 2439.62 1090.79 2439.62 1090.79C2439.62 1090.72 2439.62 1090.69 2439.62 1090.69C2439.62 1087.89 2439.62 1085.09 2439.62 1082.29C2439.62 1079.49 2439.62 1076.69 2439.62 1073.89C2439.62 1073.57 2439.68 1073.24 2439.81 1072.92C2439.94 1072.66 2440.11 1072.4 2440.3 1072.14C2440.56 1071.94 2440.82 1071.78 2441.08 1071.65C2441.41 1071.52 2441.74 1071.45 2442.06 1071.45C2449.29 1071.45 2456.51 1071.45 2463.74 1071.45C2466.15 1071.45 2468.56 1071.45 2470.97 1071.45C2475.78 1071.45 2480.6 1071.45 2485.42 1071.45C2486.79 1071.45 2488.06 1071.71 2489.23 1072.23C2490.47 1072.69 2491.57 1073.41 2492.55 1074.38C2493.53 1075.36 2494.24 1076.43 2494.7 1077.61C2495.22 1078.84 2495.48 1080.14 2495.48 1081.51C2495.48 1081.77 2495.48 1082.07 2495.48 1082.39C2495.48 1082.65 2495.48 1082.91 2495.48 1083.17ZM2444.5 1076.24C2444.5 1078.97 2444.5 1083.04 2444.5 1088.45C2451.27 1088.45 2458.08 1088.45 2464.91 1088.45C2471.75 1088.45 2478.58 1088.45 2485.42 1088.45C2486.14 1088.45 2486.79 1088.32 2487.37 1088.05C2488.02 1087.79 2488.61 1087.4 2489.13 1086.88C2489.65 1086.36 2490.04 1085.81 2490.3 1085.22C2490.5 1084.64 2490.6 1083.95 2490.6 1083.17C2490.6 1082.91 2490.6 1082.65 2490.6 1082.39C2490.6 1082.07 2490.6 1081.77 2490.6 1081.51C2490.6 1080.8 2490.5 1080.11 2490.3 1079.46C2490.04 1078.88 2489.65 1078.32 2489.13 1077.8C2488.61 1077.28 2488.02 1076.89 2487.37 1076.63C2486.79 1076.37 2486.14 1076.24 2485.42 1076.24C2478.58 1076.24 2471.75 1076.24 2464.91 1076.24C2458.08 1076.24 2451.27 1076.24 2444.5 1076.24ZM2490.6 1098.5C2490.6 1098.24 2490.6 1097.98 2490.6 1097.72C2490.6 1097.4 2490.6 1097.1 2490.6 1096.84C2490.6 1096.32 2490.53 1095.87 2490.4 1095.48C2490.21 1095.09 2489.94 1094.7 2489.62 1094.3C2489.23 1093.98 2488.84 1093.72 2488.45 1093.52C2488.06 1093.39 2487.6 1093.33 2487.08 1093.33C2477.64 1093.33 2463.45 1093.33 2444.5 1093.33C2444.5 1095.28 2444.5 1098.21 2444.5 1102.12C2451.6 1102.12 2458.69 1102.12 2465.79 1102.12C2472.89 1102.12 2479.98 1102.12 2487.08 1102.12C2487.6 1102.12 2488.06 1102.02 2488.45 1101.82C2488.84 1101.63 2489.23 1101.37 2489.62 1101.04C2489.94 1100.72 2490.21 1100.33 2490.4 1099.87C2490.53 1099.48 2490.6 1099.02 2490.6 1098.5Z" fill="black"/>
<path d="M2825.42 1056.64C2823.44 1057.78 2821.61 1058.45 2819.92 1058.65C2818.23 1058.78 2816.68 1058.43 2815.27 1057.62C2813.86 1056.81 2812.79 1055.64 2812.06 1054.11C2811.38 1052.54 2811.04 1050.62 2811.04 1048.34C2811.04 1047.95 2811.04 1047.6 2811.04 1047.27C2811.04 1046.94 2811.04 1046.62 2811.04 1046.29C2811.04 1044.01 2811.38 1041.67 2812.06 1039.26C2812.79 1036.89 2813.86 1034.48 2815.27 1032.04C2816.68 1029.59 2818.23 1027.49 2819.92 1025.74C2821.61 1023.91 2823.44 1022.43 2825.42 1021.29C2829.2 1019.11 2832.97 1016.93 2836.75 1014.75C2840.47 1012.6 2844.22 1010.44 2848 1008.26C2849.3 1007.51 2850.54 1006.99 2851.72 1006.69C2852.85 1006.37 2853.98 1006.27 2855.1 1006.4C2856.29 1006.43 2857.3 1006.69 2858.15 1007.18C2858.99 1007.67 2859.75 1008.37 2860.43 1009.28C2860.66 1009.54 2860.8 1009.88 2860.85 1010.31C2860.85 1010.5 2860.83 1010.71 2860.77 1010.94C2860.66 1011.72 2860.35 1012.42 2859.84 1013.04C2859.27 1013.69 2858.71 1014.08 2858.15 1014.21C2857.58 1014.41 2857.16 1014.26 2856.88 1013.77C2856.37 1013.15 2855.84 1012.65 2855.27 1012.26C2854.65 1011.97 2853.92 1011.77 2853.07 1011.67C2852.28 1011.61 2851.47 1011.69 2850.62 1011.92C2849.77 1012.15 2848.9 1012.55 2848 1013.14C2844.22 1015.32 2840.47 1017.45 2836.75 1019.54C2832.97 1021.72 2829.2 1023.93 2825.42 1026.18C2824.01 1026.99 2822.71 1028 2821.53 1029.2C2820.29 1030.51 2819.19 1032.02 2818.23 1033.74C2817.21 1035.5 2816.45 1037.21 2815.95 1038.87C2815.44 1040.6 2815.18 1042.27 2815.18 1043.9C2815.18 1044.23 2815.18 1044.55 2815.18 1044.88C2815.18 1045.2 2815.18 1045.56 2815.18 1045.95C2815.18 1047.58 2815.44 1048.93 2815.95 1050C2816.45 1051.14 2817.21 1051.97 2818.23 1052.49C2819.19 1053.11 2820.29 1053.36 2821.53 1053.23C2822.71 1053.13 2824.01 1052.67 2825.42 1051.86C2829.2 1049.68 2832.97 1047.5 2836.75 1045.32C2840.47 1043.17 2844.22 1041 2848 1038.82C2848.9 1038.3 2849.75 1037.72 2850.54 1037.06C2851.33 1036.35 2852.11 1035.5 2852.9 1034.53C2853.69 1033.61 2854.4 1032.65 2855.02 1031.64C2855.58 1030.67 2856.12 1029.61 2856.63 1028.47C2856.96 1027.82 2857.41 1027.27 2857.98 1026.81C2858.49 1026.45 2858.96 1026.31 2859.42 1026.37C2859.87 1026.44 2860.15 1026.76 2860.26 1027.35C2860.43 1027.84 2860.37 1028.42 2860.09 1029.11C2859.42 1030.73 2858.65 1032.25 2857.81 1033.65C2856.96 1034.98 2855.98 1036.33 2854.85 1037.7C2853.72 1039.07 2852.62 1040.19 2851.55 1041.07C2850.42 1042.04 2849.24 1042.89 2848 1043.61C2844.22 1045.79 2840.47 1047.95 2836.75 1050.1C2832.97 1052.28 2829.2 1054.46 2825.42 1056.64Z" fill="black"/>
<circle cx="2060.5" cy="818.5" r="7.5" fill="#D9D9D9"/>
<circle cx="2060.5" cy="852.5" r="7.5" fill="#D9D9D9"/>
<circle cx="2060.5" cy="886.5" r="7.5" fill="#D9D9D9"/>
<circle cx="2060.5" cy="920.5" r="7.5" fill="#D9D9D9"/>
<circle cx="2096.5" cy="833.5" r="7.5" fill="#D9D9D9"/>
<circle cx="2096.5" cy="867.5" r="7.5" fill="#D9D9D9"/>
<circle cx="2096.5" cy="901.5" r="7.5" fill="#D9D9D9"/>
<circle cx="2096.5" cy="935.5" r="7.5" fill="#D9D9D9"/>
<circle cx="2096.5" cy="833.5" r="7.5" fill="#849DA6" fill-opacity="0.55"/>
<circle cx="2096.5" cy="867.5" r="7.5" fill="#849DA6" fill-opacity="0.55"/>
<circle cx="2096.5" cy="901.5" r="7.5" fill="#849DA6" fill-opacity="0.55"/>
<circle cx="2096.5" cy="935.5" r="7.5" fill="#849DA6" fill-opacity="0.55"/>
<circle cx="2132.5" cy="852.5" r="7.5" fill="#D9D9D9"/>
<circle cx="2132.5" cy="886.5" r="7.5" fill="#D9D9D9"/>
<circle cx="2132.5" cy="920.5" r="7.5" fill="#D9D9D9"/>
<circle cx="2132.5" cy="954.5" r="7.5" fill="#D9D9D9"/>
<circle cx="2132.5" cy="852.5" r="7.5" fill="#9DB7C1"/>
<circle cx="2132.5" cy="852.5" r="7.5" fill="#9DB7C1"/>
<circle cx="2132.5" cy="886.5" r="7.5" fill="#9DB7C1"/>
<circle cx="2132.5" cy="886.5" r="7.5" fill="#9DB7C1"/>
<circle cx="2132.5" cy="920.5" r="7.5" fill="#9DB7C1"/>
<circle cx="2132.5" cy="920.5" r="7.5" fill="#9DB7C1"/>
<circle cx="2132.5" cy="954.5" r="7.5" fill="#9DB7C1"/>
<circle cx="2132.5" cy="954.5" r="7.5" fill="#9DB7C1"/>
<circle cx="2163.5" cy="871.5" r="7.5" fill="#9DB7C1"/>
<circle cx="2163.5" cy="871.5" r="7.5" fill="#94AAB3"/>
<circle cx="2163.5" cy="905.5" r="7.5" fill="#9DB7C1"/>
<circle cx="2163.5" cy="905.5" r="7.5" fill="#94AAB3"/>
<circle cx="2163.5" cy="939.5" r="7.5" fill="#9DB7C1"/>
<circle cx="2163.5" cy="939.5" r="7.5" fill="#94AAB3"/>
<circle cx="2163.5" cy="973.5" r="7.5" fill="#9DB7C1"/>
<circle cx="2163.5" cy="973.5" r="7.5" fill="#94AAB3"/>
<line x1="419.452" y1="94.4416" x2="433.749" y2="81.5459" stroke="#072A39" stroke-width="2.54018"/>
<line x1="392.673" y1="62.6967" x2="407.752" y2="50.7242" stroke="#072A39" stroke-width="2.54018"/>
<line x1="367.965" y1="29.32" x2="383.766" y2="18.3179" stroke="#072A39" stroke-width="2.54018"/>
<line x1="1461.5" y1="19.9639" x2="1445.45" y2="9.3269" stroke="#072A39" stroke-width="2.54018"/>
<line x1="1437.42" y1="53.7918" x2="1422.07" y2="42.168" stroke="#072A39" stroke-width="2.54018"/>
<line x1="1411.27" y1="86.0503" x2="1396.68" y2="73.4856" stroke="#072A39" stroke-width="2.54018"/>
<line x1="1383.14" y1="116.603" x2="1369.37" y2="103.147" stroke="#072A39" stroke-width="2.54018"/>
<line x1="1353.15" y1="145.331" x2="1340.25" y2="131.037" stroke="#072A39" stroke-width="2.54018"/>
<line x1="1321.4" y1="172.103" x2="1309.42" y2="157.027" stroke="#072A39" stroke-width="2.54018"/>
<line x1="1288.04" y1="196.837" x2="1277.04" y2="181.039" stroke="#072A39" stroke-width="2.54018"/>
<line x1="1253.2" y1="219.422" x2="1243.2" y2="202.964" stroke="#072A39" stroke-width="2.54018"/>
<line x1="1216.98" y1="239.773" x2="1208.04" y2="222.72" stroke="#072A39" stroke-width="2.54018"/>
<line x1="1179.58" y1="257.818" x2="1171.73" y2="240.237" stroke="#072A39" stroke-width="2.54018"/>
<line x1="1141.13" y1="273.482" x2="1134.39" y2="255.443" stroke="#072A39" stroke-width="2.54018"/>
<line x1="1101.77" y1="286.706" x2="1096.19" y2="268.28" stroke="#072A39" stroke-width="2.54018"/>
<line x1="1061.65" y1="297.425" x2="1057.23" y2="278.685" stroke="#072A39" stroke-width="2.54018"/>
<line x1="1020.93" y1="305.592" x2="1017.69" y2="286.611" stroke="#072A39" stroke-width="2.54018"/>
<line x1="979.762" y1="311.192" x2="977.728" y2="292.045" stroke="#072A39" stroke-width="2.54018"/>
<line x1="938.339" y1="314.193" x2="937.512" y2="294.957" stroke="#072A39" stroke-width="2.54018"/>
<line x1="896.833" y1="314.613" x2="897.214" y2="295.363" stroke="#072A39" stroke-width="2.54018"/>
<line x1="855.343" y1="312.39" x2="856.933" y2="293.202" stroke="#072A39" stroke-width="2.54018"/>
<line x1="814.12" y1="307.599" x2="816.911" y2="288.548" stroke="#072A39" stroke-width="2.54018"/>
<line x1="773.239" y1="300.203" x2="777.221" y2="281.365" stroke="#072A39" stroke-width="2.54018"/>
<line x1="732.936" y1="290.271" x2="738.093" y2="271.721" stroke="#072A39" stroke-width="2.54018"/>
<line x1="693.311" y1="277.829" x2="699.622" y2="259.639" stroke="#072A39" stroke-width="2.54018"/>
<line x1="654.535" y1="262.903" x2="661.976" y2="245.145" stroke="#072A39" stroke-width="2.54018"/>
<line x1="616.799" y1="245.589" x2="625.34" y2="228.333" stroke="#072A39" stroke-width="2.54018"/>
<line x1="580.211" y1="225.937" x2="589.819" y2="209.252" stroke="#072A39" stroke-width="2.54018"/>
<line x1="544.925" y1="204.018" x2="555.562" y2="187.969" stroke="#072A39" stroke-width="2.54018"/>
<line x1="511.111" y1="179.946" x2="522.735" y2="164.597" stroke="#072A39" stroke-width="2.54018"/>
<line x1="478.839" y1="153.776" x2="491.404" y2="139.186" stroke="#072A39" stroke-width="2.54018"/>
<line x1="448.302" y1="125.648" x2="461.758" y2="111.876" stroke="#072A39" stroke-width="2.54018"/>
<line x1="419.586" y1="95.646" x2="433.88" y2="82.7464" stroke="#072A39" stroke-width="2.54018"/>
<line x1="392.817" y1="63.9147" x2="407.893" y2="51.9381" stroke="#072A39" stroke-width="2.54018"/>
<line x1="368.078" y1="30.5546" x2="383.876" y2="19.5482" stroke="#072A39" stroke-width="2.54018"/>
<line x1="419.452" y1="94.4416" x2="433.749" y2="81.5459" stroke="#072A39" stroke-width="2.54018"/>
<line x1="392.673" y1="62.6967" x2="407.752" y2="50.7242" stroke="#072A39" stroke-width="2.54018"/>
<line x1="367.965" y1="29.32" x2="383.766" y2="18.3179" stroke="#072A39" stroke-width="2.54018"/>
<line x1="1461.5" y1="19.9639" x2="1445.45" y2="9.3269" stroke="#072A39" stroke-width="2.54018"/>
<line x1="1437.42" y1="53.7918" x2="1422.07" y2="42.168" stroke="#072A39" stroke-width="2.54018"/>
<line x1="1411.27" y1="86.0503" x2="1396.68" y2="73.4856" stroke="#072A39" stroke-width="2.54018"/>
<line x1="1383.14" y1="116.603" x2="1369.37" y2="103.147" stroke="#072A39" stroke-width="2.54018"/>
<line x1="1353.15" y1="145.331" x2="1340.25" y2="131.037" stroke="#072A39" stroke-width="2.54018"/>
<line x1="1321.4" y1="172.103" x2="1309.42" y2="157.027" stroke="#072A39" stroke-width="2.54018"/>
<line x1="1288.04" y1="196.837" x2="1277.04" y2="181.039" stroke="#072A39" stroke-width="2.54018"/>
<line x1="1253.2" y1="219.422" x2="1243.2" y2="202.964" stroke="#072A39" stroke-width="2.54018"/>
<line x1="1216.98" y1="239.773" x2="1208.04" y2="222.72" stroke="#072A39" stroke-width="2.54018"/>
<line x1="1179.58" y1="257.818" x2="1171.73" y2="240.237" stroke="#072A39" stroke-width="2.54018"/>
<line x1="1141.13" y1="273.482" x2="1134.39" y2="255.443" stroke="#072A39" stroke-width="2.54018"/>
<line x1="1101.77" y1="286.706" x2="1096.19" y2="268.28" stroke="#072A39" stroke-width="2.54018"/>
<line x1="1061.65" y1="297.425" x2="1057.23" y2="278.685" stroke="#072A39" stroke-width="2.54018"/>
<line x1="1020.93" y1="305.592" x2="1017.69" y2="286.611" stroke="#072A39" stroke-width="2.54018"/>
<line x1="979.762" y1="311.192" x2="977.728" y2="292.045" stroke="#072A39" stroke-width="2.54018"/>
<line x1="938.339" y1="314.193" x2="937.511" y2="294.957" stroke="#072A39" stroke-width="2.54018"/>
<line x1="896.833" y1="314.613" x2="897.214" y2="295.363" stroke="#072A39" stroke-width="2.54018"/>
<line x1="855.343" y1="312.39" x2="856.933" y2="293.202" stroke="#072A39" stroke-width="2.54018"/>
<line x1="814.119" y1="307.599" x2="816.911" y2="288.548" stroke="#072A39" stroke-width="2.54018"/>
<line x1="773.239" y1="300.203" x2="777.221" y2="281.365" stroke="#072A39" stroke-width="2.54018"/>
<line x1="732.936" y1="290.271" x2="738.093" y2="271.721" stroke="#072A39" stroke-width="2.54018"/>
<line x1="693.311" y1="277.829" x2="699.622" y2="259.639" stroke="#072A39" stroke-width="2.54018"/>
<line x1="654.535" y1="262.903" x2="661.976" y2="245.145" stroke="#072A39" stroke-width="2.54018"/>
<line x1="616.799" y1="245.589" x2="625.34" y2="228.333" stroke="#072A39" stroke-width="2.54018"/>
<line x1="580.211" y1="225.937" x2="589.819" y2="209.252" stroke="#072A39" stroke-width="2.54018"/>
<line x1="544.925" y1="204.018" x2="555.562" y2="187.969" stroke="#072A39" stroke-width="2.54018"/>
<line x1="511.111" y1="179.946" x2="522.734" y2="164.597" stroke="#072A39" stroke-width="2.54018"/>
<line x1="478.839" y1="153.776" x2="491.404" y2="139.186" stroke="#072A39" stroke-width="2.54018"/>
<line x1="448.302" y1="125.648" x2="461.758" y2="111.876" stroke="#072A39" stroke-width="2.54018"/>
<line x1="419.586" y1="95.646" x2="433.88" y2="82.7464" stroke="#072A39" stroke-width="2.54018"/>
<line x1="392.817" y1="63.9147" x2="407.893" y2="51.9381" stroke="#072A39" stroke-width="2.54018"/>
<line x1="368.078" y1="30.5546" x2="383.876" y2="19.5482" stroke="#072A39" stroke-width="2.54018"/>
<line x1="3119.45" y1="543.443" x2="3133.75" y2="530.547" stroke="#072A39" stroke-width="2.54018"/>
<line x1="3092.67" y1="511.698" x2="3107.75" y2="499.725" stroke="#072A39" stroke-width="2.54018"/>
<line x1="3067.97" y1="478.321" x2="3083.77" y2="467.319" stroke="#072A39" stroke-width="2.54018"/>
<line x1="3045.38" y1="443.461" x2="3061.84" y2="433.473" stroke="#072A39" stroke-width="2.54018"/>
<line x1="3025.03" y1="407.272" x2="3042.08" y2="398.338" stroke="#072A39" stroke-width="2.54018"/>
<line x1="3006.99" y1="369.862" x2="3024.57" y2="362.015" stroke="#072A39" stroke-width="2.54018"/>
<line x1="2991.33" y1="331.401" x2="3009.37" y2="324.674" stroke="#072A39" stroke-width="2.54018"/>
<line x1="2978.14" y1="292.019" x2="2996.57" y2="286.438" stroke="#072A39" stroke-width="2.54018"/>
<line x1="2967.43" y1="251.903" x2="2986.17" y2="247.491" stroke="#072A39" stroke-width="2.54018"/>
<line x1="2959.26" y1="211.181" x2="2978.25" y2="207.954" stroke="#072A39" stroke-width="2.54018"/>
<line x1="2953.69" y1="170.018" x2="2972.84" y2="167.989" stroke="#072A39" stroke-width="2.54018"/>
<line x1="2950.69" y1="128.592" x2="2969.93" y2="127.77" stroke="#072A39" stroke-width="2.54018"/>
<line x1="2950.29" y1="87.0778" x2="2969.54" y2="87.4647" stroke="#072A39" stroke-width="2.54018"/>
<line x1="2952.5" y1="45.619" x2="2971.69" y2="47.2138" stroke="#072A39" stroke-width="2.54018"/>
<line x1="2957.32" y1="4.37717" x2="2976.37" y2="7.17363" stroke="#072A39" stroke-width="2.54017"/>
<line x1="3316.8" y1="694.592" x2="3325.35" y2="677.336" stroke="#072A39" stroke-width="2.54018"/>
<line x1="3280.22" y1="674.94" x2="3289.82" y2="658.255" stroke="#072A39" stroke-width="2.54018"/>
<line x1="3244.93" y1="653.02" x2="3255.57" y2="636.971" stroke="#072A39" stroke-width="2.54018"/>
<line x1="3211.12" y1="628.949" x2="3222.74" y2="613.6" stroke="#072A39" stroke-width="2.54018"/>
<line x1="3178.85" y1="602.779" x2="3191.41" y2="588.189" stroke="#072A39" stroke-width="2.54018"/>
<line x1="3148.31" y1="574.65" x2="3161.76" y2="560.879" stroke="#072A39" stroke-width="2.54018"/>
<line x1="3119.59" y1="544.649" x2="3133.88" y2="531.749" stroke="#072A39" stroke-width="2.54018"/>
<line x1="3092.82" y1="512.918" x2="3107.9" y2="500.941" stroke="#072A39" stroke-width="2.54018"/>
<line x1="3068.08" y1="479.557" x2="3083.88" y2="468.551" stroke="#072A39" stroke-width="2.54018"/>
<line x1="3045.49" y1="444.707" x2="3061.94" y2="434.715" stroke="#072A39" stroke-width="2.54018"/>
<line x1="3025.13" y1="408.501" x2="3042.18" y2="399.562" stroke="#072A39" stroke-width="2.54018"/>
<line x1="3007.08" y1="371.101" x2="3024.66" y2="363.25" stroke="#072A39" stroke-width="2.54018"/>
<line x1="2991.4" y1="332.626" x2="3009.44" y2="325.895" stroke="#072A39" stroke-width="2.54018"/>
<line x1="2978.19" y1="293.264" x2="2996.62" y2="287.678" stroke="#072A39" stroke-width="2.54018"/>
<line x1="2967.47" y1="253.145" x2="2986.21" y2="248.727" stroke="#072A39" stroke-width="2.54018"/>
<line x1="2959.3" y1="212.426" x2="2978.28" y2="209.193" stroke="#072A39" stroke-width="2.54018"/>
<line x1="2953.71" y1="171.285" x2="2972.86" y2="169.251" stroke="#072A39" stroke-width="2.54018"/>
<line x1="2950.68" y1="129.852" x2="2969.92" y2="129.024" stroke="#072A39" stroke-width="2.54018"/>
<line x1="2950.29" y1="88.3307" x2="2969.54" y2="88.7123" stroke="#072A39" stroke-width="2.54018"/>
<line x1="2952.5" y1="46.8632" x2="2971.69" y2="48.4528" stroke="#072A39" stroke-width="2.54018"/>
<line x1="2957.31" y1="5.61247" x2="2976.36" y2="8.40378" stroke="#072A39" stroke-width="2.54018"/>
<circle cx="193" cy="193" r="193" transform="matrix(0.866025 0.5 -0.866025 0.5 2456.29 128)" fill="url(#paint14_linear_2091_4261)"/>
<path d="M2219.91 321C2219.91 358.686 2246.37 392.803 2289.14 417.5V527.5C2246.37 502.803 2219.91 468.686 2219.91 431V321Z" fill="url(#paint15_linear_2091_4261)"/>
<path d="M2289.14 417.5C2381.45 470.795 2531.12 470.795 2623.43 417.5V527.5C2531.12 580.795 2381.45 580.795 2289.14 527.5V417.5Z" fill="url(#paint16_linear_2091_4261)"/>
<path d="M2692.66 321C2692.66 358.686 2666.2 392.803 2623.43 417.5V527.5C2666.2 502.803 2692.66 468.686 2692.66 431V321Z" fill="url(#paint17_linear_2091_4261)"/>
<rect width="340" height="80" transform="matrix(0.866025 0.5 -0.866025 0.5 2439.28 258)" fill="#E0ECED"/>
<rect width="340" height="40" transform="matrix(0.866025 0.5 0 1 2370 298)" fill="#92B0BB"/>
<rect width="80" height="40" transform="matrix(0.866025 -0.5 0 1 2664.45 468)" fill="#7994A0"/>
</g>
<defs>
<linearGradient id="paint0_linear_2091_4261" x1="1117.89" y1="1118.6" x2="-58.696" y2="65.0075" gradientUnits="userSpaceOnUse">
<stop stop-color="#F0F5F6"/>
<stop offset="1" stop-color="#F6FAFA"/>
</linearGradient>
<linearGradient id="paint1_linear_2091_4261" x1="968.994" y1="969.611" x2="-50.8782" y2="56.349" gradientUnits="userSpaceOnUse">
<stop stop-color="#DBE9EA"/>
<stop offset="1" stop-color="#F7FBFB"/>
</linearGradient>
<linearGradient id="paint2_linear_2091_4261" x1="887.654" y1="888.22" x2="-46.6074" y2="51.6189" gradientUnits="userSpaceOnUse">
<stop stop-color="#FFD5EF"/>
<stop offset="1" stop-color="#EFBDFD"/>
</linearGradient>
<linearGradient id="paint3_linear_2091_4261" x1="1905.24" y1="710" x2="2090.42" y2="714.292" gradientUnits="userSpaceOnUse">
<stop stop-color="#E4F476"/>
<stop offset="1" stop-color="#F6FFBE"/>
</linearGradient>
<linearGradient id="paint4_linear_2091_4261" x1="2064.51" y1="931.092" x2="2725.37" y2="863.879" gradientUnits="userSpaceOnUse">
<stop stop-color="#E4F476"/>
<stop offset="1" stop-color="#F6FFBE"/>
</linearGradient>
<linearGradient id="paint5_linear_2091_4261" x1="2833.55" y1="708.973" x2="2971.78" y2="706.399" gradientUnits="userSpaceOnUse">
<stop stop-color="#E4F476"/>
<stop offset="1" stop-color="#F6FFBE"/>
</linearGradient>
<linearGradient id="paint6_linear_2091_4261" x1="999.611" y1="1000.25" x2="-52.4858" y2="58.1294" gradientUnits="userSpaceOnUse">
<stop stop-color="#EBF3F3"/>
<stop offset="1" stop-color="#F1F7F7"/>
</linearGradient>
<linearGradient id="paint7_linear_2091_4261" x1="1849.65" y1="500" x2="2057.42" y2="513.52" gradientUnits="userSpaceOnUse">
<stop stop-color="#748F9A"/>
<stop offset="1" stop-color="#E3EDEE"/>
</linearGradient>
<linearGradient id="paint8_linear_2091_4261" x1="2029.01" y1="749.722" x2="2688.52" y2="502.881" gradientUnits="userSpaceOnUse">
<stop stop-color="#76919C"/>
<stop offset="0.935" stop-color="#E7F0F1"/>
</linearGradient>
<linearGradient id="paint9_linear_2091_4261" x1="2895.04" y1="499.588" x2="3050.34" y2="491.468" gradientUnits="userSpaceOnUse">
<stop stop-color="#809AA3"/>
<stop offset="1" stop-color="#E3EDEE"/>
</linearGradient>
<linearGradient id="paint10_linear_2091_4261" x1="799.689" y1="800.198" x2="-41.9886" y2="46.5035" gradientUnits="userSpaceOnUse">
<stop stop-color="#DDEAEB"/>
<stop offset="1" stop-color="#F0F6F6"/>
</linearGradient>
<linearGradient id="paint11_linear_2091_4261" x1="1971.92" y1="426" x2="2137.38" y2="441.505" gradientUnits="userSpaceOnUse">
<stop stop-color="#76919C"/>
<stop offset="1" stop-color="#E7F0F1"/>
</linearGradient>
<linearGradient id="paint12_linear_2091_4261" x1="2115.41" y1="625.878" x2="2525.13" y2="345.55" gradientUnits="userSpaceOnUse">
<stop stop-color="#76919C"/>
<stop offset="1" stop-color="#E7F0F1"/>
</linearGradient>
<linearGradient id="paint13_linear_2091_4261" x1="2808.23" y1="425.771" x2="2932.11" y2="416.444" gradientUnits="userSpaceOnUse">
<stop stop-color="#76919C"/>
<stop offset="1" stop-color="#E7F0F1"/>
</linearGradient>
<linearGradient id="paint14_linear_2091_4261" x1="385.85" y1="386.096" x2="-20.2595" y2="22.438" gradientUnits="userSpaceOnUse">
<stop stop-color="#E0ECED"/>
<stop offset="1" stop-color="#E0ECED"/>
</linearGradient>
<linearGradient id="paint15_linear_2091_4261" x1="2219.91" y1="321" x2="2300.21" y2="325.395" gradientUnits="userSpaceOnUse">
<stop stop-color="#76919C"/>
<stop offset="1" stop-color="#E4EDEF"/>
</linearGradient>
<linearGradient id="paint16_linear_2091_4261" x1="2289.14" y1="417.363" x2="2556.51" y2="339.178" gradientUnits="userSpaceOnUse">
<stop stop-color="#76919C"/>
<stop offset="1" stop-color="#E7F0F1"/>
</linearGradient>
<linearGradient id="paint17_linear_2091_4261" x1="2623.43" y1="320.811" x2="2683.42" y2="318.172" gradientUnits="userSpaceOnUse">
<stop stop-color="#76919C"/>
<stop offset="1" stop-color="#E7F0F1"/>
</linearGradient>
<clipPath id="clip0_2091_4261">
<rect width="3330" height="1500" fill="white"/>
</clipPath>
</defs>
</svg>
