<svg width="3330" height="1500" viewBox="0 0 3330 1500" fill="none" xmlns="http://www.w3.org/2000/svg">
<g clip-path="url(#clip0_2091_4261)">
<rect width="3330" height="1500" fill="#EBF3F4"/>
<path d="M301.852 833.609C292.737 833.609 284.273 832.047 276.461 828.922C268.648 825.536 261.487 820.589 254.977 814.078C248.466 807.568 243.518 800.406 240.133 792.594C237.008 784.781 235.445 776.318 235.445 767.203C235.445 765.641 235.445 764.208 235.445 762.906C235.445 761.604 235.445 760.302 235.445 759C235.445 749.885 237.008 741.292 240.133 733.219C243.518 725.406 248.466 718.245 254.977 711.734C261.487 705.224 268.648 700.406 276.461 697.281C284.273 693.896 292.737 692.203 301.852 692.203C319.299 692.203 336.747 692.203 354.195 692.203C371.383 692.203 388.701 692.203 406.148 692.203C412.138 692.203 417.867 692.984 423.336 694.547C428.544 695.849 433.753 698.062 438.961 701.188C444.43 704.052 449.117 707.438 453.023 711.344C456.93 715.25 460.445 719.807 463.57 725.016C464.612 726.578 465.263 728.271 465.523 730.094C465.523 730.875 465.393 731.656 465.133 732.438C464.612 735.302 463.18 737.385 460.836 738.688C458.232 739.99 455.628 740.25 453.023 739.469C450.419 738.948 448.466 737.385 447.164 734.781C444.82 731.135 442.346 727.88 439.742 725.016C436.878 722.411 433.492 719.938 429.586 717.594C425.94 715.51 422.164 713.948 418.258 712.906C414.352 711.865 410.315 711.474 406.148 711.734C388.701 711.734 371.383 711.604 354.195 711.344C336.747 711.344 319.299 711.474 301.852 711.734C295.341 711.734 289.352 712.776 283.883 714.859C278.154 717.203 273.076 720.719 268.648 725.406C263.961 730.094 260.445 735.172 258.102 740.641C255.758 746.37 254.586 752.49 254.586 759C254.586 760.302 254.586 761.604 254.586 762.906C254.586 764.208 254.586 765.641 254.586 767.203C254.586 773.714 255.758 779.703 258.102 785.172C260.445 790.901 263.961 795.979 268.648 800.406C273.076 805.094 278.154 808.609 283.883 810.953C289.352 813.297 295.341 814.469 301.852 814.469C319.299 814.469 336.747 814.469 354.195 814.469C371.383 814.469 388.701 814.469 406.148 814.469C410.315 814.469 414.221 814.078 417.867 813.297C421.513 812.255 425.159 810.693 428.805 808.609C432.451 806.786 435.706 804.573 438.57 801.969C441.174 799.365 443.648 796.37 445.992 792.984C447.555 791.161 449.638 789.99 452.242 789.469C454.586 789.208 456.799 789.729 458.883 791.031C460.966 792.333 462.268 794.286 462.789 796.891C463.57 799.234 463.31 801.448 462.008 803.531C458.883 808.479 455.367 812.776 451.461 816.422C447.555 819.807 442.997 822.932 437.789 825.797C432.581 828.661 427.503 830.615 422.555 831.656C417.346 832.958 411.878 833.609 406.148 833.609C388.701 833.609 371.383 833.609 354.195 833.609C336.747 833.609 319.299 833.609 301.852 833.609ZM547.539 833.609C530.091 833.609 515.117 827.099 502.617 814.078C490.117 801.057 483.867 785.302 483.867 766.812C483.867 752.229 483.867 730.484 483.867 701.578C483.867 698.714 484.779 696.37 486.602 694.547C488.424 692.724 490.638 691.812 493.242 691.812C496.107 691.812 498.451 692.724 500.273 694.547C502.096 696.37 503.008 698.714 503.008 701.578C503.008 712.516 503.008 723.323 503.008 734C503.008 744.938 503.008 755.875 503.008 766.812C503.008 779.833 507.435 791.031 516.289 800.406C524.883 809.521 535.43 814.078 547.93 814.078C569.023 814.078 600.664 814.078 642.852 814.078C655.352 814.078 665.898 809.521 674.492 800.406C683.346 791.031 687.773 779.833 687.773 766.812C687.773 752.229 687.773 730.484 687.773 701.578C687.773 698.714 688.685 696.37 690.508 694.547C692.331 692.724 694.674 691.812 697.539 691.812C700.143 691.812 702.357 692.724 704.18 694.547C706.003 696.37 706.914 698.714 706.914 701.578C706.914 712.516 706.914 723.323 706.914 734C706.914 744.938 706.914 755.875 706.914 766.812C706.914 785.302 700.664 801.057 688.164 814.078C675.664 827.099 660.56 833.609 642.852 833.609C626.966 833.609 611.081 833.609 595.195 833.609C579.31 833.609 563.424 833.609 547.539 833.609ZM980.336 816.031C982.159 817.333 983.461 818.896 984.242 820.719C984.503 821.76 984.633 822.932 984.633 824.234C984.633 825.016 984.503 825.927 984.242 826.969C983.721 829.052 982.549 830.745 980.727 832.047C979.164 833.089 977.211 833.609 974.867 833.609C974.607 833.609 974.216 833.609 973.695 833.609C973.174 833.609 972.654 833.479 972.133 833.219C971.612 833.219 971.221 833.089 970.961 832.828C970.44 832.568 970.049 832.307 969.789 832.047C960.414 825.536 951.169 819.026 942.055 812.516C932.94 806.005 923.826 799.495 914.711 792.984C914.451 792.984 914.32 792.854 914.32 792.594C914.06 792.594 913.93 792.464 913.93 792.203C913.669 792.203 913.539 792.073 913.539 791.812C913.279 791.812 913.148 791.812 913.148 791.812C882.94 791.812 837.758 791.812 777.602 791.812C777.602 797.281 777.602 802.62 777.602 807.828C777.602 813.297 777.602 818.766 777.602 824.234C777.602 827.099 776.69 829.443 774.867 831.266C772.784 833.089 770.44 834 767.836 834C765.232 834 763.018 833.089 761.195 831.266C759.372 829.443 758.461 827.099 758.461 824.234C758.461 804.182 758.461 784 758.461 763.688C758.461 743.635 758.461 723.453 758.461 703.141C758.461 701.839 758.591 700.536 758.852 699.234C759.372 698.193 760.154 697.151 761.195 696.109C761.977 695.328 763.018 694.677 764.32 694.156C765.362 693.635 766.534 693.375 767.836 693.375C795.961 693.375 824.086 693.375 852.211 693.375C861.586 693.375 870.961 693.375 880.336 693.375C899.086 693.375 917.836 693.375 936.586 693.375C942.836 693.375 948.565 694.547 953.773 696.891C959.242 698.974 964.06 702.229 968.227 706.656C972.654 711.083 976.039 715.901 978.383 721.109C980.466 726.578 981.508 732.307 981.508 738.297C981.508 739.859 981.508 741.292 981.508 742.594C981.508 743.896 981.508 745.198 981.508 746.5C981.508 751.969 980.727 757.047 979.164 761.734C977.341 766.161 974.737 770.458 971.352 774.625C967.966 779.052 964.19 782.438 960.023 784.781C955.857 787.385 951.169 789.339 945.961 790.641C951.69 794.807 957.419 798.974 963.148 803.141C968.878 807.307 974.607 811.604 980.336 816.031ZM777.602 712.516C777.602 725.797 777.602 745.589 777.602 771.891C804.164 771.891 830.596 771.891 856.898 771.891C883.461 771.891 910.023 771.891 936.586 771.891C940.232 771.891 943.487 771.24 946.352 769.938C949.477 768.896 952.211 767.073 954.555 764.469C957.159 761.865 959.112 759.13 960.414 756.266C961.716 753.141 962.367 749.755 962.367 746.109C962.367 744.807 962.367 743.505 962.367 742.203C962.367 740.901 962.367 739.599 962.367 738.297C962.367 734.651 961.716 731.396 960.414 728.531C959.112 725.406 957.289 722.542 954.945 719.938C952.341 717.594 949.477 715.771 946.352 714.469C943.487 713.167 940.232 712.516 936.586 712.516C910.023 712.516 883.461 712.516 856.898 712.516C830.596 712.516 804.164 712.516 777.602 712.516ZM1197.51 693.375C1200.11 693.375 1202.46 694.286 1204.54 696.109C1206.36 697.932 1207.27 700.146 1207.27 702.75C1207.27 705.615 1206.36 707.958 1204.54 709.781C1202.46 711.604 1200.11 712.516 1197.51 712.516C1177.72 712.516 1148.03 712.516 1108.45 712.516C1108.45 731.266 1108.45 750.016 1108.45 768.766C1108.45 787.255 1108.45 805.875 1108.45 824.625C1108.45 827.229 1107.53 829.443 1105.71 831.266C1103.89 833.349 1101.67 834.391 1099.07 834.391C1096.47 834.391 1094.12 833.349 1092.04 831.266C1090.22 829.443 1089.3 827.229 1089.3 824.625C1089.3 799.625 1089.3 762.255 1089.3 712.516C1074.46 712.516 1059.62 712.516 1044.77 712.516C1029.93 712.516 1015.09 712.516 1000.24 712.516C997.638 712.516 995.424 711.604 993.602 709.781C991.779 707.958 990.867 705.615 990.867 702.75C990.867 700.146 991.779 697.932 993.602 696.109C995.424 694.286 997.638 693.375 1000.24 693.375C1033.32 693.375 1066.26 693.375 1099.07 693.375C1131.88 693.375 1164.7 693.375 1197.51 693.375ZM1399.84 692.203C1417.54 692.203 1432.65 698.714 1445.15 711.734C1457.65 724.755 1463.9 740.38 1463.9 758.609C1463.9 769.547 1463.9 780.484 1463.9 791.422C1463.9 802.359 1463.9 813.297 1463.9 824.234C1463.9 826.839 1462.99 829.052 1461.16 830.875C1459.08 832.958 1456.74 834 1454.13 834C1451.53 834 1449.32 832.958 1447.49 830.875C1445.41 829.052 1444.37 826.839 1444.37 824.234C1444.37 817.724 1444.37 807.958 1444.37 794.938C1403.48 794.938 1342.02 794.938 1259.99 794.938C1259.99 799.885 1259.99 804.833 1259.99 809.781C1259.99 814.469 1259.99 819.286 1259.99 824.234C1259.99 826.839 1258.95 829.052 1256.87 830.875C1255.04 832.958 1252.83 834 1250.23 834C1247.62 834 1245.41 832.958 1243.59 830.875C1241.5 829.052 1240.46 826.839 1240.46 824.234C1240.46 809.651 1240.46 787.776 1240.46 758.609C1240.46 740.38 1246.71 724.755 1259.21 711.734C1271.71 698.714 1286.82 692.203 1304.52 692.203C1320.41 692.203 1336.29 692.203 1352.18 692.203C1368.07 692.203 1383.95 692.203 1399.84 692.203ZM1260.38 775.797C1301.53 775.797 1363.12 775.797 1445.15 775.797C1445.15 771.891 1445.15 766.161 1445.15 758.609C1445.15 745.589 1440.85 734.521 1432.26 725.406C1423.4 716.031 1412.86 711.344 1400.62 711.344C1379.26 711.344 1347.49 711.344 1305.3 711.344C1292.8 711.344 1282.26 716.031 1273.66 725.406C1264.81 734.521 1260.38 745.589 1260.38 758.609C1260.38 761.474 1260.38 764.339 1260.38 767.203C1260.38 770.068 1260.38 772.932 1260.38 775.797Z" fill="#3F5762"/>
<path d="M264.48 952.4L279.74 909H290.17V958H283.87V914.32L268.54 958H260.35L244.74 914.46V958H238.44V909H249.01L264.48 952.4ZM307.663 958.7C301.153 958.7 296.253 954.29 296.253 948.34C296.253 940.43 303.183 938.05 308.783 937.63L318.863 936.79V935.6C318.863 930.35 315.923 927.34 311.093 927.34H310.603C306.683 927.34 303.323 929.23 302.903 933.01H296.953C297.373 926.64 303.113 922.3 310.883 922.3C320.123 922.3 324.813 928.46 324.813 935.6V950.3C324.813 952.4 324.813 955.55 325.163 958H319.563C319.283 956.32 319.213 953.24 319.213 952.4C317.813 955.55 313.403 958.7 307.663 958.7ZM308.293 953.66H308.923C313.403 953.66 318.863 949.95 318.863 945.4V941.48L309.693 942.18C305.283 942.53 302.203 944.63 302.203 948.06C302.203 951.28 304.793 953.66 308.293 953.66ZM337.717 958H331.767V909H337.717V939.1L354.167 923H362.077L347.517 936.93L362.777 958H355.427L343.247 940.99L337.717 946.38V958ZM371.686 916.7H365.036V909.56H371.686V916.7ZM371.336 958H365.386V923H371.336V958ZM384.516 958H378.566V923H384.516V928.25C386.546 924.82 390.396 922.3 396.066 922.3C403.766 922.3 408.526 927.06 408.526 934.76V958H402.576V936.16C402.576 930.56 400.266 927.34 395.086 927.34H394.526C388.716 927.34 384.516 932.17 384.516 939.1V958ZM428.766 973.4C418.896 973.4 413.366 968.92 412.666 962.69H418.616C419.386 966.47 423.306 968.36 428.416 968.36H429.116C435.066 968.36 439.686 965.14 439.686 957.3V952.19C437.796 955.34 434.156 958 428.766 958C420.506 958 413.366 952.19 413.366 940.29C413.366 928.39 420.366 922.3 428.766 922.3C434.156 922.3 438.006 924.96 439.686 928.11V923H445.636V957.93C445.636 966.75 439.406 973.4 428.766 973.4ZM429.046 952.96H429.606C434.926 952.96 439.686 948.34 439.686 940.29C439.686 932.24 435.206 927.34 429.886 927.34H429.256C423.866 927.34 419.316 931.54 419.316 940.29C419.316 949.04 423.586 952.96 429.046 952.96ZM484.451 958H476.261C471.501 958 468.911 955.55 468.911 950.79V928.11H461.071V923H468.911V911.66H474.861V923H483.401V928.11H474.861V949.95C474.861 952.05 475.561 952.75 477.661 952.75H484.451V958ZM494.041 958H488.091V923H493.691V930.77C495.161 925.45 499.431 922.65 504.051 922.65H507.201V928.32H504.401C497.961 928.32 494.041 932.94 494.041 940.5V958ZM522.119 958.7C514.279 958.7 510.149 953.45 510.149 946.1V923H516.099V944.7C516.099 950.65 518.549 953.66 523.589 953.66H524.219C528.909 953.66 533.459 949.25 533.459 941.9V923H539.409V958H533.459V951.35C531.989 955.48 528.069 958.7 522.119 958.7ZM565.826 958H557.636C552.876 958 550.286 955.55 550.286 950.79V928.11H542.446V923H550.286V911.66H556.236V923H564.776V928.11H556.236V949.95C556.236 952.05 556.936 952.75 559.036 952.75H565.826V958ZM575.416 958H569.466V909H575.416V928.25C577.586 924.75 581.366 922.3 587.036 922.3C595.016 922.3 599.426 927.34 599.426 934.69V958H593.476V936.09C593.476 930.56 591.166 927.34 585.986 927.34H585.356C580.246 927.34 575.416 931.47 575.416 938.61V958ZM626.043 958H620.093V923H626.043V928.11C628.143 924.82 631.783 922.3 636.893 922.3C641.933 922.3 646.133 924.47 648.233 929.09C650.893 924.26 655.373 922.3 660.063 922.3C667.693 922.3 672.453 927.06 672.453 934.76V958H666.503V936.16C666.503 930.56 664.193 927.34 659.083 927.34H658.593C653.413 927.34 649.213 932.17 649.213 939.1V958H643.263V936.16C643.263 930.56 641.023 927.34 635.913 927.34H635.353C630.173 927.34 626.043 932.17 626.043 939.1V958ZM693.765 958.7C684.455 958.7 677.245 951.35 677.245 940.5C677.245 929.65 684.455 922.3 693.765 922.3C703.075 922.3 710.355 929.65 710.355 940.5C710.355 951.35 703.075 958.7 693.765 958.7ZM693.485 953.66H694.115C699.995 953.66 704.405 948.83 704.405 940.5C704.405 932.17 699.995 927.34 694.115 927.34H693.485C687.605 927.34 683.195 932.17 683.195 940.5C683.195 948.83 687.605 953.66 693.485 953.66ZM721.445 958H715.495V923H721.095V930.77C722.565 925.45 726.835 922.65 731.455 922.65H734.605V928.32H731.805C725.365 928.32 721.445 932.94 721.445 940.5V958ZM750.675 958.7C741.995 958.7 734.505 952.61 734.505 940.43C734.505 928.25 742.345 922.3 750.535 922.3C759.495 922.3 765.165 928.74 765.165 937.84V941.34H740.455C740.735 949.95 745.845 953.66 750.605 953.66H751.165C755.015 953.66 758.235 951.77 759.145 947.78H765.095C763.765 954.78 757.885 958.7 750.675 958.7ZM740.735 936.51H759.215C758.935 930.42 755.365 927.34 750.815 927.34H750.255C746.335 927.34 741.925 929.58 740.735 936.51ZM790.174 972H784.224V923H790.174V928.11C791.994 924.75 796.964 922.3 801.724 922.3C810.614 922.3 816.984 929.09 816.984 940.5C816.984 951.91 810.124 958.7 801.304 958.7C796.474 958.7 791.994 956.25 790.174 952.89V972ZM800.464 953.66H800.954C806.974 953.66 811.034 948.62 811.034 940.5C811.034 932.38 806.974 927.34 800.954 927.34H800.464C794.654 927.34 790.174 932.38 790.174 940.5C790.174 948.62 794.654 953.66 800.464 953.66ZM828.1 958H822.15V923H827.75V930.77C829.22 925.45 833.49 922.65 838.11 922.65H841.26V928.32H838.46C832.02 928.32 828.1 932.94 828.1 940.5V958ZM857.609 958.7C848.299 958.7 841.089 951.35 841.089 940.5C841.089 929.65 848.299 922.3 857.609 922.3C866.919 922.3 874.199 929.65 874.199 940.5C874.199 951.35 866.919 958.7 857.609 958.7ZM857.329 953.66H857.959C863.839 953.66 868.249 948.83 868.249 940.5C868.249 932.17 863.839 927.34 857.959 927.34H857.329C851.449 927.34 847.039 932.17 847.039 940.5C847.039 948.83 851.449 953.66 857.329 953.66ZM892.639 973.4C882.769 973.4 877.239 968.92 876.539 962.69H882.489C883.259 966.47 887.179 968.36 892.289 968.36H892.989C898.939 968.36 903.559 965.14 903.559 957.3V952.19C901.669 955.34 898.029 958 892.639 958C884.379 958 877.239 952.19 877.239 940.29C877.239 928.39 884.239 922.3 892.639 922.3C898.029 922.3 901.879 924.96 903.559 928.11V923H909.509V957.93C909.509 966.75 903.279 973.4 892.639 973.4ZM892.919 952.96H893.479C898.799 952.96 903.559 948.34 903.559 940.29C903.559 932.24 899.079 927.34 893.759 927.34H893.129C887.739 927.34 883.189 931.54 883.189 940.29C883.189 949.04 887.459 952.96 892.919 952.96ZM922.668 958H916.718V923H922.318V930.77C923.788 925.45 928.058 922.65 932.678 922.65H935.828V928.32H933.028C926.588 928.32 922.668 932.94 922.668 940.5V958ZM947.684 958.7C941.174 958.7 936.274 954.29 936.274 948.34C936.274 940.43 943.204 938.05 948.804 937.63L958.884 936.79V935.6C958.884 930.35 955.944 927.34 951.114 927.34H950.624C946.704 927.34 943.344 929.23 942.924 933.01H936.974C937.394 926.64 943.134 922.3 950.904 922.3C960.144 922.3 964.834 928.46 964.834 935.6V950.3C964.834 952.4 964.834 955.55 965.184 958H959.584C959.304 956.32 959.234 953.24 959.234 952.4C957.834 955.55 953.424 958.7 947.684 958.7ZM948.314 953.66H948.944C953.424 953.66 958.884 949.95 958.884 945.4V941.48L949.714 942.18C945.304 942.53 942.224 944.63 942.224 948.06C942.224 951.28 944.814 953.66 948.314 953.66ZM977.738 958H971.788V923H977.738V928.11C979.838 924.82 983.478 922.3 988.588 922.3C993.628 922.3 997.828 924.47 999.928 929.09C1002.59 924.26 1007.07 922.3 1011.76 922.3C1019.39 922.3 1024.15 927.06 1024.15 934.76V958H1018.2V936.16C1018.2 930.56 1015.89 927.34 1010.78 927.34H1010.29C1005.11 927.34 1000.91 932.17 1000.91 939.1V958H994.958V936.16C994.958 930.56 992.718 927.34 987.608 927.34H987.048C981.868 927.34 977.738 932.17 977.738 939.1V958ZM1037.06 958H1031.11V923H1037.06V928.11C1039.16 924.82 1042.8 922.3 1047.91 922.3C1052.95 922.3 1057.15 924.47 1059.25 929.09C1061.91 924.26 1066.39 922.3 1071.08 922.3C1078.71 922.3 1083.47 927.06 1083.47 934.76V958H1077.52V936.16C1077.52 930.56 1075.21 927.34 1070.1 927.34H1069.61C1064.43 927.34 1060.23 932.17 1060.23 939.1V958H1054.28V936.16C1054.28 930.56 1052.04 927.34 1046.93 927.34H1046.37C1041.19 927.34 1037.06 932.17 1037.06 939.1V958ZM1099.74 958.7C1093.23 958.7 1088.33 954.29 1088.33 948.34C1088.33 940.43 1095.26 938.05 1100.86 937.63L1110.94 936.79V935.6C1110.94 930.35 1108 927.34 1103.17 927.34H1102.68C1098.76 927.34 1095.4 929.23 1094.98 933.01H1089.03C1089.45 926.64 1095.19 922.3 1102.96 922.3C1112.2 922.3 1116.89 928.46 1116.89 935.6V950.3C1116.89 952.4 1116.89 955.55 1117.24 958H1111.64C1111.36 956.32 1111.29 953.24 1111.29 952.4C1109.89 955.55 1105.48 958.7 1099.74 958.7ZM1100.37 953.66H1101C1105.48 953.66 1110.94 949.95 1110.94 945.4V941.48L1101.77 942.18C1097.36 942.53 1094.28 944.63 1094.28 948.06C1094.28 951.28 1096.87 953.66 1100.37 953.66ZM1141.35 958.7C1136.59 958.7 1131.62 956.25 1129.8 952.89V958H1123.85V909H1129.8V928.11C1131.62 924.75 1136.1 922.3 1140.93 922.3C1149.75 922.3 1156.61 929.09 1156.61 940.5C1156.61 951.91 1150.24 958.7 1141.35 958.7ZM1140.09 953.66H1140.58C1146.6 953.66 1150.66 948.62 1150.66 940.5C1150.66 932.38 1146.6 927.34 1140.58 927.34H1140.09C1134.28 927.34 1129.8 932.38 1129.8 940.5C1129.8 948.62 1134.28 953.66 1140.09 953.66ZM1167.72 958H1161.77V909H1167.72V958ZM1189.02 958.7C1180.34 958.7 1172.85 952.61 1172.85 940.43C1172.85 928.25 1180.69 922.3 1188.88 922.3C1197.84 922.3 1203.51 928.74 1203.51 937.84V941.34H1178.8C1179.08 949.95 1184.19 953.66 1188.95 953.66H1189.51C1193.36 953.66 1196.58 951.77 1197.49 947.78H1203.44C1202.11 954.78 1196.23 958.7 1189.02 958.7ZM1179.08 936.51H1197.56C1197.28 930.42 1193.71 927.34 1189.16 927.34H1188.6C1184.68 927.34 1180.27 929.58 1179.08 936.51ZM1208.36 967.24H1205.84V963.25H1208.15C1210.95 963.25 1212.35 961.85 1212.35 959.05V958H1208.29V950.09H1216.2V959.4C1216.2 964.51 1213.33 967.24 1208.36 967.24ZM1246.17 958H1240.22V928.11H1232.38V923H1240.22V916C1240.22 911.24 1242.53 909 1247.36 909H1256.81V914.18H1248.97C1246.87 914.18 1246.17 914.88 1246.17 916.98V923H1255.06V928.11H1246.17V958ZM1271.76 958.7C1262.45 958.7 1255.24 951.35 1255.24 940.5C1255.24 929.65 1262.45 922.3 1271.76 922.3C1281.07 922.3 1288.35 929.65 1288.35 940.5C1288.35 951.35 1281.07 958.7 1271.76 958.7ZM1271.48 953.66H1272.11C1277.99 953.66 1282.4 948.83 1282.4 940.5C1282.4 932.17 1277.99 927.34 1272.11 927.34H1271.48C1265.6 927.34 1261.19 932.17 1261.19 940.5C1261.19 948.83 1265.6 953.66 1271.48 953.66ZM1299.44 958H1293.49V923H1299.09V930.77C1300.56 925.45 1304.83 922.65 1309.45 922.65H1312.6V928.32H1309.8C1303.36 928.32 1299.44 932.94 1299.44 940.5V958ZM1341.98 958.7C1333.3 958.7 1325.81 952.61 1325.81 940.43C1325.81 928.25 1333.65 922.3 1341.84 922.3C1350.8 922.3 1356.47 928.74 1356.47 937.84V941.34H1331.76C1332.04 949.95 1337.15 953.66 1341.91 953.66H1342.47C1346.32 953.66 1349.54 951.77 1350.45 947.78H1356.4C1355.07 954.78 1349.19 958.7 1341.98 958.7ZM1332.04 936.51H1350.52C1350.24 930.42 1346.67 927.34 1342.12 927.34H1341.56C1337.64 927.34 1333.23 929.58 1332.04 936.51ZM1373.72 952.26L1384.29 923H1390.38L1377.29 958H1370.01L1356.92 923H1363.08L1373.72 952.26ZM1406.69 958.7C1398.01 958.7 1390.52 952.61 1390.52 940.43C1390.52 928.25 1398.36 922.3 1406.55 922.3C1415.51 922.3 1421.18 928.74 1421.18 937.84V941.34H1396.47C1396.75 949.95 1401.86 953.66 1406.62 953.66H1407.18C1411.03 953.66 1414.25 951.77 1415.16 947.78H1421.11C1419.78 954.78 1413.9 958.7 1406.69 958.7ZM1396.75 936.51H1415.23C1414.95 930.42 1411.38 927.34 1406.83 927.34H1406.27C1402.35 927.34 1397.94 929.58 1396.75 936.51ZM1432.47 958H1426.52V923H1432.12V930.77C1433.59 925.45 1437.86 922.65 1442.48 922.65H1445.63V928.32H1442.83C1436.39 928.32 1432.47 932.94 1432.47 940.5V958ZM1473.7 923H1479.86L1465.44 957.09V963.53C1465.44 968.22 1463.13 970.46 1458.37 970.46H1447.1V965.21H1456.97C1459.07 965.21 1459.77 964.51 1459.77 962.41V957.3L1445 923H1451.37L1462.64 949.6L1473.7 923ZM1496.14 958.7C1486.83 958.7 1479.62 951.35 1479.62 940.5C1479.62 929.65 1486.83 922.3 1496.14 922.3C1505.45 922.3 1512.73 929.65 1512.73 940.5C1512.73 951.35 1505.45 958.7 1496.14 958.7ZM1495.86 953.66H1496.49C1502.37 953.66 1506.78 948.83 1506.78 940.5C1506.78 932.17 1502.37 927.34 1496.49 927.34H1495.86C1489.98 927.34 1485.57 932.17 1485.57 940.5C1485.57 948.83 1489.98 953.66 1495.86 953.66ZM1523.82 958H1517.87V923H1523.82V928.25C1525.85 924.82 1529.7 922.3 1535.37 922.3C1543.07 922.3 1547.83 927.06 1547.83 934.76V958H1541.88V936.16C1541.88 930.56 1539.57 927.34 1534.39 927.34H1533.83C1528.02 927.34 1523.82 932.17 1523.82 939.1V958ZM1568.84 958.7C1560.16 958.7 1552.67 952.61 1552.67 940.43C1552.67 928.25 1560.51 922.3 1568.7 922.3C1577.66 922.3 1583.33 928.74 1583.33 937.84V941.34H1558.62C1558.9 949.95 1564.01 953.66 1568.77 953.66H1569.33C1573.18 953.66 1576.4 951.77 1577.31 947.78H1583.26C1581.93 954.78 1576.05 958.7 1568.84 958.7ZM1558.9 936.51H1577.38C1577.1 930.42 1573.53 927.34 1568.98 927.34H1568.42C1564.5 927.34 1560.09 929.58 1558.9 936.51ZM1595.94 958H1587.96V950.09H1595.94V958Z" fill="#3F5762"/>
<circle cx="559.161" cy="559.161" r="559.161" transform="matrix(0.866025 0.5 -0.866025 0.5 2449.5 1161)" fill="url(#paint0_linear_2091_4261)"/>
<circle cx="484.686" cy="484.686" r="484.686" transform="matrix(0.866025 0.5 -0.866025 0.5 2448.5 1161)" fill="url(#paint1_linear_2091_4261)"/>
<circle cx="444" cy="444" r="444" transform="matrix(0.866025 0.5 -0.866025 0.5 2449.03 266)" fill="url(#paint2_linear_2091_4261)"/>
<path d="M1905.24 710C1905.24 796.696 1966.11 875.185 2064.52 932V1832C1966.11 1775.19 1905.24 1696.7 1905.24 1610V710Z" fill="url(#paint3_linear_2091_4261)"/>
<path d="M2064.52 932C2276.88 1054.61 2621.18 1054.61 2833.55 932V1832C2621.18 1954.61 2276.88 1954.61 2064.52 1832V932Z" fill="url(#paint4_linear_2091_4261)"/>
<path d="M2992.82 710C2992.82 796.696 2931.95 875.185 2833.55 932V1832C2931.95 1775.19 2992.82 1696.7 2992.82 1610V710Z" fill="url(#paint5_linear_2091_4261)"/>
<circle cx="500" cy="500" r="500" transform="matrix(0.866025 0.5 -0.866025 0.5 2462.03 0)" fill="url(#paint6_linear_2091_4261)"/>
<path d="M1849.65 500C1849.65 597.631 1918.19 686.019 2029.01 750V950C1918.19 886.019 1849.65 797.631 1849.65 700V500Z" fill="url(#paint7_linear_2091_4261)"/>
<path d="M2029.01 750C2268.16 888.071 2655.89 888.071 2895.04 750V950C2655.89 1088.07 2268.16 1088.07 2029.01 950V750Z" fill="url(#paint8_linear_2091_4261)"/>
<path d="M3074.4 500C3074.4 597.631 3005.86 686.019 2895.04 750V950C3005.86 886.019 3074.4 797.631 3074.4 700V500Z" fill="url(#paint9_linear_2091_4261)"/>
<circle cx="400" cy="400" r="400" transform="matrix(0.866025 0.5 -0.866025 0.5 2461.82 26)" fill="url(#paint10_linear_2091_4261)"/>
<path d="M1971.92 426C1971.92 504.105 2026.76 574.816 2115.41 626V676C2026.76 624.816 1971.92 554.105 1971.92 476V426Z" fill="url(#paint11_linear_2091_4261)"/>
<path d="M2115.41 626C2306.73 736.457 2616.91 736.457 2808.23 626V676C2616.91 786.457 2306.73 786.457 2115.41 676V626Z" fill="url(#paint12_linear_2091_4261)"/>
<path d="M2951.72 426C2951.72 504.105 2896.88 574.816 2808.23 626V676C2896.88 624.816 2951.72 554.105 2951.72 476V426Z" fill="url(#paint13_linear_2091_4261)"/>
<rect width="30.0222" height="638.476" transform="matrix(0.866025 0.5 0 1 2052 1067)" fill="#C8D663"/>
<rect width="30.0222" height="638.476" transform="matrix(0.866025 -0.5 0 1 2821 1082.01)" fill="#C8D663"/>
<rect x="2449" y="1131" width="30.0222" height="638.476" fill="#C8D663"/>
<rect x="2435" y="1389" width="57" height="121" fill="#939E46"/>
<rect width="57" height="121" transform="matrix(0.866025 -0.5 0 1 2809 1189.5)" fill="#939E46"/>
<path d="M2076.29 1014.78C2080.12 1017 2083.39 1020.51 2086.1 1025.33C2088.81 1030.15 2090.16 1034.83 2090.16 1039.39C2090.16 1042.13 2090.16 1044.86 2090.16 1047.59C2090.16 1050.33 2090.16 1053.06 2090.16 1055.8C2090.16 1056.45 2089.96 1056.89 2089.57 1057.12C2089.12 1057.38 2088.61 1057.34 2088.05 1057.02C2087.48 1056.69 2087 1056.16 2086.61 1055.41C2086.16 1054.69 2085.93 1054.01 2085.93 1053.36C2085.93 1051.73 2085.93 1049.29 2085.93 1046.03C2077.08 1040.92 2063.77 1033.24 2046.01 1022.99C2046.01 1024.22 2046.01 1025.46 2046.01 1026.7C2046.01 1027.87 2046.01 1029.07 2046.01 1030.31C2046.01 1030.96 2045.79 1031.38 2045.34 1031.58C2044.94 1031.87 2044.46 1031.86 2043.9 1031.53C2043.34 1031.2 2042.86 1030.67 2042.46 1029.92C2042.01 1029.2 2041.78 1028.52 2041.78 1027.87C2041.78 1024.22 2041.78 1018.75 2041.78 1011.46C2041.78 1006.9 2043.14 1003.78 2045.84 1002.09C2048.55 1000.39 2051.82 1000.65 2055.65 1002.87C2059.09 1004.85 2062.53 1006.84 2065.97 1008.83C2069.41 1010.81 2072.85 1012.8 2076.29 1014.78ZM2046.1 1018.25C2055.01 1023.39 2068.34 1031.09 2086.1 1041.34C2086.1 1040.37 2086.1 1038.94 2086.1 1037.05C2086.1 1033.79 2085.17 1030.49 2083.31 1027.14C2081.39 1023.69 2079.11 1021.19 2076.46 1019.67C2071.84 1017 2064.96 1013.02 2055.82 1007.75C2053.12 1006.19 2050.83 1006.04 2048.97 1007.31C2047.06 1008.48 2046.1 1010.7 2046.1 1013.95C2046.1 1014.67 2046.1 1015.38 2046.1 1016.1C2046.1 1016.82 2046.1 1017.53 2046.1 1018.25Z" fill="black"/>
<path d="M2495.48 1083.17C2495.48 1083.89 2495.41 1084.57 2495.28 1085.22C2495.15 1085.81 2494.96 1086.43 2494.7 1087.08C2494.37 1087.73 2494.05 1088.32 2493.72 1088.84C2493.33 1089.42 2492.91 1089.94 2492.45 1090.4C2492.91 1090.79 2493.33 1091.24 2493.72 1091.77C2494.05 1092.22 2494.34 1092.74 2494.6 1093.33C2494.93 1093.91 2495.12 1094.47 2495.19 1094.99C2495.32 1095.57 2495.38 1096.19 2495.38 1096.84C2495.38 1097.1 2495.38 1097.4 2495.38 1097.72C2495.38 1097.98 2495.38 1098.24 2495.38 1098.5C2495.38 1099.68 2495.19 1100.75 2494.79 1101.73C2494.4 1102.7 2493.79 1103.61 2492.94 1104.46C2492.16 1105.24 2491.28 1105.86 2490.3 1106.32C2489.26 1106.71 2488.19 1106.9 2487.08 1106.9C2479.59 1106.9 2472.07 1106.9 2464.52 1106.9C2457.03 1106.9 2449.55 1106.9 2442.06 1106.9C2441.74 1106.9 2441.41 1106.84 2441.08 1106.71C2440.82 1106.58 2440.56 1106.41 2440.3 1106.22C2440.11 1105.96 2439.94 1105.7 2439.81 1105.44C2439.68 1105.11 2439.62 1104.79 2439.62 1104.46C2439.62 1102.25 2439.62 1100 2439.62 1097.72C2439.62 1095.44 2439.62 1093.17 2439.62 1090.89C2439.62 1090.82 2439.62 1090.79 2439.62 1090.79C2439.62 1090.72 2439.62 1090.69 2439.62 1090.69C2439.62 1087.89 2439.62 1085.09 2439.62 1082.29C2439.62 1079.49 2439.62 1076.69 2439.62 1073.89C2439.62 1073.57 2439.68 1073.24 2439.81 1072.92C2439.94 1072.66 2440.11 1072.4 2440.3 1072.14C2440.56 1071.94 2440.82 1071.78 2441.08 1071.65C2441.41 1071.52 2441.74 1071.45 2442.06 1071.45C2449.29 1071.45 2456.51 1071.45 2463.74 1071.45C2466.15 1071.45 2468.56 1071.45 2470.97 1071.45C2475.78 1071.45 2480.6 1071.45 2485.42 1071.45C2486.79 1071.45 2488.06 1071.71 2489.23 1072.23C2490.47 1072.69 2491.57 1073.41 2492.55 1074.38C2493.53 1075.36 2494.24 1076.43 2494.7 1077.61C2495.22 1078.84 2495.48 1080.14 2495.48 1081.51C2495.48 1081.77 2495.48 1082.07 2495.48 1082.39C2495.48 1082.65 2495.48 1082.91 2495.48 1083.17ZM2444.5 1076.24C2444.5 1078.97 2444.5 1083.04 2444.5 1088.45C2451.27 1088.45 2458.08 1088.45 2464.91 1088.45C2471.75 1088.45 2478.58 1088.45 2485.42 1088.45C2486.14 1088.45 2486.79 1088.32 2487.37 1088.05C2488.02 1087.79 2488.61 1087.4 2489.13 1086.88C2489.65 1086.36 2490.04 1085.81 2490.3 1085.22C2490.5 1084.64 2490.6 1083.95 2490.6 1083.17C2490.6 1082.91 2490.6 1082.65 2490.6 1082.39C2490.6 1082.07 2490.6 1081.77 2490.6 1081.51C2490.6 1080.8 2490.5 1080.11 2490.3 1079.46C2490.04 1078.88 2489.65 1078.32 2489.13 1077.8C2488.61 1077.28 2488.02 1076.89 2487.37 1076.63C2486.79 1076.37 2486.14 1076.24 2485.42 1076.24C2478.58 1076.24 2471.75 1076.24 2464.91 1076.24C2458.08 1076.24 2451.27 1076.24 2444.5 1076.24ZM2490.6 1098.5C2490.6 1098.24 2490.6 1097.98 2490.6 1097.72C2490.6 1097.4 2490.6 1097.1 2490.6 1096.84C2490.6 1096.32 2490.53 1095.87 2490.4 1095.48C2490.21 1095.09 2489.94 1094.7 2489.62 1094.3C2489.23 1093.98 2488.84 1093.72 2488.45 1093.52C2488.06 1093.39 2487.6 1093.33 2487.08 1093.33C2477.64 1093.33 2463.45 1093.33 2444.5 1093.33C2444.5 1095.28 2444.5 1098.21 2444.5 1102.12C2451.6 1102.12 2458.69 1102.12 2465.79 1102.12C2472.89 1102.12 2479.98 1102.12 2487.08 1102.12C2487.6 1102.12 2488.06 1102.02 2488.45 1101.82C2488.84 1101.63 2489.23 1101.37 2489.62 1101.04C2489.94 1100.72 2490.21 1100.33 2490.4 1099.87C2490.53 1099.48 2490.6 1099.02 2490.6 1098.5Z" fill="black"/>
<path d="M2825.42 1056.64C2823.44 1057.78 2821.61 1058.45 2819.92 1058.65C2818.23 1058.78 2816.68 1058.43 2815.27 1057.62C2813.86 1056.81 2812.79 1055.64 2812.06 1054.11C2811.38 1052.54 2811.04 1050.62 2811.04 1048.34C2811.04 1047.95 2811.04 1047.6 2811.04 1047.27C2811.04 1046.94 2811.04 1046.62 2811.04 1046.29C2811.04 1044.01 2811.38 1041.67 2812.06 1039.26C2812.79 1036.89 2813.86 1034.48 2815.27 1032.04C2816.68 1029.59 2818.23 1027.49 2819.92 1025.74C2821.61 1023.91 2823.44 1022.43 2825.42 1021.29C2829.2 1019.11 2832.97 1016.93 2836.75 1014.75C2840.47 1012.6 2844.22 1010.44 2848 1008.26C2849.3 1007.51 2850.54 1006.99 2851.72 1006.69C2852.85 1006.37 2853.98 1006.27 2855.1 1006.4C2856.29 1006.43 2857.3 1006.69 2858.15 1007.18C2858.99 1007.67 2859.75 1008.37 2860.43 1009.28C2860.66 1009.54 2860.8 1009.88 2860.85 1010.31C2860.85 1010.5 2860.83 1010.71 2860.77 1010.94C2860.66 1011.72 2860.35 1012.42 2859.84 1013.04C2859.27 1013.69 2858.71 1014.08 2858.15 1014.21C2857.58 1014.41 2857.16 1014.26 2856.88 1013.77C2856.37 1013.15 2855.84 1012.65 2855.27 1012.26C2854.65 1011.97 2853.92 1011.77 2853.07 1011.67C2852.28 1011.61 2851.47 1011.69 2850.62 1011.92C2849.77 1012.15 2848.9 1012.55 2848 1013.14C2844.22 1015.32 2840.47 1017.45 2836.75 1019.54C2832.97 1021.72 2829.2 1023.93 2825.42 1026.18C2824.01 1026.99 2822.71 1028 2821.53 1029.2C2820.29 1030.51 2819.19 1032.02 2818.23 1033.74C2817.21 1035.5 2816.45 1037.21 2815.95 1038.87C2815.44 1040.6 2815.18 1042.27 2815.18 1043.9C2815.18 1044.23 2815.18 1044.55 2815.18 1044.88C2815.18 1045.2 2815.18 1045.56 2815.18 1045.95C2815.18 1047.58 2815.44 1048.93 2815.95 1050C2816.45 1051.14 2817.21 1051.97 2818.23 1052.49C2819.19 1053.11 2820.29 1053.36 2821.53 1053.23C2822.71 1053.13 2824.01 1052.67 2825.42 1051.86C2829.2 1049.68 2832.97 1047.5 2836.75 1045.32C2840.47 1043.17 2844.22 1041 2848 1038.82C2848.9 1038.3 2849.75 1037.72 2850.54 1037.06C2851.33 1036.35 2852.11 1035.5 2852.9 1034.53C2853.69 1033.61 2854.4 1032.65 2855.02 1031.64C2855.58 1030.67 2856.12 1029.61 2856.63 1028.47C2856.96 1027.82 2857.41 1027.27 2857.98 1026.81C2858.49 1026.45 2858.96 1026.31 2859.42 1026.37C2859.87 1026.44 2860.15 1026.76 2860.26 1027.35C2860.43 1027.84 2860.37 1028.42 2860.09 1029.11C2859.42 1030.73 2858.65 1032.25 2857.81 1033.65C2856.96 1034.98 2855.98 1036.33 2854.85 1037.7C2853.72 1039.07 2852.62 1040.19 2851.55 1041.07C2850.42 1042.04 2849.24 1042.89 2848 1043.61C2844.22 1045.79 2840.47 1047.95 2836.75 1050.1C2832.97 1052.28 2829.2 1054.46 2825.42 1056.64Z" fill="black"/>
<circle cx="2060.5" cy="818.5" r="7.5" fill="#D9D9D9"/>
<circle cx="2060.5" cy="852.5" r="7.5" fill="#D9D9D9"/>
<circle cx="2060.5" cy="886.5" r="7.5" fill="#D9D9D9"/>
<circle cx="2060.5" cy="920.5" r="7.5" fill="#D9D9D9"/>
<circle cx="2096.5" cy="833.5" r="7.5" fill="#D9D9D9"/>
<circle cx="2096.5" cy="867.5" r="7.5" fill="#D9D9D9"/>
<circle cx="2096.5" cy="901.5" r="7.5" fill="#D9D9D9"/>
<circle cx="2096.5" cy="935.5" r="7.5" fill="#D9D9D9"/>
<circle cx="2096.5" cy="833.5" r="7.5" fill="#849DA6" fill-opacity="0.55"/>
<circle cx="2096.5" cy="867.5" r="7.5" fill="#849DA6" fill-opacity="0.55"/>
<circle cx="2096.5" cy="901.5" r="7.5" fill="#849DA6" fill-opacity="0.55"/>
<circle cx="2096.5" cy="935.5" r="7.5" fill="#849DA6" fill-opacity="0.55"/>
<circle cx="2132.5" cy="852.5" r="7.5" fill="#D9D9D9"/>
<circle cx="2132.5" cy="886.5" r="7.5" fill="#D9D9D9"/>
<circle cx="2132.5" cy="920.5" r="7.5" fill="#D9D9D9"/>
<circle cx="2132.5" cy="954.5" r="7.5" fill="#D9D9D9"/>
<circle cx="2132.5" cy="852.5" r="7.5" fill="#9DB7C1"/>
<circle cx="2132.5" cy="852.5" r="7.5" fill="#9DB7C1"/>
<circle cx="2132.5" cy="886.5" r="7.5" fill="#9DB7C1"/>
<circle cx="2132.5" cy="886.5" r="7.5" fill="#9DB7C1"/>
<circle cx="2132.5" cy="920.5" r="7.5" fill="#9DB7C1"/>
<circle cx="2132.5" cy="920.5" r="7.5" fill="#9DB7C1"/>
<circle cx="2132.5" cy="954.5" r="7.5" fill="#9DB7C1"/>
<circle cx="2132.5" cy="954.5" r="7.5" fill="#9DB7C1"/>
<circle cx="2163.5" cy="871.5" r="7.5" fill="#9DB7C1"/>
<circle cx="2163.5" cy="871.5" r="7.5" fill="#94AAB3"/>
<circle cx="2163.5" cy="905.5" r="7.5" fill="#9DB7C1"/>
<circle cx="2163.5" cy="905.5" r="7.5" fill="#94AAB3"/>
<circle cx="2163.5" cy="939.5" r="7.5" fill="#9DB7C1"/>
<circle cx="2163.5" cy="939.5" r="7.5" fill="#94AAB3"/>
<circle cx="2163.5" cy="973.5" r="7.5" fill="#9DB7C1"/>
<circle cx="2163.5" cy="973.5" r="7.5" fill="#94AAB3"/>
<line x1="419.452" y1="94.4416" x2="433.749" y2="81.5459" stroke="#072A39" stroke-width="2.54018"/>
<line x1="392.673" y1="62.6967" x2="407.752" y2="50.7242" stroke="#072A39" stroke-width="2.54018"/>
<line x1="367.965" y1="29.32" x2="383.766" y2="18.3179" stroke="#072A39" stroke-width="2.54018"/>
<line x1="1461.5" y1="19.9639" x2="1445.45" y2="9.3269" stroke="#072A39" stroke-width="2.54018"/>
<line x1="1437.42" y1="53.7918" x2="1422.07" y2="42.168" stroke="#072A39" stroke-width="2.54018"/>
<line x1="1411.27" y1="86.0503" x2="1396.68" y2="73.4856" stroke="#072A39" stroke-width="2.54018"/>
<line x1="1383.14" y1="116.603" x2="1369.37" y2="103.147" stroke="#072A39" stroke-width="2.54018"/>
<line x1="1353.15" y1="145.331" x2="1340.25" y2="131.037" stroke="#072A39" stroke-width="2.54018"/>
<line x1="1321.4" y1="172.103" x2="1309.42" y2="157.027" stroke="#072A39" stroke-width="2.54018"/>
<line x1="1288.04" y1="196.837" x2="1277.04" y2="181.039" stroke="#072A39" stroke-width="2.54018"/>
<line x1="1253.2" y1="219.422" x2="1243.2" y2="202.964" stroke="#072A39" stroke-width="2.54018"/>
<line x1="1216.98" y1="239.773" x2="1208.04" y2="222.72" stroke="#072A39" stroke-width="2.54018"/>
<line x1="1179.58" y1="257.818" x2="1171.73" y2="240.237" stroke="#072A39" stroke-width="2.54018"/>
<line x1="1141.13" y1="273.482" x2="1134.39" y2="255.443" stroke="#072A39" stroke-width="2.54018"/>
<line x1="1101.77" y1="286.706" x2="1096.19" y2="268.28" stroke="#072A39" stroke-width="2.54018"/>
<line x1="1061.65" y1="297.425" x2="1057.23" y2="278.685" stroke="#072A39" stroke-width="2.54018"/>
<line x1="1020.93" y1="305.592" x2="1017.69" y2="286.611" stroke="#072A39" stroke-width="2.54018"/>
<line x1="979.762" y1="311.192" x2="977.728" y2="292.045" stroke="#072A39" stroke-width="2.54018"/>
<line x1="938.339" y1="314.193" x2="937.512" y2="294.957" stroke="#072A39" stroke-width="2.54018"/>
<line x1="896.833" y1="314.613" x2="897.214" y2="295.363" stroke="#072A39" stroke-width="2.54018"/>
<line x1="855.343" y1="312.39" x2="856.933" y2="293.202" stroke="#072A39" stroke-width="2.54018"/>
<line x1="814.12" y1="307.599" x2="816.911" y2="288.548" stroke="#072A39" stroke-width="2.54018"/>
<line x1="773.239" y1="300.203" x2="777.221" y2="281.365" stroke="#072A39" stroke-width="2.54018"/>
<line x1="732.936" y1="290.271" x2="738.093" y2="271.721" stroke="#072A39" stroke-width="2.54018"/>
<line x1="693.311" y1="277.829" x2="699.622" y2="259.639" stroke="#072A39" stroke-width="2.54018"/>
<line x1="654.535" y1="262.903" x2="661.976" y2="245.145" stroke="#072A39" stroke-width="2.54018"/>
<line x1="616.799" y1="245.589" x2="625.34" y2="228.333" stroke="#072A39" stroke-width="2.54018"/>
<line x1="580.211" y1="225.937" x2="589.819" y2="209.252" stroke="#072A39" stroke-width="2.54018"/>
<line x1="544.925" y1="204.018" x2="555.562" y2="187.969" stroke="#072A39" stroke-width="2.54018"/>
<line x1="511.111" y1="179.946" x2="522.735" y2="164.597" stroke="#072A39" stroke-width="2.54018"/>
<line x1="478.839" y1="153.776" x2="491.404" y2="139.186" stroke="#072A39" stroke-width="2.54018"/>
<line x1="448.302" y1="125.648" x2="461.758" y2="111.876" stroke="#072A39" stroke-width="2.54018"/>
<line x1="419.586" y1="95.646" x2="433.88" y2="82.7464" stroke="#072A39" stroke-width="2.54018"/>
<line x1="392.817" y1="63.9147" x2="407.893" y2="51.9381" stroke="#072A39" stroke-width="2.54018"/>
<line x1="368.078" y1="30.5546" x2="383.876" y2="19.5482" stroke="#072A39" stroke-width="2.54018"/>
<line x1="419.452" y1="94.4416" x2="433.749" y2="81.5459" stroke="#072A39" stroke-width="2.54018"/>
<line x1="392.673" y1="62.6967" x2="407.752" y2="50.7242" stroke="#072A39" stroke-width="2.54018"/>
<line x1="367.965" y1="29.32" x2="383.766" y2="18.3179" stroke="#072A39" stroke-width="2.54018"/>
<line x1="1461.5" y1="19.9639" x2="1445.45" y2="9.3269" stroke="#072A39" stroke-width="2.54018"/>
<line x1="1437.42" y1="53.7918" x2="1422.07" y2="42.168" stroke="#072A39" stroke-width="2.54018"/>
<line x1="1411.27" y1="86.0503" x2="1396.68" y2="73.4856" stroke="#072A39" stroke-width="2.54018"/>
<line x1="1383.14" y1="116.603" x2="1369.37" y2="103.147" stroke="#072A39" stroke-width="2.54018"/>
<line x1="1353.15" y1="145.331" x2="1340.25" y2="131.037" stroke="#072A39" stroke-width="2.54018"/>
<line x1="1321.4" y1="172.103" x2="1309.42" y2="157.027" stroke="#072A39" stroke-width="2.54018"/>
<line x1="1288.04" y1="196.837" x2="1277.04" y2="181.039" stroke="#072A39" stroke-width="2.54018"/>
<line x1="1253.2" y1="219.422" x2="1243.2" y2="202.964" stroke="#072A39" stroke-width="2.54018"/>
<line x1="1216.98" y1="239.773" x2="1208.04" y2="222.72" stroke="#072A39" stroke-width="2.54018"/>
<line x1="1179.58" y1="257.818" x2="1171.73" y2="240.237" stroke="#072A39" stroke-width="2.54018"/>
<line x1="1141.13" y1="273.482" x2="1134.39" y2="255.443" stroke="#072A39" stroke-width="2.54018"/>
<line x1="1101.77" y1="286.706" x2="1096.19" y2="268.28" stroke="#072A39" stroke-width="2.54018"/>
<line x1="1061.65" y1="297.425" x2="1057.23" y2="278.685" stroke="#072A39" stroke-width="2.54018"/>
<line x1="1020.93" y1="305.592" x2="1017.69" y2="286.611" stroke="#072A39" stroke-width="2.54018"/>
<line x1="979.762" y1="311.192" x2="977.728" y2="292.045" stroke="#072A39" stroke-width="2.54018"/>
<line x1="938.339" y1="314.193" x2="937.511" y2="294.957" stroke="#072A39" stroke-width="2.54018"/>
<line x1="896.833" y1="314.613" x2="897.214" y2="295.363" stroke="#072A39" stroke-width="2.54018"/>
<line x1="855.343" y1="312.39" x2="856.933" y2="293.202" stroke="#072A39" stroke-width="2.54018"/>
<line x1="814.119" y1="307.599" x2="816.911" y2="288.548" stroke="#072A39" stroke-width="2.54018"/>
<line x1="773.239" y1="300.203" x2="777.221" y2="281.365" stroke="#072A39" stroke-width="2.54018"/>
<line x1="732.936" y1="290.271" x2="738.093" y2="271.721" stroke="#072A39" stroke-width="2.54018"/>
<line x1="693.311" y1="277.829" x2="699.622" y2="259.639" stroke="#072A39" stroke-width="2.54018"/>
<line x1="654.535" y1="262.903" x2="661.976" y2="245.145" stroke="#072A39" stroke-width="2.54018"/>
<line x1="616.799" y1="245.589" x2="625.34" y2="228.333" stroke="#072A39" stroke-width="2.54018"/>
<line x1="580.211" y1="225.937" x2="589.819" y2="209.252" stroke="#072A39" stroke-width="2.54018"/>
<line x1="544.925" y1="204.018" x2="555.562" y2="187.969" stroke="#072A39" stroke-width="2.54018"/>
<line x1="511.111" y1="179.946" x2="522.734" y2="164.597" stroke="#072A39" stroke-width="2.54018"/>
<line x1="478.839" y1="153.776" x2="491.404" y2="139.186" stroke="#072A39" stroke-width="2.54018"/>
<line x1="448.302" y1="125.648" x2="461.758" y2="111.876" stroke="#072A39" stroke-width="2.54018"/>
<line x1="419.586" y1="95.646" x2="433.88" y2="82.7464" stroke="#072A39" stroke-width="2.54018"/>
<line x1="392.817" y1="63.9147" x2="407.893" y2="51.9381" stroke="#072A39" stroke-width="2.54018"/>
<line x1="368.078" y1="30.5546" x2="383.876" y2="19.5482" stroke="#072A39" stroke-width="2.54018"/>
<line x1="3119.45" y1="543.443" x2="3133.75" y2="530.547" stroke="#072A39" stroke-width="2.54018"/>
<line x1="3092.67" y1="511.698" x2="3107.75" y2="499.725" stroke="#072A39" stroke-width="2.54018"/>
<line x1="3067.97" y1="478.321" x2="3083.77" y2="467.319" stroke="#072A39" stroke-width="2.54018"/>
<line x1="3045.38" y1="443.461" x2="3061.84" y2="433.473" stroke="#072A39" stroke-width="2.54018"/>
<line x1="3025.03" y1="407.272" x2="3042.08" y2="398.338" stroke="#072A39" stroke-width="2.54018"/>
<line x1="3006.99" y1="369.862" x2="3024.57" y2="362.015" stroke="#072A39" stroke-width="2.54018"/>
<line x1="2991.33" y1="331.401" x2="3009.37" y2="324.674" stroke="#072A39" stroke-width="2.54018"/>
<line x1="2978.14" y1="292.019" x2="2996.57" y2="286.438" stroke="#072A39" stroke-width="2.54018"/>
<line x1="2967.43" y1="251.903" x2="2986.17" y2="247.491" stroke="#072A39" stroke-width="2.54018"/>
<line x1="2959.26" y1="211.181" x2="2978.25" y2="207.954" stroke="#072A39" stroke-width="2.54018"/>
<line x1="2953.69" y1="170.018" x2="2972.84" y2="167.989" stroke="#072A39" stroke-width="2.54018"/>
<line x1="2950.69" y1="128.592" x2="2969.93" y2="127.77" stroke="#072A39" stroke-width="2.54018"/>
<line x1="2950.29" y1="87.0778" x2="2969.54" y2="87.4647" stroke="#072A39" stroke-width="2.54018"/>
<line x1="2952.5" y1="45.619" x2="2971.69" y2="47.2138" stroke="#072A39" stroke-width="2.54018"/>
<line x1="2957.32" y1="4.37717" x2="2976.37" y2="7.17363" stroke="#072A39" stroke-width="2.54017"/>
<line x1="3316.8" y1="694.592" x2="3325.35" y2="677.336" stroke="#072A39" stroke-width="2.54018"/>
<line x1="3280.22" y1="674.94" x2="3289.82" y2="658.255" stroke="#072A39" stroke-width="2.54018"/>
<line x1="3244.93" y1="653.02" x2="3255.57" y2="636.971" stroke="#072A39" stroke-width="2.54018"/>
<line x1="3211.12" y1="628.949" x2="3222.74" y2="613.6" stroke="#072A39" stroke-width="2.54018"/>
<line x1="3178.85" y1="602.779" x2="3191.41" y2="588.189" stroke="#072A39" stroke-width="2.54018"/>
<line x1="3148.31" y1="574.65" x2="3161.76" y2="560.879" stroke="#072A39" stroke-width="2.54018"/>
<line x1="3119.59" y1="544.649" x2="3133.88" y2="531.749" stroke="#072A39" stroke-width="2.54018"/>
<line x1="3092.82" y1="512.918" x2="3107.9" y2="500.941" stroke="#072A39" stroke-width="2.54018"/>
<line x1="3068.08" y1="479.557" x2="3083.88" y2="468.551" stroke="#072A39" stroke-width="2.54018"/>
<line x1="3045.49" y1="444.707" x2="3061.94" y2="434.715" stroke="#072A39" stroke-width="2.54018"/>
<line x1="3025.13" y1="408.501" x2="3042.18" y2="399.562" stroke="#072A39" stroke-width="2.54018"/>
<line x1="3007.08" y1="371.101" x2="3024.66" y2="363.25" stroke="#072A39" stroke-width="2.54018"/>
<line x1="2991.4" y1="332.626" x2="3009.44" y2="325.895" stroke="#072A39" stroke-width="2.54018"/>
<line x1="2978.19" y1="293.264" x2="2996.62" y2="287.678" stroke="#072A39" stroke-width="2.54018"/>
<line x1="2967.47" y1="253.145" x2="2986.21" y2="248.727" stroke="#072A39" stroke-width="2.54018"/>
<line x1="2959.3" y1="212.426" x2="2978.28" y2="209.193" stroke="#072A39" stroke-width="2.54018"/>
<line x1="2953.71" y1="171.285" x2="2972.86" y2="169.251" stroke="#072A39" stroke-width="2.54018"/>
<line x1="2950.68" y1="129.852" x2="2969.92" y2="129.024" stroke="#072A39" stroke-width="2.54018"/>
<line x1="2950.29" y1="88.3307" x2="2969.54" y2="88.7123" stroke="#072A39" stroke-width="2.54018"/>
<line x1="2952.5" y1="46.8632" x2="2971.69" y2="48.4528" stroke="#072A39" stroke-width="2.54018"/>
<line x1="2957.31" y1="5.61247" x2="2976.36" y2="8.40378" stroke="#072A39" stroke-width="2.54018"/>
<circle cx="193" cy="193" r="193" transform="matrix(0.866025 0.5 -0.866025 0.5 2456.29 128)" fill="url(#paint14_linear_2091_4261)"/>
<path d="M2219.91 321C2219.91 358.686 2246.37 392.803 2289.14 417.5V527.5C2246.37 502.803 2219.91 468.686 2219.91 431V321Z" fill="url(#paint15_linear_2091_4261)"/>
<path d="M2289.14 417.5C2381.45 470.795 2531.12 470.795 2623.43 417.5V527.5C2531.12 580.795 2381.45 580.795 2289.14 527.5V417.5Z" fill="url(#paint16_linear_2091_4261)"/>
<path d="M2692.66 321C2692.66 358.686 2666.2 392.803 2623.43 417.5V527.5C2666.2 502.803 2692.66 468.686 2692.66 431V321Z" fill="url(#paint17_linear_2091_4261)"/>
<rect width="340" height="80" transform="matrix(0.866025 0.5 -0.866025 0.5 2439.28 258)" fill="#E0ECED"/>
<rect width="340" height="40" transform="matrix(0.866025 0.5 0 1 2370 298)" fill="#92B0BB"/>
<rect width="80" height="40" transform="matrix(0.866025 -0.5 0 1 2664.45 468)" fill="#7994A0"/>
</g>
<defs>
<linearGradient id="paint0_linear_2091_4261" x1="1117.89" y1="1118.6" x2="-58.696" y2="65.0075" gradientUnits="userSpaceOnUse">
<stop stop-color="#F0F5F6"/>
<stop offset="1" stop-color="#F6FAFA"/>
</linearGradient>
<linearGradient id="paint1_linear_2091_4261" x1="968.994" y1="969.611" x2="-50.8782" y2="56.349" gradientUnits="userSpaceOnUse">
<stop stop-color="#DBE9EA"/>
<stop offset="1" stop-color="#F7FBFB"/>
</linearGradient>
<linearGradient id="paint2_linear_2091_4261" x1="887.654" y1="888.22" x2="-46.6074" y2="51.6189" gradientUnits="userSpaceOnUse">
<stop stop-color="#FFD5EF"/>
<stop offset="1" stop-color="#EFBDFD"/>
</linearGradient>
<linearGradient id="paint3_linear_2091_4261" x1="1905.24" y1="710" x2="2090.42" y2="714.292" gradientUnits="userSpaceOnUse">
<stop stop-color="#E4F476"/>
<stop offset="1" stop-color="#F6FFBE"/>
</linearGradient>
<linearGradient id="paint4_linear_2091_4261" x1="2064.51" y1="931.092" x2="2725.37" y2="863.879" gradientUnits="userSpaceOnUse">
<stop stop-color="#E4F476"/>
<stop offset="1" stop-color="#F6FFBE"/>
</linearGradient>
<linearGradient id="paint5_linear_2091_4261" x1="2833.55" y1="708.973" x2="2971.78" y2="706.399" gradientUnits="userSpaceOnUse">
<stop stop-color="#E4F476"/>
<stop offset="1" stop-color="#F6FFBE"/>
</linearGradient>
<linearGradient id="paint6_linear_2091_4261" x1="999.611" y1="1000.25" x2="-52.4858" y2="58.1294" gradientUnits="userSpaceOnUse">
<stop stop-color="#EBF3F3"/>
<stop offset="1" stop-color="#F1F7F7"/>
</linearGradient>
<linearGradient id="paint7_linear_2091_4261" x1="1849.65" y1="500" x2="2057.42" y2="513.52" gradientUnits="userSpaceOnUse">
<stop stop-color="#748F9A"/>
<stop offset="1" stop-color="#E3EDEE"/>
</linearGradient>
<linearGradient id="paint8_linear_2091_4261" x1="2029.01" y1="749.722" x2="2688.52" y2="502.881" gradientUnits="userSpaceOnUse">
<stop stop-color="#76919C"/>
<stop offset="0.935" stop-color="#E7F0F1"/>
</linearGradient>
<linearGradient id="paint9_linear_2091_4261" x1="2895.04" y1="499.588" x2="3050.34" y2="491.468" gradientUnits="userSpaceOnUse">
<stop stop-color="#809AA3"/>
<stop offset="1" stop-color="#E3EDEE"/>
</linearGradient>
<linearGradient id="paint10_linear_2091_4261" x1="799.689" y1="800.198" x2="-41.9886" y2="46.5035" gradientUnits="userSpaceOnUse">
<stop stop-color="#DDEAEB"/>
<stop offset="1" stop-color="#F0F6F6"/>
</linearGradient>
<linearGradient id="paint11_linear_2091_4261" x1="1971.92" y1="426" x2="2137.38" y2="441.505" gradientUnits="userSpaceOnUse">
<stop stop-color="#76919C"/>
<stop offset="1" stop-color="#E7F0F1"/>
</linearGradient>
<linearGradient id="paint12_linear_2091_4261" x1="2115.41" y1="625.878" x2="2525.13" y2="345.55" gradientUnits="userSpaceOnUse">
<stop stop-color="#76919C"/>
<stop offset="1" stop-color="#E7F0F1"/>
</linearGradient>
<linearGradient id="paint13_linear_2091_4261" x1="2808.23" y1="425.771" x2="2932.11" y2="416.444" gradientUnits="userSpaceOnUse">
<stop stop-color="#76919C"/>
<stop offset="1" stop-color="#E7F0F1"/>
</linearGradient>
<linearGradient id="paint14_linear_2091_4261" x1="385.85" y1="386.096" x2="-20.2595" y2="22.438" gradientUnits="userSpaceOnUse">
<stop stop-color="#E0ECED"/>
<stop offset="1" stop-color="#E0ECED"/>
</linearGradient>
<linearGradient id="paint15_linear_2091_4261" x1="2219.91" y1="321" x2="2300.21" y2="325.395" gradientUnits="userSpaceOnUse">
<stop stop-color="#76919C"/>
<stop offset="1" stop-color="#E4EDEF"/>
</linearGradient>
<linearGradient id="paint16_linear_2091_4261" x1="2289.14" y1="417.363" x2="2556.51" y2="339.178" gradientUnits="userSpaceOnUse">
<stop stop-color="#76919C"/>
<stop offset="1" stop-color="#E7F0F1"/>
</linearGradient>
<linearGradient id="paint17_linear_2091_4261" x1="2623.43" y1="320.811" x2="2683.42" y2="318.172" gradientUnits="userSpaceOnUse">
<stop stop-color="#76919C"/>
<stop offset="1" stop-color="#E7F0F1"/>
</linearGradient>
<clipPath id="clip0_2091_4261">
<rect width="3330" height="1500" fill="white"/>
</clipPath>
</defs>
</svg>
