<svg width="3300" height="1260" viewBox="0 0 3300 1260" fill="none" xmlns="http://www.w3.org/2000/svg">
<g clip-path="url(#clip0_273_20676)">
<rect width="3300" height="1260" fill="white"/>
<rect width="3300" height="1260" fill="url(#paint0_linear_273_20676)"/>
<path d="M3373.04 35.3164L1357.83 1199.78" stroke="url(#paint1_linear_273_20676)" stroke-opacity="0.7"/>
<path d="M3420.97 121.371L1413.38 1281.48" stroke="url(#paint2_linear_273_20676)" stroke-opacity="0.7"/>
<path d="M3467.81 93.0488L1413.38 1281.48" stroke="url(#paint3_linear_273_20676)" stroke-opacity="0.7"/>
<path d="M3521.18 185.64L1513.6 1345.75" stroke="url(#paint4_linear_273_20676)" stroke-opacity="0.7"/>
<path d="M3626.85 258.623L1619.26 1418.73" stroke="url(#paint5_linear_273_20676)" stroke-opacity="0.7"/>
<path d="M3713.99 334.874L1706.4 1494.98" stroke="url(#paint6_linear_273_20676)" stroke-opacity="0.7"/>
<path d="M3871.94 378.446L1864.35 1538.56" stroke="url(#paint7_linear_273_20676)" stroke-opacity="0.7"/>
<path d="M3927.49 460.145L1919.91 1620.25" stroke="url(#paint8_linear_273_20676)" stroke-opacity="0.7"/>
<path opacity="0.6" d="M4027.71 524.413L2020.12 1684.52" stroke="url(#paint9_linear_273_20676)" stroke-opacity="0.7"/>
<path opacity="0.4" d="M4133.37 597.396L2125.79 1757.51" stroke="url(#paint10_linear_273_20676)" stroke-opacity="0.7"/>
<path opacity="0.3" d="M4220.52 673.648L2212.93 1833.76" stroke="url(#paint11_linear_273_20676)" stroke-opacity="0.7"/>
<path d="M3871.94 378.446L1864.35 1538.56" stroke="url(#paint12_linear_273_20676)" stroke-opacity="0.7"/>
<path d="M3927.49 460.145L1919.91 1620.25" stroke="url(#paint13_linear_273_20676)" stroke-opacity="0.7"/>
<path d="M2545.17 -730.465L537.58 429.644" stroke="url(#paint14_linear_273_20676)" stroke-opacity="0.7"/>
<path opacity="0.2" d="M2600.72 -648.767L593.135 511.342" stroke="url(#paint15_linear_273_20676)" stroke-opacity="0.7"/>
<path opacity="0.3" d="M2600.72 -648.767L593.135 511.342" stroke="url(#paint16_linear_273_20676)" stroke-opacity="0.7"/>
<path d="M2700.94 -584.498L693.351 575.611" stroke="url(#paint17_linear_273_20676)" stroke-opacity="0.3"/>
<path opacity="0.6" d="M2806.6 -511.515L799.013 648.594" stroke="url(#paint18_linear_273_20676)" stroke-opacity="0.7"/>
<path d="M2893.74 -435.264L886.157 724.845" stroke="url(#paint19_linear_273_20676)" stroke-opacity="0.7"/>
<path d="M3051.69 -391.691L1044.11 768.418" stroke="url(#paint20_linear_273_20676)" stroke-opacity="0.7"/>
<path d="M3107.25 -309.993L1099.66 850.116" stroke="url(#paint21_linear_273_20676)" stroke-opacity="0.7"/>
<path d="M3207.46 -245.725L1199.88 914.384" stroke="url(#paint22_linear_273_20676)" stroke-opacity="0.7"/>
<path d="M3313.13 -172.741L1305.54 987.368" stroke="url(#paint23_linear_273_20676)" stroke-opacity="0.7"/>
<path d="M3400.27 -96.4902L1392.68 1063.62" stroke="url(#paint24_linear_273_20676)" stroke-opacity="0.7"/>
<path d="M3051.69 -391.691L1044.11 768.418" stroke="url(#paint25_linear_273_20676)" stroke-opacity="0.7"/>
<path d="M3107.25 -309.993L1099.66 850.116" stroke="url(#paint26_linear_273_20676)" stroke-opacity="0.7"/>
<path d="M3207.46 -245.725L1199.88 914.384" stroke="url(#paint27_linear_273_20676)" stroke-opacity="0.7"/>
<path d="M3313.13 -172.741L1305.54 987.368" stroke="url(#paint28_linear_273_20676)" stroke-opacity="0.7"/>
<path d="M3400.27 -96.4902L1392.68 1063.62" stroke="url(#paint29_linear_273_20676)" stroke-opacity="0.7"/>
<path d="M4438.38 1236.82L1619.26 -377.529" stroke="url(#paint30_linear_273_20676)" stroke-opacity="0.7"/>
<path d="M4359.95 1286.93L1540.83 -327.422" stroke="url(#paint31_linear_273_20676)" stroke-opacity="0.7"/>
<path d="M4292.41 1345.75L1473.29 -268.6" stroke="url(#paint32_linear_273_20676)" stroke-opacity="0.7"/>
<path d="M4232.5 1404.57L1413.38 -209.776" stroke="url(#paint33_linear_273_20676)" stroke-opacity="0.7"/>
<path d="M4159.52 1464.48L1340.4 -149.865" stroke="url(#paint34_linear_273_20676)" stroke-opacity="0.7"/>
<path d="M4098.52 1532.02L1279.4 -82.3281" stroke="url(#paint35_linear_273_20676)" stroke-opacity="0.7"/>
<path d="M3940.57 1548.36L1121.45 -65.9883" stroke="url(#paint36_linear_273_20676)" stroke-opacity="0.7"/>
<path opacity="0.2" d="M4691.1 877.349L1871.98 -737" stroke="url(#paint37_linear_273_20676)" stroke-opacity="0.7"/>
<path opacity="0.4" d="M4623.56 936.171L1804.44 -678.178" stroke="url(#paint38_linear_273_20676)" stroke-opacity="0.7"/>
<path opacity="0.6" d="M4563.65 994.993L1744.53 -619.355" stroke="url(#paint39_linear_273_20676)" stroke-opacity="0.7"/>
<path d="M4490.67 1054.91L1671.55 -559.443" stroke="url(#paint40_linear_273_20676)" stroke-opacity="0.7"/>
<path d="M4429.66 1122.44L1610.54 -491.906" stroke="url(#paint41_linear_273_20676)" stroke-opacity="0.7"/>
<path d="M3647.54 2098.46L828.425 484.11" stroke="url(#paint42_linear_273_20676)" stroke-opacity="0.7"/>
<path d="M3569.11 2148.57L749.994 534.218" stroke="url(#paint43_linear_273_20676)" stroke-opacity="0.7"/>
<path d="M3501.58 2207.39L682.458 593.041" stroke="url(#paint44_linear_273_20676)" stroke-opacity="0.7"/>
<path d="M3441.67 2266.21L622.546 651.863" stroke="url(#paint45_linear_273_20676)" stroke-opacity="0.7"/>
<path d="M3368.68 2326.12L549.562 711.774" stroke="url(#paint46_linear_273_20676)" stroke-opacity="0.7"/>
<path d="M3307.68 2393.66L488.562 779.312" stroke="url(#paint47_linear_273_20676)" stroke-opacity="0.7"/>
<path d="M3149.73 2410L330.612 795.651" stroke="url(#paint48_linear_273_20676)" stroke-opacity="0.7"/>
<path d="M3978.69 1688.88L1159.57 74.5312" stroke="url(#paint49_linear_273_20676)" stroke-opacity="0.7"/>
<path d="M3900.26 1738.99L1081.14 124.64" stroke="url(#paint50_linear_273_20676)" stroke-opacity="0.7"/>
<path d="M3832.73 1797.81L1013.61 183.462" stroke="url(#paint51_linear_273_20676)" stroke-opacity="0.7"/>
<path d="M3772.81 1856.63L953.694 242.284" stroke="url(#paint52_linear_273_20676)" stroke-opacity="0.7"/>
<path d="M3699.83 1916.55L880.711 302.196" stroke="url(#paint53_linear_273_20676)" stroke-opacity="0.7"/>
<path d="M3638.83 1984.08L819.71 369.733" stroke="url(#paint54_linear_273_20676)" stroke-opacity="0.7"/>
<rect width="83.645" height="83.645" transform="matrix(0.866025 0.5 -0.866025 0.5 2725.45 18.6572)" fill="url(#paint55_linear_273_20676)"/>
<path d="M2725.45 18.6572L2797.89 60.4797L2725.39 108.118L2653.01 60.4798L2725.45 18.6572Z" fill="white"/>
<path d="M2725.45 18.6572L2797.89 60.4797L2725.39 108.118L2653.01 60.4798L2725.45 18.6572Z" fill="url(#paint56_linear_273_20676)"/>
<path d="M2725.45 18.6572L2797.89 60.4797L2725.39 108.118L2653.01 60.4798L2725.45 18.6572Z" fill="url(#paint57_linear_273_20676)" fill-opacity="0.08"/>
<g clip-path="url(#clip1_273_20676)">
<rect width="4.26889" height="86.6425" transform="matrix(1.93226e-08 1 -0.835276 0.54983 2797.82 60.4404)" fill="white"/>
<rect width="4.26889" height="86.6425" transform="matrix(1.93226e-08 1 -0.835276 0.54983 2797.82 60.4404)" fill="url(#paint58_linear_273_20676)"/>
<line y1="-1.3631" x2="4.26889" y2="-1.3631" transform="matrix(-7.467e-08 -1 0.835276 -0.54983 2797.82 64.71)" stroke="#9DCACD" stroke-width="2.7262" stroke-linejoin="bevel"/>
<line y1="-1.3631" x2="4.26889" y2="-1.3631" transform="matrix(-6.9659e-07 -1 0.835276 -0.54983 2789.7 70.0557)" stroke="#9DCACD" stroke-width="2.7262" stroke-linejoin="bevel"/>
<line y1="-1.3631" x2="4.26889" y2="-1.3631" transform="matrix(-6.91215e-07 -1 0.835276 -0.54983 2781.72 75.3066)" stroke="#9DCACD" stroke-width="2.7262" stroke-linejoin="bevel"/>
<line y1="-1.3631" x2="4.26889" y2="-1.3631" transform="matrix(-6.92553e-07 -1 0.835276 -0.54983 2773.6 80.6533)" stroke="#9DCACD" stroke-width="2.7262" stroke-linejoin="bevel"/>
<line y1="-1.3631" x2="4.26889" y2="-1.3631" transform="matrix(-6.89871e-07 -1 0.835276 -0.54983 2765.62 85.9043)" stroke="#9DCACD" stroke-width="2.7262" stroke-linejoin="bevel"/>
<line y1="-1.3631" x2="4.26889" y2="-1.3631" transform="matrix(-6.88527e-07 -1 0.835276 -0.54983 2757.64 91.1543)" stroke="#9DCACD" stroke-width="2.7262" stroke-linejoin="bevel"/>
<line y1="-1.3631" x2="4.26889" y2="-1.3631" transform="matrix(-6.88527e-07 -1 0.835276 -0.54983 2749.67 96.4053)" stroke="#9DCACD" stroke-width="2.7262" stroke-linejoin="bevel"/>
<line y1="-1.3631" x2="4.26889" y2="-1.3631" transform="matrix(-6.89871e-07 -1 0.835276 -0.54983 2741.54 101.752)" stroke="#9DCACD" stroke-width="2.7262" stroke-linejoin="bevel"/>
<line y1="-1.3631" x2="4.26889" y2="-1.3631" transform="matrix(-6.74253e-07 -1 0.835276 -0.54983 2733.57 107.002)" stroke="#9DCACD" stroke-width="2.7262" stroke-linejoin="bevel"/>
<line y1="-1.3631" x2="4.26889" y2="-1.3631" transform="matrix(-6.23425e-07 -1 0.835276 -0.54983 2725.45 112.349)" stroke="#9DCACD" stroke-width="2.7262" stroke-linejoin="bevel"/>
</g>
<g clip-path="url(#clip2_273_20676)">
<rect width="86.6425" height="4.26889" transform="matrix(0.835276 0.54983 -1.93226e-08 1 2653.08 60.4404)" fill="white"/>
<rect width="86.6425" height="4.26889" transform="matrix(0.835276 0.54983 -1.93226e-08 1 2653.08 60.4404)" fill="url(#paint59_linear_273_20676)"/>
<line y1="-1.3631" x2="4.26889" y2="-1.3631" transform="matrix(1.93226e-08 -1 -0.835276 -0.54983 2717.34 107.013)" stroke="#9DCACD" stroke-width="2.7262" stroke-linejoin="bevel"/>
<line y1="-1.3631" x2="4.26889" y2="-1.3631" transform="matrix(1.93226e-08 -1 -0.835276 -0.54983 2709.38 101.772)" stroke="#9DCACD" stroke-width="2.7262" stroke-linejoin="bevel"/>
<line y1="-1.3631" x2="4.26889" y2="-1.3631" transform="matrix(1.93226e-08 -1 -0.835276 -0.54983 2701.28 96.4365)" stroke="#9DCACD" stroke-width="2.7262" stroke-linejoin="bevel"/>
<line y1="-1.3631" x2="4.26889" y2="-1.3631" transform="matrix(1.93226e-08 -1 -0.835276 -0.54983 2693.31 91.1963)" stroke="#9DCACD" stroke-width="2.7262" stroke-linejoin="bevel"/>
<line y1="-1.3631" x2="4.26889" y2="-1.3631" transform="matrix(1.93226e-08 -1 -0.835276 -0.54983 2685.21 85.8613)" stroke="#9DCACD" stroke-width="2.7262" stroke-linejoin="bevel"/>
<line y1="-1.3631" x2="4.26889" y2="-1.3631" transform="matrix(1.93226e-08 -1 -0.835276 -0.54983 2677.25 80.6211)" stroke="#9DCACD" stroke-width="2.7262" stroke-linejoin="bevel"/>
<line y1="-1.3631" x2="4.26889" y2="-1.3631" transform="matrix(1.93226e-08 -1 -0.835276 -0.54983 2669.14 75.2852)" stroke="#9DCACD" stroke-width="2.7262" stroke-linejoin="bevel"/>
<line y1="-1.3631" x2="4.26889" y2="-1.3631" transform="matrix(1.93226e-08 -1 -0.835276 -0.54983 2661.18 70.0449)" stroke="#9DCACD" stroke-width="2.7262" stroke-linejoin="bevel"/>
<line y1="-1.3631" x2="4.26889" y2="-1.3631" transform="matrix(1.93226e-08 -1 -0.835276 -0.54983 2653.08 64.709)" stroke="#9DCACD" stroke-width="2.7262" stroke-linejoin="bevel"/>
</g>
<path d="M2600.18 360.155L2397.02 244.145L1697.68 650.744L2443.32 1079.64L2958.56 782.806" stroke="#82A9AB" stroke-width="4"/>
<path d="M1392 1181L2958 271" stroke="url(#paint60_linear_273_20676)" stroke-width="4"/>
<path d="M2397 244L2640 106" stroke="url(#paint61_linear_273_20676)" stroke-width="4"/>
<path d="M2202.04 233.25L2025.02 336.189L2781.55 772.456L3045.16 616.14L2600.72 360.154" stroke="#82A9AB" stroke-width="4"/>
<circle cx="5.99117" cy="5.99117" r="5.99117" transform="matrix(0.83205 0.5547 -0.830139 0.557556 2229.41 948.924)" fill="#8FA500"/>
<circle cx="5.99117" cy="5.99117" r="5.99117" transform="matrix(0.83205 0.5547 -0.830139 0.557556 2444 1073.1)" fill="black"/>
<circle cx="5.99117" cy="5.99117" r="5.99117" transform="matrix(0.83205 0.5547 -0.830139 0.557556 1695.65 643.918)" fill="black"/>
<circle cx="5.99117" cy="5.99117" r="5.99117" transform="matrix(0.83205 0.5547 -0.830139 0.557556 2600.87 353.074)" fill="#8FA500"/>
<circle cx="5.99117" cy="5.99117" r="5.99117" transform="matrix(0.83205 0.5547 -0.830139 0.557556 2967.96 374.554)" fill="white"/>
<circle cx="5.99117" cy="5.99117" r="5.99117" transform="matrix(0.83205 0.5547 -0.830139 0.557556 2202.18 226.715)" fill="black"/>
<g filter="url(#filter0_d_273_20676)">
<rect width="504.348" height="504.348" transform="matrix(0.866025 0.5 -0.866025 0.5 2314.2 335.02)" fill="url(#paint62_linear_273_20676)"/>
<rect width="504.348" height="504.348" transform="matrix(0.866025 0.5 -0.866025 0.5 2314.2 336.108)" fill="url(#paint63_linear_273_20676)"/>
<rect width="504.348" height="504.348" transform="matrix(0.866025 0.5 -0.866025 0.5 2314.2 337.198)" fill="url(#paint64_linear_273_20676)"/>
<rect width="504.348" height="504.348" transform="matrix(0.866025 0.5 -0.866025 0.5 2314.2 338.287)" fill="url(#paint65_linear_273_20676)"/>
<rect width="504.348" height="504.348" transform="matrix(0.866025 0.5 -0.866025 0.5 2314.2 339.377)" fill="url(#paint66_linear_273_20676)"/>
<rect width="504.348" height="504.348" transform="matrix(0.866025 0.5 -0.866025 0.5 2314.2 340.466)" fill="url(#paint67_linear_273_20676)"/>
<rect width="504.348" height="504.348" transform="matrix(0.866025 0.5 -0.866025 0.5 2314.2 341.556)" fill="url(#paint68_linear_273_20676)"/>
<rect width="504.348" height="504.348" transform="matrix(0.866025 0.5 -0.866025 0.5 2314.2 342.645)" fill="url(#paint69_linear_273_20676)"/>
<rect width="504.348" height="504.348" transform="matrix(0.866025 0.5 -0.866025 0.5 2314.2 343.734)" fill="url(#paint70_linear_273_20676)"/>
<rect width="504.348" height="504.348" transform="matrix(0.866025 0.5 -0.866025 0.5 2314.2 344.823)" fill="url(#paint71_linear_273_20676)"/>
<rect width="504.348" height="504.348" transform="matrix(0.866025 0.5 -0.866025 0.5 2314.2 345.912)" fill="url(#paint72_linear_273_20676)"/>
<rect width="504.348" height="504.348" transform="matrix(0.866025 0.5 -0.866025 0.5 2314.2 347.002)" fill="url(#paint73_linear_273_20676)"/>
<rect width="504.348" height="504.348" transform="matrix(0.866025 0.5 -0.866025 0.5 2314.2 348.091)" fill="url(#paint74_linear_273_20676)"/>
<rect width="504.348" height="504.348" transform="matrix(0.866025 0.5 -0.866025 0.5 2314.2 349.181)" fill="url(#paint75_linear_273_20676)"/>
<rect width="504.348" height="504.348" transform="matrix(0.866025 0.5 -0.866025 0.5 2314.2 350.27)" fill="url(#paint76_linear_273_20676)"/>
<rect width="504.348" height="504.348" transform="matrix(0.866025 0.5 -0.866025 0.5 2314.2 351.359)" fill="url(#paint77_linear_273_20676)"/>
<rect width="504.348" height="504.348" transform="matrix(0.866025 0.5 -0.866025 0.5 2314.2 352.448)" fill="url(#paint78_linear_273_20676)"/>
<rect width="504.348" height="504.348" transform="matrix(0.866025 0.5 -0.866025 0.5 2314.2 353.538)" fill="url(#paint79_linear_273_20676)"/>
<rect width="504.348" height="504.348" transform="matrix(0.866025 0.5 -0.866025 0.5 2314.2 354.627)" fill="url(#paint80_linear_273_20676)"/>
<rect width="504.348" height="504.348" transform="matrix(0.866025 0.5 -0.866025 0.5 2314.2 355.717)" fill="url(#paint81_linear_273_20676)"/>
<rect y="1.5" width="501.348" height="501.348" transform="matrix(0.866025 0.5 -0.866025 0.5 2314.41 334.681)" fill="url(#paint82_linear_273_20676)" stroke="#D2DC9C" stroke-width="3"/>
</g>
<rect width="68.5512" height="68.5512" transform="matrix(0.866025 0.5 -0.866025 0.5 2394.3 199.585)" fill="#90B8BA"/>
<rect width="68.5512" height="68.5512" transform="matrix(0.866025 0.5 -0.866025 0.5 2394.3 200.777)" fill="#90B8BA"/>
<rect width="68.5512" height="68.5512" transform="matrix(0.866025 0.5 -0.866025 0.5 2394.3 201.97)" fill="#90B8BA"/>
<rect width="68.5512" height="68.5512" transform="matrix(0.866025 0.5 -0.866025 0.5 2394.3 204.354)" fill="#90B8BA"/>
<rect width="68.5512" height="68.5512" transform="matrix(0.866025 0.5 -0.866025 0.5 2394.3 205.546)" fill="#90B8BA"/>
<rect width="68.5512" height="68.5512" transform="matrix(0.866025 0.5 -0.866025 0.5 2394.3 206.738)" fill="#90B8BA"/>
<rect width="68.5512" height="68.5512" transform="matrix(0.866025 0.5 -0.866025 0.5 2394.3 207.932)" fill="#90B8BA"/>
<rect width="68.5512" height="68.5512" transform="matrix(0.866025 0.5 -0.866025 0.5 2394.3 203.162)" fill="#90B8BA"/>
<rect width="68.5512" height="68.5512" transform="matrix(0.866025 0.5 -0.866025 0.5 2394.3 198.394)" fill="#A6CED1"/>
<rect width="63.1135" height="63.1135" transform="matrix(0.866025 0.5 -0.866025 0.5 2774.11 735.429)" fill="#90B8BA"/>
<rect width="63.1135" height="63.1135" transform="matrix(0.866025 0.5 -0.866025 0.5 2774.11 736.525)" fill="#90B8BA"/>
<rect width="63.1135" height="63.1135" transform="matrix(0.866025 0.5 -0.866025 0.5 2774.11 737.624)" fill="#90B8BA"/>
<rect width="63.1135" height="63.1135" transform="matrix(0.866025 0.5 -0.866025 0.5 2774.11 739.819)" fill="#90B8BA"/>
<rect width="63.1135" height="63.1135" transform="matrix(0.866025 0.5 -0.866025 0.5 2774.11 740.916)" fill="#90B8BA"/>
<rect width="63.1135" height="63.1135" transform="matrix(0.866025 0.5 -0.866025 0.5 2774.11 742.014)" fill="#90B8BA"/>
<rect width="63.1135" height="63.1135" transform="matrix(0.866025 0.5 -0.866025 0.5 2774.11 743.111)" fill="#90B8BA"/>
<rect width="63.1135" height="63.1135" transform="matrix(0.866025 0.5 -0.866025 0.5 2774.11 738.722)" fill="#90B8BA"/>
<rect width="63.1135" height="63.1135" transform="matrix(0.866025 0.5 -0.866025 0.5 2774.11 734.331)" fill="#A6CED1"/>
<path d="M2202 202L2202 80" stroke="#3C6172" stroke-width="4"/>
<path d="M1698 623L1698 491" stroke="#3C6172" stroke-width="4"/>
<path d="M1742 588L1742 457" stroke="#3C6172" stroke-width="4"/>
<path d="M1721 607L1721 434" stroke="#3C6172" stroke-width="4"/>
<path d="M2441.68 1051.32L2442.78 945.656" stroke="#3C6172" stroke-width="4"/>
<path d="M2484 1010L2484 878" stroke="#3C6172" stroke-width="4"/>
<path d="M2463 1031L2463 910" stroke="#3C6172" stroke-width="4"/>
<path d="M2314 837L2314 859" stroke="#D2DC9C" stroke-width="3" stroke-linecap="round"/>
<rect width="99.4516" height="99.4516" transform="matrix(0.866025 0.5 -0.866025 0.5 1987.52 774.961)" fill="#6E9396"/>
<rect width="99.4516" height="99.4516" transform="matrix(0.866025 0.5 -0.866025 0.5 1987.52 776.374)" fill="#6E9396"/>
<rect width="99.4516" height="99.4516" transform="matrix(0.866025 0.5 -0.866025 0.5 1987.52 777.788)" fill="#6E9396"/>
<rect width="99.4516" height="99.4516" transform="matrix(0.866025 0.5 -0.866025 0.5 1987.52 780.618)" fill="#6E9396"/>
<rect width="99.4516" height="99.4516" transform="matrix(0.866025 0.5 -0.866025 0.5 1987.52 782.031)" fill="#6E9396"/>
<rect width="99.4516" height="99.4516" transform="matrix(0.866025 0.5 -0.866025 0.5 1987.52 783.445)" fill="#6E9396"/>
<rect width="99.4516" height="99.4516" transform="matrix(0.866025 0.5 -0.866025 0.5 1987.52 784.86)" fill="#6E9396"/>
<rect width="99.4516" height="99.4516" transform="matrix(0.866025 0.5 -0.866025 0.5 1987.52 779.203)" fill="#6E9396"/>
<rect width="99.4516" height="99.4516" transform="matrix(0.866025 0.5 -0.866025 0.5 1987.52 773.546)" fill="#7BA2A5"/>
<g filter="url(#filter1_d_273_20676)">
<path d="M2702 420C2702 420.552 2702.45 421 2703 421C2703.55 421 2704 420.552 2704 420L2702 420ZM2703 281.333C2705.95 281.333 2708.33 278.946 2708.33 276C2708.33 273.054 2705.95 270.667 2703 270.667C2700.05 270.667 2697.67 273.054 2697.67 276C2697.67 278.946 2700.05 281.333 2703 281.333ZM2704 420L2704 276L2702 276L2702 420L2704 420Z" fill="#E8FE56"/>
</g>
<g filter="url(#filter2_d_273_20676)">
<path d="M2627 974C2627 974.552 2627.45 975 2628 975C2628.55 975 2629 974.552 2629 974H2627ZM2628 847.333C2630.95 847.333 2633.33 844.946 2633.33 842C2633.33 839.054 2630.95 836.667 2628 836.667C2625.05 836.667 2622.67 839.054 2622.67 842C2622.67 844.946 2625.05 847.333 2628 847.333ZM2629 974V842H2627V974H2629Z" fill="#E8FE56"/>
</g>
<g filter="url(#filter3_d_273_20676)">
<path d="M1856 433C1856 433.552 1856.45 434 1857 434C1857.55 434 1858 433.552 1858 433L1856 433ZM1857 292.333C1859.95 292.333 1862.33 289.946 1862.33 287C1862.33 284.054 1859.95 281.667 1857 281.667C1854.05 281.667 1851.67 284.054 1851.67 287C1851.67 289.946 1854.05 292.333 1857 292.333ZM1858 433L1858 287L1856 287L1856 433L1858 433Z" fill="#E8FE56"/>
</g>
<g filter="url(#filter4_d_273_20676)">
<path fill-rule="evenodd" clip-rule="evenodd" d="M2310.03 558.848L2267.39 534.95L2267.29 535.005C2263.28 532.762 2256.09 532.994 2251.25 535.522C2246.99 537.749 2245.95 541.025 2248.5 543.308L2270.59 555.687C2277.45 559.533 2279.72 565.012 2277.66 570.423C2276.08 574.437 2272.2 578.421 2265.97 581.672C2255.12 587.34 2240.45 589.195 2228.66 586.968C2224.64 586.211 2220.9 584.976 2217.82 583.251L2174.8 559.139L2192.74 550.183L2235.37 574.081L2235.48 574.026C2239.48 576.269 2246.67 576.037 2251.51 573.509C2255.78 571.282 2256.81 568.006 2254.27 565.724L2232.18 553.344C2225.32 549.498 2223.05 544.019 2225.11 538.608C2226.68 534.594 2230.57 530.61 2236.79 527.36C2247.65 521.691 2262.32 519.836 2274.1 522.063C2278.12 522.82 2281.87 524.055 2284.95 525.78L2327.96 549.892L2310.03 558.848ZM2348.46 560.843L2348.59 560.775L2334.48 552.866L2244.54 598.16L2258.42 605.945L2294.21 588.019L2326.57 606.158C2329.91 608.033 2333.76 609.318 2337.74 610.042C2349.42 612.176 2362.77 609.502 2371.54 602.575C2376.57 598.603 2379.21 593.871 2379.66 589.191C2380.22 582.883 2376.66 576.654 2369.21 572.476L2348.46 560.843ZM2330.41 569.883L2312.26 578.978L2340.75 594.953L2340.84 594.885C2345.19 597.322 2351.9 596.792 2355.82 593.702C2359.73 590.612 2359.37 586.118 2355.02 583.68L2330.41 569.883ZM2399.37 613.281L2330.37 647.314L2345.05 655.542L2434.79 610.136L2421.72 602.809L2421.19 602.514L2420.7 602.755L2387.31 600.975L2367.17 611.158L2399.37 613.281Z" fill="url(#paint83_linear_273_20676)" shape-rendering="crispEdges"/>
</g>
<path d="M475.992 638.313L530.595 415.333L490.663 415.333L436.688 638.313L475.992 638.313Z" fill="#1C4252"/>
<path d="M589.248 505.192H469.566L458.477 549.819H589.248C598.714 549.819 607.775 547.79 615.889 544.274C639.69 533.997 656.188 510.331 656.188 482.743C656.188 466.921 650.644 452.451 641.583 440.956C629.277 425.539 610.344 415.667 589.248 415.667H491.879L480.79 460.294H589.248C601.554 460.294 611.561 470.301 611.561 482.608C611.561 494.914 601.554 504.921 589.248 504.921V505.192Z" fill="#1C4252"/>
<path d="M342.235 460.386L341.398 460.386L341.334 460.671C329.757 461.146 318.43 471.326 315.699 483.614C312.902 496.199 320.106 506.573 331.972 506.573L353.532 506.573L409.351 549.221H322.494C303.38 549.221 288.338 539.579 280.507 524.468C274.773 513.197 272.881 499.005 276.331 483.479C282.35 456.393 302.524 433.212 326.349 423.16L326.35 423.16C334.477 419.72 343.133 417.738 351.713 417.738H472.595L462.078 460.386H342.235Z" fill="#1C4252" stroke="#1C4252" stroke-width="1.67553"/>
<mask id="mask0_273_20676" style="mask-type:alpha" maskUnits="userSpaceOnUse" x="241" y="505" width="199" height="134">
<path d="M371.17 594.306H250.846L241.016 638.609H361.325C370.05 638.609 378.777 636.648 387.073 633.124C411.19 622.9 431.688 599.441 437.756 572.131C441.237 556.469 439.393 542.067 433.497 530.699C425.588 515.434 410.377 505.653 390.87 505.653H301.283L373.285 549.98H381.02C392.365 549.98 399.361 559.9 396.643 572.131C393.92 584.386 382.514 594.306 371.17 594.306Z" fill="black"/>
</mask>
<g mask="url(#mask0_273_20676)">
<path d="M351.322 499.919H457.255L419.032 650.627L389.545 653.903L351.322 499.919Z" fill="#1C4252"/>
</g>
<mask id="mask1_273_20676" style="mask-type:alpha" maskUnits="userSpaceOnUse" x="241" y="505" width="199" height="134">
<path d="M371.177 594.306H250.853L241.023 638.609H361.332C370.056 638.609 378.784 636.648 387.08 633.124C411.197 622.9 431.694 599.441 437.763 572.131C441.244 556.469 439.4 542.067 433.504 530.699C425.595 515.434 410.384 505.653 390.877 505.653H301.29L373.292 549.98H381.027C392.371 549.98 399.368 559.9 396.65 572.131C393.927 584.386 382.521 594.306 371.177 594.306Z" fill="black"/>
</mask>
<g mask="url(#mask1_273_20676)">
<path d="M227.919 582.917H413.571L374.258 652.81H227.919L227.919 582.917Z" fill="#1C4252"/>
</g>
<path d="M678.947 458.418L739.75 417.76L762.204 447.244L666.937 508.452L678.947 458.418Z" fill="#1C4252"/>
<path d="M723.352 640.727L776.741 417.761L738.259 417.761L681.807 640.727L723.352 640.727Z" fill="#1C4252"/>
<path d="M298.953 812H288.331L280.082 791.208H241.436L233.187 812H222.791L254.544 732.9H267.426L298.953 812ZM260.759 742.279L245.052 781.942H276.466L260.759 742.279ZM332.074 834.6H322.469V755.5H332.074V763.749C335.012 758.325 343.035 754.37 350.719 754.37C365.07 754.37 375.353 765.331 375.353 783.75C375.353 802.169 364.279 813.13 350.041 813.13C342.244 813.13 335.012 809.175 332.074 803.751V834.6ZM348.685 804.994H349.476C359.194 804.994 365.748 796.858 365.748 783.75C365.748 770.642 359.194 762.506 349.476 762.506H348.685C339.306 762.506 332.074 770.642 332.074 783.75C332.074 796.858 339.306 804.994 348.685 804.994ZM406.405 813.13C392.393 813.13 380.302 803.299 380.302 783.637C380.302 763.975 392.958 754.37 406.179 754.37C420.643 754.37 429.796 764.766 429.796 779.456V785.106H389.907C390.359 799.005 398.608 804.994 406.292 804.994H407.196C413.411 804.994 418.609 801.943 420.078 795.502H429.683C427.536 806.802 418.044 813.13 406.405 813.13ZM390.359 777.309H420.191C419.739 767.478 413.976 762.506 406.631 762.506H405.727C399.399 762.506 392.28 766.122 390.359 777.309ZM448.01 812H438.405V755.5H447.445V768.043C449.818 759.455 456.711 754.935 464.169 754.935H469.254V764.088H464.734C454.338 764.088 448.01 771.546 448.01 783.75V812ZM490.624 812H481.019V763.749H468.363V755.5H481.019V744.2C481.019 736.516 484.748 732.9 492.545 732.9H507.8V741.262H495.144C491.754 741.262 490.624 742.392 490.624 745.782V755.5H504.975V763.749H490.624V812ZM531.93 813.13C516.901 813.13 505.262 801.265 505.262 783.75C505.262 766.235 516.901 754.37 531.93 754.37C546.959 754.37 558.711 766.235 558.711 783.75C558.711 801.265 546.959 813.13 531.93 813.13ZM531.478 804.994H532.495C541.987 804.994 549.106 797.197 549.106 783.75C549.106 770.303 541.987 762.506 532.495 762.506H531.478C521.986 762.506 514.867 770.303 514.867 783.75C514.867 797.197 521.986 804.994 531.478 804.994ZM576.613 812H567.008V755.5H576.048V768.043C578.421 759.455 585.314 754.935 592.772 754.935H597.857V764.088H593.337C582.941 764.088 576.613 771.546 576.613 783.75V812ZM612.787 812H603.182V755.5H612.787V763.749C616.177 758.438 622.053 754.37 630.302 754.37C638.438 754.37 645.218 757.873 648.608 765.331C652.902 757.534 660.134 754.37 667.705 754.37C680.022 754.37 687.706 762.054 687.706 774.484V812H678.101V776.744C678.101 767.704 674.372 762.506 666.123 762.506H665.332C656.97 762.506 650.19 770.303 650.19 781.49V812H640.585V776.744C640.585 767.704 636.969 762.506 628.72 762.506H627.816C619.454 762.506 612.787 770.303 612.787 781.49V812ZM713.974 813.13C703.465 813.13 695.555 806.011 695.555 796.406C695.555 783.637 706.742 779.795 715.782 779.117L732.054 777.761V775.84C732.054 767.365 727.308 762.506 719.511 762.506H718.72C712.392 762.506 706.968 765.557 706.29 771.659H696.685C697.363 761.376 706.629 754.37 719.172 754.37C734.088 754.37 741.659 764.314 741.659 775.84V799.57C741.659 802.96 741.659 808.045 742.224 812H733.184C732.732 809.288 732.619 804.316 732.619 802.96C730.359 808.045 723.24 813.13 713.974 813.13ZM714.991 804.994H716.008C723.24 804.994 732.054 799.005 732.054 791.66V785.332L717.251 786.462C710.132 787.027 705.16 790.417 705.16 795.954C705.16 801.152 709.341 804.994 714.991 804.994ZM762.49 812H752.885V755.5H762.49V763.975C765.767 758.438 771.982 754.37 781.135 754.37C793.565 754.37 801.249 762.054 801.249 774.484V812H791.644V776.744C791.644 767.704 787.915 762.506 779.553 762.506H778.649C769.27 762.506 762.49 770.303 762.49 781.49V812ZM842.75 812H829.529C821.845 812 817.664 808.045 817.664 800.361V763.749H805.008V755.5H817.664V737.194H827.269V755.5H841.055V763.749H827.269V799.005C827.269 802.395 828.399 803.525 831.789 803.525H842.75V812ZM847.835 826.916H843.767V820.475H847.496C852.016 820.475 854.276 818.215 854.276 813.695V812H847.722V799.231H860.491V814.26C860.491 822.509 855.858 826.916 847.835 826.916ZM888.41 752.788L908.863 732.9H916.434V812H906.716V747.251L888.41 764.879V752.788ZM958.585 813.13C939.262 813.13 927.849 799.005 927.849 772.45C927.849 745.895 939.262 731.77 958.585 731.77C977.908 731.77 989.208 745.895 989.208 772.45C989.208 799.005 977.908 813.13 958.585 813.13ZM958.02 804.316H959.15C967.964 804.316 979.264 797.423 979.264 772.45C979.264 747.477 967.964 740.584 959.15 740.584H958.02C949.206 740.584 937.793 747.477 937.793 772.45C937.793 797.423 949.206 804.316 958.02 804.316ZM1027.2 813.13C1007.88 813.13 996.466 799.005 996.466 772.45C996.466 745.895 1007.88 731.77 1027.2 731.77C1046.52 731.77 1057.82 745.895 1057.82 772.45C1057.82 799.005 1046.52 813.13 1027.2 813.13ZM1026.64 804.316H1027.77C1036.58 804.316 1047.88 797.423 1047.88 772.45C1047.88 747.477 1036.58 740.584 1027.77 740.584H1026.64C1017.82 740.584 1006.41 747.477 1006.41 772.45C1006.41 797.423 1017.82 804.316 1026.64 804.316ZM1081.35 778.1C1069.6 778.1 1062.48 768.947 1062.48 755.161C1062.48 741.488 1069.6 732.335 1081.35 732.335C1093.11 732.335 1100.23 741.488 1100.23 755.161C1100.23 768.947 1093.11 778.1 1081.35 778.1ZM1091.64 812H1082.82L1130.28 732.9H1139.1L1091.64 812ZM1081.13 771.433H1081.58C1088.81 771.433 1092.2 763.184 1092.2 755.161C1092.2 747.251 1088.81 739.002 1081.58 739.002H1081.13C1073.9 739.002 1070.51 747.251 1070.51 755.161C1070.51 763.184 1073.9 771.433 1081.13 771.433ZM1140.34 812.565C1128.7 812.565 1121.58 803.412 1121.58 789.626C1121.58 775.953 1128.7 766.8 1140.34 766.8C1152.09 766.8 1159.21 775.953 1159.21 789.626C1159.21 803.412 1152.09 812.565 1140.34 812.565ZM1140.11 805.898H1140.57C1147.8 805.898 1151.3 797.649 1151.3 789.626C1151.3 781.716 1147.8 773.467 1140.57 773.467H1140.11C1132.88 773.467 1129.49 781.716 1129.49 789.626C1129.49 797.649 1132.88 805.898 1140.11 805.898ZM1211.41 813.13C1196.38 813.13 1184.74 801.265 1184.74 783.75C1184.74 766.235 1196.38 754.37 1211.41 754.37C1226.44 754.37 1238.19 766.235 1238.19 783.75C1238.19 801.265 1226.44 813.13 1211.41 813.13ZM1210.96 804.994H1211.97C1221.47 804.994 1228.58 797.197 1228.58 783.75C1228.58 770.303 1221.47 762.506 1211.97 762.506H1210.96C1201.46 762.506 1194.35 770.303 1194.35 783.75C1194.35 797.197 1201.46 804.994 1210.96 804.994ZM1256.09 834.6H1246.49V755.5H1256.09V763.749C1259.03 758.325 1267.05 754.37 1274.74 754.37C1289.09 754.37 1299.37 765.331 1299.37 783.75C1299.37 802.169 1288.3 813.13 1274.06 813.13C1266.26 813.13 1259.03 809.175 1256.09 803.751V834.6ZM1272.7 804.994H1273.49C1283.21 804.994 1289.77 796.858 1289.77 783.75C1289.77 770.642 1283.21 762.506 1273.49 762.506H1272.7C1263.32 762.506 1256.09 770.642 1256.09 783.75C1256.09 796.858 1263.32 804.994 1272.7 804.994ZM1330.42 813.13C1316.41 813.13 1304.32 803.299 1304.32 783.637C1304.32 763.975 1316.98 754.37 1330.2 754.37C1344.66 754.37 1353.81 764.766 1353.81 779.456V785.106H1313.93C1314.38 799.005 1322.63 804.994 1330.31 804.994H1331.21C1337.43 804.994 1342.63 801.943 1344.1 795.502H1353.7C1351.55 806.802 1342.06 813.13 1330.42 813.13ZM1314.38 777.309H1344.21C1343.76 767.478 1337.99 762.506 1330.65 762.506H1329.75C1323.42 762.506 1316.3 766.122 1314.38 777.309ZM1372.03 812H1362.42V755.5H1372.03V763.975C1375.3 758.438 1381.52 754.37 1390.67 754.37C1403.1 754.37 1410.79 762.054 1410.79 774.484V812H1401.18V776.744C1401.18 767.704 1397.45 762.506 1389.09 762.506H1388.19C1378.81 762.506 1372.03 770.303 1372.03 781.49V812ZM1462.68 813.13C1447.88 813.13 1439.97 805.333 1439.74 794.711H1449.35C1450.02 801.83 1455.56 804.994 1462.57 804.994H1463.58C1470.14 804.994 1474.88 801.83 1474.88 796.745C1474.88 792.903 1472.74 790.304 1466.41 789.061L1458.16 787.366C1449.23 785.558 1442 781.151 1442 771.546C1442 760.359 1451.95 754.37 1463.02 754.37C1477.6 754.37 1484.83 762.619 1485.05 772.789H1475.45C1474.77 767.365 1471.04 762.506 1463.58 762.506H1462.57C1455.79 762.506 1451.61 766.235 1451.61 770.529C1451.61 774.823 1454.21 777.083 1460.31 778.326L1469.23 780.247C1477.6 781.942 1484.49 786.236 1484.49 796.18C1484.49 806.576 1475.56 813.13 1462.68 813.13ZM1516.4 813.13C1501.37 813.13 1489.73 801.265 1489.73 783.75C1489.73 766.235 1501.37 754.37 1516.4 754.37C1531.43 754.37 1543.18 766.235 1543.18 783.75C1543.18 801.265 1531.43 813.13 1516.4 813.13ZM1515.95 804.994H1516.96C1526.46 804.994 1533.57 797.197 1533.57 783.75C1533.57 770.303 1526.46 762.506 1516.96 762.506H1515.95C1506.45 762.506 1499.34 770.303 1499.34 783.75C1499.34 797.197 1506.45 804.994 1515.95 804.994ZM1570.23 813.13C1557.58 813.13 1550.91 804.655 1550.91 792.79V755.5H1560.52V790.53C1560.52 800.135 1564.47 804.994 1572.61 804.994H1573.62C1581.2 804.994 1588.54 797.875 1588.54 786.01V755.5H1598.15V812H1588.54V801.265C1586.17 807.932 1579.84 813.13 1570.23 813.13ZM1619.55 812H1609.94V755.5H1618.98V768.043C1621.35 759.455 1628.25 754.935 1635.7 754.935H1640.79V764.088H1636.27C1625.87 764.088 1619.55 771.546 1619.55 783.75V812ZM1667.3 813.13C1650.12 813.13 1640.63 800.361 1640.63 783.75C1640.63 767.139 1650.12 754.37 1667.3 754.37C1679.95 754.37 1688.99 761.828 1690.12 773.919H1680.52C1679.39 767.252 1674.64 762.506 1667.86 762.506H1666.84C1655.54 762.506 1650.23 772.45 1650.23 783.75C1650.23 795.05 1655.54 804.994 1666.84 804.994H1667.86C1674.64 804.994 1679.39 800.135 1680.52 793.581H1690.12C1688.65 805.559 1679.95 813.13 1667.3 813.13ZM1720.78 813.13C1706.77 813.13 1694.68 803.299 1694.68 783.637C1694.68 763.975 1707.33 754.37 1720.55 754.37C1735.02 754.37 1744.17 764.766 1744.17 779.456V785.106H1704.28C1704.73 799.005 1712.98 804.994 1720.67 804.994H1721.57C1727.79 804.994 1732.98 801.943 1734.45 795.502H1744.06C1741.91 806.802 1732.42 813.13 1720.78 813.13ZM1704.73 777.309H1734.57C1734.11 767.478 1728.35 762.506 1721.01 762.506H1720.1C1713.77 762.506 1706.66 766.122 1704.73 777.309ZM1751.99 826.916H1747.92V820.475H1751.65C1756.17 820.475 1758.43 818.215 1758.43 813.695V812H1751.88V799.231H1764.65V814.26C1764.65 822.509 1760.01 826.916 1751.99 826.916ZM253.979 929.13C236.803 929.13 227.311 916.361 227.311 899.75C227.311 883.139 236.803 870.37 253.979 870.37C266.635 870.37 275.675 877.828 276.805 889.919H267.2C266.07 883.252 261.324 878.506 254.544 878.506H253.527C242.227 878.506 236.916 888.45 236.916 899.75C236.916 911.05 242.227 920.994 253.527 920.994H254.544C261.324 920.994 266.07 916.135 267.2 909.581H276.805C275.336 921.559 266.635 929.13 253.979 929.13ZM307.916 929.13C292.887 929.13 281.248 917.265 281.248 899.75C281.248 882.235 292.887 870.37 307.916 870.37C322.945 870.37 334.697 882.235 334.697 899.75C334.697 917.265 322.945 929.13 307.916 929.13ZM307.464 920.994H308.481C317.973 920.994 325.092 913.197 325.092 899.75C325.092 886.303 317.973 878.506 308.481 878.506H307.464C297.972 878.506 290.853 886.303 290.853 899.75C290.853 913.197 297.972 920.994 307.464 920.994ZM352.6 928H342.995V871.5H352.6V879.975C355.877 874.438 362.092 870.37 371.245 870.37C383.675 870.37 391.359 878.054 391.359 890.484V928H381.754V892.744C381.754 883.704 378.025 878.506 369.663 878.506H368.759C359.38 878.506 352.6 886.303 352.6 897.49V928ZM432.86 928H419.639C411.955 928 407.774 924.045 407.774 916.361V879.749H395.118V871.5H407.774V853.194H417.379V871.5H431.165V879.749H417.379V915.005C417.379 918.395 418.509 919.525 421.899 919.525H432.86V928ZM448.341 928H438.736V871.5H447.776V884.043C450.149 875.455 457.042 870.935 464.5 870.935H469.585V880.088H465.065C454.669 880.088 448.341 887.546 448.341 899.75V928ZM485.079 861.33H474.344V849.804H485.079V861.33ZM484.514 928H474.909V871.5H484.514V928ZM524.435 929.13C516.751 929.13 508.728 925.175 505.79 919.751V928H496.185V848.9H505.79V879.749C508.728 874.325 515.96 870.37 523.757 870.37C537.995 870.37 549.069 881.331 549.069 899.75C549.069 918.169 538.786 929.13 524.435 929.13ZM522.401 920.994H523.192C532.91 920.994 539.464 912.858 539.464 899.75C539.464 886.642 532.91 878.506 523.192 878.506H522.401C513.022 878.506 505.79 886.642 505.79 899.75C505.79 912.858 513.022 920.994 522.401 920.994ZM576.166 929.13C563.51 929.13 556.843 920.655 556.843 908.79V871.5H566.448V906.53C566.448 916.135 570.403 920.994 578.539 920.994H579.556C587.127 920.994 594.472 913.875 594.472 902.01V871.5H604.077V928H594.472V917.265C592.099 923.932 585.771 929.13 576.166 929.13ZM646.721 928H633.5C625.816 928 621.635 924.045 621.635 916.361V879.749H608.979V871.5H621.635V853.194H631.24V871.5H645.026V879.749H631.24V915.005C631.24 918.395 632.37 919.525 635.76 919.525H646.721V928ZM675.1 929.13C660.071 929.13 648.432 917.265 648.432 899.75C648.432 882.235 660.071 870.37 675.1 870.37C690.129 870.37 701.881 882.235 701.881 899.75C701.881 917.265 690.129 929.13 675.1 929.13ZM674.648 920.994H675.665C685.157 920.994 692.276 913.197 692.276 899.75C692.276 886.303 685.157 878.506 675.665 878.506H674.648C665.156 878.506 658.037 886.303 658.037 899.75C658.037 913.197 665.156 920.994 674.648 920.994ZM719.784 928H710.179V871.5H719.219V884.043C721.592 875.455 728.485 870.935 735.943 870.935H741.028V880.088H736.508C726.112 880.088 719.784 887.546 719.784 899.75V928ZM770.527 898.055H740.808V889.58H770.527V898.055ZM794.378 928H784.773V879.749H772.117V871.5H784.773V860.2C784.773 852.516 788.502 848.9 796.299 848.9H811.554V857.262H798.898C795.508 857.262 794.378 858.392 794.378 861.782V871.5H808.729V879.749H794.378V928ZM823.889 928H814.284V871.5H823.324V884.043C825.697 875.455 832.59 870.935 840.048 870.935H845.133V880.088H840.613C830.217 880.088 823.889 887.546 823.889 899.75V928ZM860.627 861.33H849.892V849.804H860.627V861.33ZM860.062 928H850.457V871.5H860.062V928ZM894.446 929.13C880.434 929.13 868.343 919.299 868.343 899.637C868.343 879.975 880.999 870.37 894.22 870.37C908.684 870.37 917.837 880.766 917.837 895.456V901.106H877.948C878.4 915.005 886.649 920.994 894.333 920.994H895.237C901.452 920.994 906.65 917.943 908.119 911.502H917.724C915.577 922.802 906.085 929.13 894.446 929.13ZM878.4 893.309H908.232C907.78 883.478 902.017 878.506 894.672 878.506H893.768C887.44 878.506 880.321 882.122 878.4 893.309ZM936.051 928H926.446V871.5H936.051V879.975C939.328 874.438 945.543 870.37 954.696 870.37C967.126 870.37 974.81 878.054 974.81 890.484V928H965.205V892.744C965.205 883.704 961.476 878.506 953.114 878.506H952.21C942.831 878.506 936.051 886.303 936.051 897.49V928ZM1007.26 929.13C992.906 929.13 982.623 918.169 982.623 899.75C982.623 881.331 993.697 870.37 1008.05 870.37C1015.73 870.37 1022.96 874.325 1026.02 879.749V848.9H1035.62V928H1026.02V919.751C1022.96 925.175 1014.94 929.13 1007.26 929.13ZM1008.5 920.994H1009.29C1018.78 920.994 1026.02 912.858 1026.02 899.75C1026.02 886.642 1018.78 878.506 1009.29 878.506H1008.5C998.782 878.506 992.341 886.642 992.341 899.75C992.341 912.858 998.782 920.994 1008.5 920.994ZM1056.84 928H1047.24V848.9H1056.84V928ZM1108.51 871.5H1118.46L1095.18 926.531V936.927C1095.18 944.498 1091.45 948.114 1083.77 948.114H1065.57V939.639H1081.51C1084.9 939.639 1086.03 938.509 1086.03 935.119V926.87L1062.18 871.5H1072.47L1090.66 914.44L1108.51 871.5ZM1183.63 880.088L1150.29 919.751H1185.32V928H1139.22V919.299L1172.44 879.749H1139.79V871.5H1183.63V880.088ZM1202.2 928H1192.59V848.9H1202.2V897.49L1228.75 871.5H1241.52L1218.02 893.987L1242.65 928H1230.79L1211.12 900.541L1202.2 909.242V928ZM1277.27 918.169L1304.17 848.9H1314.9L1283.37 928H1270.61L1238.29 848.9H1249.02L1277.27 918.169ZM1362.74 918.96L1387.38 848.9H1404.21V928H1394.04V857.488L1369.3 928H1356.07L1330.88 857.714V928H1320.71V848.9H1337.77L1362.74 918.96Z" fill="#1C4252"/>
</g>
<defs>
<filter id="filter0_d_273_20676" x="1823.63" y="333.931" width="980.046" height="775.834" filterUnits="userSpaceOnUse" color-interpolation-filters="sRGB">
<feFlood flood-opacity="0" result="BackgroundImageFix"/>
<feColorMatrix in="SourceAlpha" type="matrix" values="0 0 0 0 0 0 0 0 0 0 0 0 0 0 0 0 0 0 127 0" result="hardAlpha"/>
<feOffset dy="197"/>
<feGaussianBlur stdDeviation="26.35"/>
<feComposite in2="hardAlpha" operator="out"/>
<feColorMatrix type="matrix" values="0 0 0 0 0.615686 0 0 0 0 0.67451 0 0 0 0 0.207843 0 0 0 0.2 0"/>
<feBlend mode="normal" in2="BackgroundImageFix" result="effect1_dropShadow_273_20676"/>
<feBlend mode="normal" in="SourceGraphic" in2="effect1_dropShadow_273_20676" result="shape"/>
</filter>
<filter id="filter1_d_273_20676" x="2681.07" y="254.067" width="43.866" height="183.533" filterUnits="userSpaceOnUse" color-interpolation-filters="sRGB">
<feFlood flood-opacity="0" result="BackgroundImageFix"/>
<feColorMatrix in="SourceAlpha" type="matrix" values="0 0 0 0 0 0 0 0 0 0 0 0 0 0 0 0 0 0 127 0" result="hardAlpha"/>
<feOffset/>
<feGaussianBlur stdDeviation="8.3"/>
<feComposite in2="hardAlpha" operator="out"/>
<feColorMatrix type="matrix" values="0 0 0 0 0 0 0 0 0 0 0 0 0 0 0 0 0 0 0.1 0"/>
<feBlend mode="normal" in2="BackgroundImageFix" result="effect1_dropShadow_273_20676"/>
<feBlend mode="normal" in="SourceGraphic" in2="effect1_dropShadow_273_20676" result="shape"/>
</filter>
<filter id="filter2_d_273_20676" x="2606.07" y="820.067" width="43.866" height="171.533" filterUnits="userSpaceOnUse" color-interpolation-filters="sRGB">
<feFlood flood-opacity="0" result="BackgroundImageFix"/>
<feColorMatrix in="SourceAlpha" type="matrix" values="0 0 0 0 0 0 0 0 0 0 0 0 0 0 0 0 0 0 127 0" result="hardAlpha"/>
<feOffset/>
<feGaussianBlur stdDeviation="8.3"/>
<feComposite in2="hardAlpha" operator="out"/>
<feColorMatrix type="matrix" values="0 0 0 0 0 0 0 0 0 0 0 0 0 0 0 0 0 0 0.1 0"/>
<feBlend mode="normal" in2="BackgroundImageFix" result="effect1_dropShadow_273_20676"/>
<feBlend mode="normal" in="SourceGraphic" in2="effect1_dropShadow_273_20676" result="shape"/>
</filter>
<filter id="filter3_d_273_20676" x="1835.07" y="265.067" width="43.866" height="185.533" filterUnits="userSpaceOnUse" color-interpolation-filters="sRGB">
<feFlood flood-opacity="0" result="BackgroundImageFix"/>
<feColorMatrix in="SourceAlpha" type="matrix" values="0 0 0 0 0 0 0 0 0 0 0 0 0 0 0 0 0 0 127 0" result="hardAlpha"/>
<feOffset/>
<feGaussianBlur stdDeviation="8.3"/>
<feComposite in2="hardAlpha" operator="out"/>
<feColorMatrix type="matrix" values="0 0 0 0 0 0 0 0 0 0 0 0 0 0 0 0 0 0 0.1 0"/>
<feBlend mode="normal" in2="BackgroundImageFix" result="effect1_dropShadow_273_20676"/>
<feBlend mode="normal" in="SourceGraphic" in2="effect1_dropShadow_273_20676" result="shape"/>
</filter>
<filter id="filter4_d_273_20676" x="2174.8" y="521.146" width="261.986" height="136.396" filterUnits="userSpaceOnUse" color-interpolation-filters="sRGB">
<feFlood flood-opacity="0" result="BackgroundImageFix"/>
<feColorMatrix in="SourceAlpha" type="matrix" values="0 0 0 0 0 0 0 0 0 0 0 0 0 0 0 0 0 0 127 0" result="hardAlpha"/>
<feOffset dx="1" dy="1"/>
<feGaussianBlur stdDeviation="0.5"/>
<feComposite in2="hardAlpha" operator="out"/>
<feColorMatrix type="matrix" values="0 0 0 0 0 0 0 0 0 0 0 0 0 0 0 0 0 0 0.12 0"/>
<feBlend mode="normal" in2="BackgroundImageFix" result="effect1_dropShadow_273_20676"/>
<feBlend mode="normal" in="SourceGraphic" in2="effect1_dropShadow_273_20676" result="shape"/>
</filter>
<linearGradient id="paint0_linear_273_20676" x1="-112.2" y1="1308.16" x2="1671.5" y2="-382.741" gradientUnits="userSpaceOnUse">
<stop stop-color="#EBF3F4"/>
<stop offset="1" stop-color="#C8DEDF"/>
</linearGradient>
<linearGradient id="paint1_linear_273_20676" x1="1320.91" y1="-4941.71" x2="3373.6" y2="-4941.7" gradientUnits="userSpaceOnUse">
<stop stop-color="#3C6172" stop-opacity="0"/>
<stop offset="0.52" stop-color="#3F5762"/>
<stop offset="1" stop-color="#3F5762" stop-opacity="0"/>
</linearGradient>
<linearGradient id="paint2_linear_273_20676" x1="1376.6" y1="-4837.03" x2="3421.52" y2="-4837.03" gradientUnits="userSpaceOnUse">
<stop stop-color="#3C6172" stop-opacity="0"/>
<stop offset="0.52" stop-color="#3F5762"/>
<stop offset="1" stop-color="#3F5762" stop-opacity="0"/>
</linearGradient>
<linearGradient id="paint3_linear_273_20676" x1="1375.74" y1="-4986.41" x2="3468.38" y2="-4986.4" gradientUnits="userSpaceOnUse">
<stop stop-color="#3C6172" stop-opacity="0"/>
<stop offset="0.52" stop-color="#3F5762"/>
<stop offset="1" stop-color="#3F5762" stop-opacity="0"/>
</linearGradient>
<linearGradient id="paint4_linear_273_20676" x1="1476.82" y1="-4772.77" x2="3521.74" y2="-4772.76" gradientUnits="userSpaceOnUse">
<stop stop-color="#3C6172" stop-opacity="0"/>
<stop offset="0.52" stop-color="#3F5762"/>
<stop offset="1" stop-color="#3F5762" stop-opacity="0"/>
</linearGradient>
<linearGradient id="paint5_linear_273_20676" x1="1582.48" y1="-4699.78" x2="3627.4" y2="-4699.77" gradientUnits="userSpaceOnUse">
<stop stop-color="#3C6172" stop-opacity="0"/>
<stop offset="0.52" stop-color="#3F5762"/>
<stop offset="1" stop-color="#3F5762" stop-opacity="0"/>
</linearGradient>
<linearGradient id="paint6_linear_273_20676" x1="1669.62" y1="-4623.53" x2="3714.55" y2="-4623.52" gradientUnits="userSpaceOnUse">
<stop stop-color="#3C6172" stop-opacity="0"/>
<stop offset="0.52" stop-color="#3F5762"/>
<stop offset="1" stop-color="#3F5762" stop-opacity="0"/>
</linearGradient>
<linearGradient id="paint7_linear_273_20676" x1="1827.57" y1="-4579.96" x2="3872.5" y2="-4579.95" gradientUnits="userSpaceOnUse">
<stop stop-color="#3C6172" stop-opacity="0"/>
<stop offset="0.52" stop-color="#3F5762"/>
<stop offset="1" stop-color="#3F5762" stop-opacity="0"/>
</linearGradient>
<linearGradient id="paint8_linear_273_20676" x1="1883.13" y1="-4498.26" x2="3928.05" y2="-4498.25" gradientUnits="userSpaceOnUse">
<stop stop-color="#3C6172" stop-opacity="0"/>
<stop offset="0.52" stop-color="#3F5762"/>
<stop offset="1" stop-color="#3F5762" stop-opacity="0"/>
</linearGradient>
<linearGradient id="paint9_linear_273_20676" x1="1983.34" y1="-4433.99" x2="4028.27" y2="-4433.98" gradientUnits="userSpaceOnUse">
<stop stop-color="#3C6172" stop-opacity="0"/>
<stop offset="0.52" stop-color="#3F5762"/>
<stop offset="1" stop-color="#3F5762" stop-opacity="0"/>
</linearGradient>
<linearGradient id="paint10_linear_273_20676" x1="2089.01" y1="-4361.01" x2="4133.93" y2="-4361" gradientUnits="userSpaceOnUse">
<stop stop-color="#3C6172" stop-opacity="0"/>
<stop offset="0.52" stop-color="#3F5762"/>
<stop offset="1" stop-color="#3F5762" stop-opacity="0"/>
</linearGradient>
<linearGradient id="paint11_linear_273_20676" x1="2176.15" y1="-4284.76" x2="4221.07" y2="-4284.75" gradientUnits="userSpaceOnUse">
<stop stop-color="#3C6172" stop-opacity="0"/>
<stop offset="0.52" stop-color="#3F5762"/>
<stop offset="1" stop-color="#3F5762" stop-opacity="0"/>
</linearGradient>
<linearGradient id="paint12_linear_273_20676" x1="1827.57" y1="-4579.96" x2="3872.5" y2="-4579.95" gradientUnits="userSpaceOnUse">
<stop stop-color="#3C6172" stop-opacity="0"/>
<stop offset="0.52" stop-color="#3F5762"/>
<stop offset="1" stop-color="#3F5762" stop-opacity="0"/>
</linearGradient>
<linearGradient id="paint13_linear_273_20676" x1="1883.13" y1="-4498.26" x2="3928.05" y2="-4498.25" gradientUnits="userSpaceOnUse">
<stop stop-color="#3C6172" stop-opacity="0"/>
<stop offset="0.52" stop-color="#3F5762"/>
<stop offset="1" stop-color="#3F5762" stop-opacity="0"/>
</linearGradient>
<linearGradient id="paint14_linear_273_20676" x1="500.8" y1="-5688.87" x2="2545.72" y2="-5688.86" gradientUnits="userSpaceOnUse">
<stop stop-color="#3C6172" stop-opacity="0"/>
<stop offset="0.52" stop-color="#3F5762"/>
<stop offset="1" stop-color="#3F5762" stop-opacity="0"/>
</linearGradient>
<linearGradient id="paint15_linear_273_20676" x1="556.354" y1="-5607.17" x2="2601.28" y2="-5607.16" gradientUnits="userSpaceOnUse">
<stop stop-color="#3C6172" stop-opacity="0"/>
<stop offset="0.52" stop-color="#3F5762"/>
<stop offset="1" stop-color="#3F5762" stop-opacity="0"/>
</linearGradient>
<linearGradient id="paint16_linear_273_20676" x1="556.354" y1="-5607.17" x2="2601.28" y2="-5607.16" gradientUnits="userSpaceOnUse">
<stop stop-color="#3C6172" stop-opacity="0"/>
<stop offset="0.52" stop-color="#3F5762"/>
<stop offset="1" stop-color="#3F5762" stop-opacity="0"/>
</linearGradient>
<linearGradient id="paint17_linear_273_20676" x1="656.57" y1="-5542.9" x2="2701.49" y2="-5542.89" gradientUnits="userSpaceOnUse">
<stop stop-color="#3C6172" stop-opacity="0"/>
<stop offset="0.52" stop-color="#3F5762"/>
<stop offset="1" stop-color="#3F5762" stop-opacity="0"/>
</linearGradient>
<linearGradient id="paint18_linear_273_20676" x1="762.232" y1="-5469.92" x2="2807.16" y2="-5469.91" gradientUnits="userSpaceOnUse">
<stop stop-color="#3C6172" stop-opacity="0"/>
<stop offset="0.52" stop-color="#3F5762"/>
<stop offset="1" stop-color="#3F5762" stop-opacity="0"/>
</linearGradient>
<linearGradient id="paint19_linear_273_20676" x1="849.377" y1="-5393.67" x2="2894.3" y2="-5393.66" gradientUnits="userSpaceOnUse">
<stop stop-color="#3C6172" stop-opacity="0"/>
<stop offset="0.52" stop-color="#3F5762"/>
<stop offset="1" stop-color="#3F5762" stop-opacity="0"/>
</linearGradient>
<linearGradient id="paint20_linear_273_20676" x1="1007.33" y1="-5350.1" x2="3052.25" y2="-5350.09" gradientUnits="userSpaceOnUse">
<stop stop-color="#3C6172" stop-opacity="0"/>
<stop offset="0.52" stop-color="#3F5762"/>
<stop offset="1" stop-color="#3F5762" stop-opacity="0"/>
</linearGradient>
<linearGradient id="paint21_linear_273_20676" x1="1062.88" y1="-5268.4" x2="3107.81" y2="-5268.39" gradientUnits="userSpaceOnUse">
<stop stop-color="#3C6172" stop-opacity="0"/>
<stop offset="0.52" stop-color="#3F5762"/>
<stop offset="1" stop-color="#3F5762" stop-opacity="0"/>
</linearGradient>
<linearGradient id="paint22_linear_273_20676" x1="1163.1" y1="-5204.13" x2="3208.02" y2="-5204.12" gradientUnits="userSpaceOnUse">
<stop stop-color="#3C6172" stop-opacity="0"/>
<stop offset="0.52" stop-color="#3F5762"/>
<stop offset="1" stop-color="#3F5762" stop-opacity="0"/>
</linearGradient>
<linearGradient id="paint23_linear_273_20676" x1="1268.76" y1="-5131.15" x2="3313.68" y2="-5131.14" gradientUnits="userSpaceOnUse">
<stop stop-color="#3C6172" stop-opacity="0"/>
<stop offset="0.52" stop-color="#3F5762"/>
<stop offset="1" stop-color="#3F5762" stop-opacity="0"/>
</linearGradient>
<linearGradient id="paint24_linear_273_20676" x1="1355.9" y1="-5054.9" x2="3400.83" y2="-5054.89" gradientUnits="userSpaceOnUse">
<stop stop-color="#3C6172" stop-opacity="0"/>
<stop offset="0.52" stop-color="#3F5762"/>
<stop offset="1" stop-color="#3F5762" stop-opacity="0"/>
</linearGradient>
<linearGradient id="paint25_linear_273_20676" x1="1007.33" y1="-5350.1" x2="3052.25" y2="-5350.09" gradientUnits="userSpaceOnUse">
<stop stop-color="#3C6172" stop-opacity="0"/>
<stop offset="0.52" stop-color="#3F5762"/>
<stop offset="1" stop-color="#3F5762" stop-opacity="0"/>
</linearGradient>
<linearGradient id="paint26_linear_273_20676" x1="1062.88" y1="-5268.4" x2="3107.81" y2="-5268.39" gradientUnits="userSpaceOnUse">
<stop stop-color="#3C6172" stop-opacity="0"/>
<stop offset="0.52" stop-color="#3F5762"/>
<stop offset="1" stop-color="#3F5762" stop-opacity="0"/>
</linearGradient>
<linearGradient id="paint27_linear_273_20676" x1="1163.1" y1="-5204.13" x2="3208.02" y2="-5204.12" gradientUnits="userSpaceOnUse">
<stop stop-color="#3C6172" stop-opacity="0"/>
<stop offset="0.52" stop-color="#3F5762"/>
<stop offset="1" stop-color="#3F5762" stop-opacity="0"/>
</linearGradient>
<linearGradient id="paint28_linear_273_20676" x1="1268.76" y1="-5131.15" x2="3313.68" y2="-5131.14" gradientUnits="userSpaceOnUse">
<stop stop-color="#3C6172" stop-opacity="0"/>
<stop offset="0.52" stop-color="#3F5762"/>
<stop offset="1" stop-color="#3F5762" stop-opacity="0"/>
</linearGradient>
<linearGradient id="paint29_linear_273_20676" x1="1355.9" y1="-5054.9" x2="3400.83" y2="-5054.89" gradientUnits="userSpaceOnUse">
<stop stop-color="#3C6172" stop-opacity="0"/>
<stop offset="0.52" stop-color="#3F5762"/>
<stop offset="1" stop-color="#3F5762" stop-opacity="0"/>
</linearGradient>
<linearGradient id="paint30_linear_273_20676" x1="1567.61" y1="-7277.4" x2="4439.16" y2="-7277.38" gradientUnits="userSpaceOnUse">
<stop stop-color="#3C6172" stop-opacity="0"/>
<stop offset="0.52" stop-color="#3F5762"/>
<stop offset="1" stop-color="#3F5762" stop-opacity="0"/>
</linearGradient>
<linearGradient id="paint31_linear_273_20676" x1="1489.18" y1="-7227.29" x2="4360.73" y2="-7227.27" gradientUnits="userSpaceOnUse">
<stop stop-color="#3C6172" stop-opacity="0"/>
<stop offset="0.52" stop-color="#3F5762"/>
<stop offset="1" stop-color="#3F5762" stop-opacity="0"/>
</linearGradient>
<linearGradient id="paint32_linear_273_20676" x1="1421.64" y1="-7168.47" x2="4293.19" y2="-7168.45" gradientUnits="userSpaceOnUse">
<stop stop-color="#3C6172" stop-opacity="0"/>
<stop offset="0.52" stop-color="#3F5762"/>
<stop offset="1" stop-color="#3F5762" stop-opacity="0"/>
</linearGradient>
<linearGradient id="paint33_linear_273_20676" x1="1361.73" y1="-7109.64" x2="4233.28" y2="-7109.63" gradientUnits="userSpaceOnUse">
<stop stop-color="#3C6172" stop-opacity="0"/>
<stop offset="0.52" stop-color="#3F5762"/>
<stop offset="1" stop-color="#3F5762" stop-opacity="0"/>
</linearGradient>
<linearGradient id="paint34_linear_273_20676" x1="1288.75" y1="-7049.73" x2="4160.3" y2="-7049.72" gradientUnits="userSpaceOnUse">
<stop stop-color="#3C6172" stop-opacity="0"/>
<stop offset="0.52" stop-color="#3F5762"/>
<stop offset="1" stop-color="#3F5762" stop-opacity="0"/>
</linearGradient>
<linearGradient id="paint35_linear_273_20676" x1="1227.75" y1="-6982.19" x2="4099.3" y2="-6982.18" gradientUnits="userSpaceOnUse">
<stop stop-color="#3C6172" stop-opacity="0"/>
<stop offset="0.52" stop-color="#3F5762"/>
<stop offset="1" stop-color="#3F5762" stop-opacity="0"/>
</linearGradient>
<linearGradient id="paint36_linear_273_20676" x1="1069.8" y1="-6965.85" x2="3941.35" y2="-6965.84" gradientUnits="userSpaceOnUse">
<stop stop-color="#3C6172" stop-opacity="0"/>
<stop offset="0.52" stop-color="#3F5762"/>
<stop offset="1" stop-color="#3F5762" stop-opacity="0"/>
</linearGradient>
<linearGradient id="paint37_linear_273_20676" x1="1820.33" y1="-7636.87" x2="4691.88" y2="-7636.85" gradientUnits="userSpaceOnUse">
<stop stop-color="#3C6172" stop-opacity="0"/>
<stop offset="0.52" stop-color="#3F5762"/>
<stop offset="1" stop-color="#3F5762" stop-opacity="0"/>
</linearGradient>
<linearGradient id="paint38_linear_273_20676" x1="1752.79" y1="-7578.04" x2="4624.34" y2="-7578.03" gradientUnits="userSpaceOnUse">
<stop stop-color="#3C6172" stop-opacity="0"/>
<stop offset="0.52" stop-color="#3F5762"/>
<stop offset="1" stop-color="#3F5762" stop-opacity="0"/>
</linearGradient>
<linearGradient id="paint39_linear_273_20676" x1="1692.88" y1="-7519.22" x2="4564.43" y2="-7519.21" gradientUnits="userSpaceOnUse">
<stop stop-color="#3C6172" stop-opacity="0"/>
<stop offset="0.52" stop-color="#3F5762"/>
<stop offset="1" stop-color="#3F5762" stop-opacity="0"/>
</linearGradient>
<linearGradient id="paint40_linear_273_20676" x1="1619.9" y1="-7459.31" x2="4491.45" y2="-7459.3" gradientUnits="userSpaceOnUse">
<stop stop-color="#3C6172" stop-opacity="0"/>
<stop offset="0.52" stop-color="#3F5762"/>
<stop offset="1" stop-color="#3F5762" stop-opacity="0"/>
</linearGradient>
<linearGradient id="paint41_linear_273_20676" x1="1558.9" y1="-7391.77" x2="4430.45" y2="-7391.76" gradientUnits="userSpaceOnUse">
<stop stop-color="#3C6172" stop-opacity="0"/>
<stop offset="0.52" stop-color="#3F5762"/>
<stop offset="1" stop-color="#3F5762" stop-opacity="0"/>
</linearGradient>
<linearGradient id="paint42_linear_273_20676" x1="776.776" y1="-6415.76" x2="3648.33" y2="-6415.74" gradientUnits="userSpaceOnUse">
<stop stop-color="#3C6172" stop-opacity="0"/>
<stop offset="0.52" stop-color="#3F5762"/>
<stop offset="1" stop-color="#3F5762" stop-opacity="0"/>
</linearGradient>
<linearGradient id="paint43_linear_273_20676" x1="698.346" y1="-6365.65" x2="3569.89" y2="-6365.63" gradientUnits="userSpaceOnUse">
<stop stop-color="#3C6172" stop-opacity="0"/>
<stop offset="0.52" stop-color="#3F5762"/>
<stop offset="1" stop-color="#3F5762" stop-opacity="0"/>
</linearGradient>
<linearGradient id="paint44_linear_273_20676" x1="630.81" y1="-6306.83" x2="3502.36" y2="-6306.81" gradientUnits="userSpaceOnUse">
<stop stop-color="#3C6172" stop-opacity="0"/>
<stop offset="0.52" stop-color="#3F5762"/>
<stop offset="1" stop-color="#3F5762" stop-opacity="0"/>
</linearGradient>
<linearGradient id="paint45_linear_273_20676" x1="570.898" y1="-6248" x2="3442.45" y2="-6247.99" gradientUnits="userSpaceOnUse">
<stop stop-color="#3C6172" stop-opacity="0"/>
<stop offset="0.52" stop-color="#3F5762"/>
<stop offset="1" stop-color="#3F5762" stop-opacity="0"/>
</linearGradient>
<linearGradient id="paint46_linear_273_20676" x1="497.914" y1="-6188.09" x2="3369.46" y2="-6188.08" gradientUnits="userSpaceOnUse">
<stop stop-color="#3C6172" stop-opacity="0"/>
<stop offset="0.52" stop-color="#3F5762"/>
<stop offset="1" stop-color="#3F5762" stop-opacity="0"/>
</linearGradient>
<linearGradient id="paint47_linear_273_20676" x1="436.913" y1="-6120.55" x2="3308.46" y2="-6120.54" gradientUnits="userSpaceOnUse">
<stop stop-color="#3C6172" stop-opacity="0"/>
<stop offset="0.52" stop-color="#3F5762"/>
<stop offset="1" stop-color="#3F5762" stop-opacity="0"/>
</linearGradient>
<linearGradient id="paint48_linear_273_20676" x1="278.964" y1="-6104.21" x2="3150.51" y2="-6104.2" gradientUnits="userSpaceOnUse">
<stop stop-color="#3C6172" stop-opacity="0"/>
<stop offset="0.52" stop-color="#3F5762"/>
<stop offset="1" stop-color="#3F5762" stop-opacity="0"/>
</linearGradient>
<linearGradient id="paint49_linear_273_20676" x1="1107.92" y1="-6825.33" x2="3979.47" y2="-6825.32" gradientUnits="userSpaceOnUse">
<stop stop-color="#3C6172" stop-opacity="0"/>
<stop offset="0.52" stop-color="#3F5762"/>
<stop offset="1" stop-color="#3F5762" stop-opacity="0"/>
</linearGradient>
<linearGradient id="paint50_linear_273_20676" x1="1029.49" y1="-6775.23" x2="3901.04" y2="-6775.21" gradientUnits="userSpaceOnUse">
<stop stop-color="#3C6172" stop-opacity="0"/>
<stop offset="0.52" stop-color="#3F5762"/>
<stop offset="1" stop-color="#3F5762" stop-opacity="0"/>
</linearGradient>
<linearGradient id="paint51_linear_273_20676" x1="961.958" y1="-6716.4" x2="3833.51" y2="-6716.39" gradientUnits="userSpaceOnUse">
<stop stop-color="#3C6172" stop-opacity="0"/>
<stop offset="0.52" stop-color="#3F5762"/>
<stop offset="1" stop-color="#3F5762" stop-opacity="0"/>
</linearGradient>
<linearGradient id="paint52_linear_273_20676" x1="902.046" y1="-6657.58" x2="3773.59" y2="-6657.57" gradientUnits="userSpaceOnUse">
<stop stop-color="#3C6172" stop-opacity="0"/>
<stop offset="0.52" stop-color="#3F5762"/>
<stop offset="1" stop-color="#3F5762" stop-opacity="0"/>
</linearGradient>
<linearGradient id="paint53_linear_273_20676" x1="829.063" y1="-6597.67" x2="3700.61" y2="-6597.66" gradientUnits="userSpaceOnUse">
<stop stop-color="#3C6172" stop-opacity="0"/>
<stop offset="0.52" stop-color="#3F5762"/>
<stop offset="1" stop-color="#3F5762" stop-opacity="0"/>
</linearGradient>
<linearGradient id="paint54_linear_273_20676" x1="768.062" y1="-6530.13" x2="3639.61" y2="-6530.12" gradientUnits="userSpaceOnUse">
<stop stop-color="#3C6172" stop-opacity="0"/>
<stop offset="0.52" stop-color="#3F5762"/>
<stop offset="1" stop-color="#3F5762" stop-opacity="0"/>
</linearGradient>
<linearGradient id="paint55_linear_273_20676" x1="41.8225" y1="0" x2="41.8225" y2="83.645" gradientUnits="userSpaceOnUse">
<stop stop-color="#65838F"/>
<stop offset="1" stop-color="#65838F" stop-opacity="0"/>
</linearGradient>
<linearGradient id="paint56_linear_273_20676" x1="2764.17" y1="41.0147" x2="2685.5" y2="204.837" gradientUnits="userSpaceOnUse">
<stop stop-color="#9BC9CB"/>
<stop offset="1" stop-color="#9BC9CB" stop-opacity="0"/>
</linearGradient>
<linearGradient id="paint57_linear_273_20676" x1="2687.64" y1="84.3821" x2="2717.23" y2="29.1364" gradientUnits="userSpaceOnUse">
<stop stop-color="white"/>
<stop offset="1" stop-color="white" stop-opacity="0"/>
</linearGradient>
<linearGradient id="paint58_linear_273_20676" x1="2.13444" y1="0" x2="90.9439" y2="47.676" gradientUnits="userSpaceOnUse">
<stop stop-color="#98C0C3"/>
<stop offset="1" stop-color="#9BC9CB" stop-opacity="0"/>
</linearGradient>
<linearGradient id="paint59_linear_273_20676" x1="31.8695" y1="-4.60171" x2="32.9475" y2="18.6691" gradientUnits="userSpaceOnUse">
<stop stop-color="#98C0C3"/>
<stop offset="1" stop-color="#9BC9CB" stop-opacity="0"/>
</linearGradient>
<linearGradient id="paint60_linear_273_20676" x1="1869.53" y1="907.074" x2="1428.92" y2="1154.24" gradientUnits="userSpaceOnUse">
<stop stop-color="#82A9AB"/>
<stop offset="1" stop-color="#D8E7E8"/>
</linearGradient>
<linearGradient id="paint61_linear_273_20676" x1="2640" y1="106" x2="2428.19" y2="231.808" gradientUnits="userSpaceOnUse">
<stop stop-color="#C8DEDF"/>
<stop offset="1" stop-color="#82A9AB"/>
</linearGradient>
<linearGradient id="paint62_linear_273_20676" x1="252.174" y1="0" x2="252.174" y2="504.348" gradientUnits="userSpaceOnUse">
<stop stop-color="#8F9D2F"/>
<stop offset="1" stop-color="#E3ECAF"/>
</linearGradient>
<linearGradient id="paint63_linear_273_20676" x1="252.174" y1="0" x2="252.174" y2="504.348" gradientUnits="userSpaceOnUse">
<stop stop-color="#8F9D2F"/>
<stop offset="1" stop-color="#E3ECAF"/>
</linearGradient>
<linearGradient id="paint64_linear_273_20676" x1="252.174" y1="0" x2="252.174" y2="504.348" gradientUnits="userSpaceOnUse">
<stop stop-color="#8F9D2F"/>
<stop offset="1" stop-color="#E3ECAF"/>
</linearGradient>
<linearGradient id="paint65_linear_273_20676" x1="252.174" y1="0" x2="252.174" y2="504.348" gradientUnits="userSpaceOnUse">
<stop stop-color="#8F9D2F"/>
<stop offset="1" stop-color="#E3ECAF"/>
</linearGradient>
<linearGradient id="paint66_linear_273_20676" x1="252.174" y1="0" x2="252.174" y2="504.348" gradientUnits="userSpaceOnUse">
<stop stop-color="#8F9D2F"/>
<stop offset="1" stop-color="#E3ECAF"/>
</linearGradient>
<linearGradient id="paint67_linear_273_20676" x1="252.174" y1="0" x2="252.174" y2="504.348" gradientUnits="userSpaceOnUse">
<stop stop-color="#8F9D2F"/>
<stop offset="1" stop-color="#E3ECAF"/>
</linearGradient>
<linearGradient id="paint68_linear_273_20676" x1="252.174" y1="0" x2="252.174" y2="504.348" gradientUnits="userSpaceOnUse">
<stop stop-color="#8F9D2F"/>
<stop offset="1" stop-color="#E3ECAF"/>
</linearGradient>
<linearGradient id="paint69_linear_273_20676" x1="252.174" y1="0" x2="252.174" y2="504.348" gradientUnits="userSpaceOnUse">
<stop stop-color="#8F9D2F"/>
<stop offset="1" stop-color="#E3ECAF"/>
</linearGradient>
<linearGradient id="paint70_linear_273_20676" x1="252.174" y1="0" x2="252.174" y2="504.348" gradientUnits="userSpaceOnUse">
<stop stop-color="#8F9D2F"/>
<stop offset="1" stop-color="#E3ECAF"/>
</linearGradient>
<linearGradient id="paint71_linear_273_20676" x1="252.174" y1="0" x2="252.174" y2="504.348" gradientUnits="userSpaceOnUse">
<stop stop-color="#8F9D2F"/>
<stop offset="1" stop-color="#E3ECAF"/>
</linearGradient>
<linearGradient id="paint72_linear_273_20676" x1="252.174" y1="0" x2="252.174" y2="504.348" gradientUnits="userSpaceOnUse">
<stop stop-color="#8F9D2F"/>
<stop offset="1" stop-color="#E3ECAF"/>
</linearGradient>
<linearGradient id="paint73_linear_273_20676" x1="252.174" y1="0" x2="252.174" y2="504.348" gradientUnits="userSpaceOnUse">
<stop stop-color="#8F9D2F"/>
<stop offset="1" stop-color="#E3ECAF"/>
</linearGradient>
<linearGradient id="paint74_linear_273_20676" x1="252.174" y1="0" x2="252.174" y2="504.348" gradientUnits="userSpaceOnUse">
<stop stop-color="#8F9D2F"/>
<stop offset="1" stop-color="#E3ECAF"/>
</linearGradient>
<linearGradient id="paint75_linear_273_20676" x1="252.174" y1="0" x2="252.174" y2="504.348" gradientUnits="userSpaceOnUse">
<stop stop-color="#8F9D2F"/>
<stop offset="1" stop-color="#E3ECAF"/>
</linearGradient>
<linearGradient id="paint76_linear_273_20676" x1="252.174" y1="0" x2="252.174" y2="504.348" gradientUnits="userSpaceOnUse">
<stop stop-color="#8F9D2F"/>
<stop offset="1" stop-color="#E3ECAF"/>
</linearGradient>
<linearGradient id="paint77_linear_273_20676" x1="252.174" y1="0" x2="252.174" y2="504.348" gradientUnits="userSpaceOnUse">
<stop stop-color="#8F9D2F"/>
<stop offset="1" stop-color="#E3ECAF"/>
</linearGradient>
<linearGradient id="paint78_linear_273_20676" x1="252.174" y1="0" x2="252.174" y2="504.348" gradientUnits="userSpaceOnUse">
<stop stop-color="#8F9D2F"/>
<stop offset="1" stop-color="#E3ECAF"/>
</linearGradient>
<linearGradient id="paint79_linear_273_20676" x1="252.174" y1="0" x2="252.174" y2="504.348" gradientUnits="userSpaceOnUse">
<stop stop-color="#8F9D2F"/>
<stop offset="1" stop-color="#E3ECAF"/>
</linearGradient>
<linearGradient id="paint80_linear_273_20676" x1="252.174" y1="0" x2="252.174" y2="504.348" gradientUnits="userSpaceOnUse">
<stop stop-color="#8F9D2F"/>
<stop offset="1" stop-color="#E3ECAF"/>
</linearGradient>
<linearGradient id="paint81_linear_273_20676" x1="252.174" y1="0" x2="252.174" y2="504.348" gradientUnits="userSpaceOnUse">
<stop stop-color="#8F9D2F"/>
<stop offset="1" stop-color="#E3ECAF"/>
</linearGradient>
<linearGradient id="paint82_linear_273_20676" x1="504.931" y1="0.506589" x2="202.299" y2="605.77" gradientUnits="userSpaceOnUse">
<stop stop-color="#EEFFA1"/>
<stop offset="1" stop-color="#CAE0DE"/>
</linearGradient>
<linearGradient id="paint83_linear_273_20676" x1="2304.8" y1="521.146" x2="2024.48" y2="667.739" gradientUnits="userSpaceOnUse">
<stop stop-color="#9DAC35"/>
<stop offset="0.535" stop-color="#9DAC35" stop-opacity="0"/>
<stop offset="1" stop-color="#9DAC35" stop-opacity="0"/>
<stop offset="1" stop-color="#9DAC35"/>
</linearGradient>
<clipPath id="clip0_273_20676">
<rect width="3300" height="1260" fill="white"/>
</clipPath>
<clipPath id="clip1_273_20676">
<rect width="4.26889" height="86.6425" fill="white" transform="matrix(1.93226e-08 1 -0.835276 0.54983 2797.82 60.4404)"/>
</clipPath>
<clipPath id="clip2_273_20676">
<rect width="86.6425" height="4.26889" fill="white" transform="matrix(0.835276 0.54983 -1.93226e-08 1 2653.08 60.4404)"/>
</clipPath>
</defs>
</svg>
